G04 EAGLE Gerber RS-274X export*
G75*
%MOMM*%
%FSLAX34Y34*%
%LPD*%
%INTop Copper*%
%IPPOS*%
%AMOC8*
5,1,8,0,0,1.08239X$1,22.5*%
G01*
%ADD10R,11.303000X13.208000*%
%ADD11R,2.100000X2.100000*%
%ADD12C,1.800000*%
%ADD13R,5.600000X7.230000*%
%ADD14C,0.203200*%


D10*
X2675890Y-228600D03*
X1546860Y-228600D03*
X1513840Y-632460D03*
X1300480Y-228600D03*
X1267460Y-632460D03*
X1051560Y-228600D03*
X1021080Y-632460D03*
X805180Y-228600D03*
X774700Y-632460D03*
X558800Y-228600D03*
X528320Y-632460D03*
X2533650Y-228600D03*
X311150Y-228600D03*
X280670Y-633730D03*
X58420Y-228600D03*
X2490470Y-632460D03*
X2284730Y-228600D03*
X2254250Y-632460D03*
X2038350Y-228600D03*
X2007870Y-632460D03*
X1791970Y-228600D03*
X1760220Y-632460D03*
D11*
X3431466Y-361002D03*
X3389466Y-361002D03*
X3347466Y-361002D03*
X3305466Y-361002D03*
X3263466Y-361002D03*
X3431466Y-306002D03*
X3389466Y-306002D03*
X3347466Y-306002D03*
X3305466Y-306002D03*
X3263466Y-306002D03*
X3221466Y-306002D03*
X3221466Y-361002D03*
X3473466Y-361002D03*
X3473466Y-306002D03*
X3431466Y-578426D03*
X3389466Y-578426D03*
X3347466Y-578426D03*
X3305466Y-578426D03*
X3263466Y-578426D03*
X3431466Y-523426D03*
X3389466Y-523426D03*
X3347466Y-523426D03*
X3305466Y-523426D03*
X3263466Y-523426D03*
X3221466Y-523426D03*
X3221466Y-578426D03*
X3473466Y-578426D03*
X3473466Y-523426D03*
D12*
X-579120Y-320421D03*
X-579120Y-345421D03*
X-604120Y-345421D03*
X-604120Y-320421D03*
X-629120Y-320421D03*
X-629120Y-345421D03*
X-554120Y-345421D03*
X-554120Y-320421D03*
X-529120Y-320421D03*
X-529120Y-345421D03*
X-504120Y-345421D03*
X-504120Y-320421D03*
X-654120Y-320421D03*
X-654120Y-345421D03*
X-580136Y-537845D03*
X-580136Y-562845D03*
X-605136Y-562845D03*
X-605136Y-537845D03*
X-630136Y-537845D03*
X-630136Y-562845D03*
X-555136Y-562845D03*
X-555136Y-537845D03*
X-530136Y-537845D03*
X-530136Y-562845D03*
X-505136Y-562845D03*
X-505136Y-537845D03*
X-655136Y-537845D03*
X-655136Y-562845D03*
D13*
X2994357Y-163906D03*
X3099357Y-163906D03*
X2994357Y-273169D03*
X3099357Y-273169D03*
X2994357Y-710219D03*
X3099357Y-710219D03*
X2994357Y-382431D03*
X3099357Y-382431D03*
X2994357Y-600956D03*
X3099357Y-600956D03*
X2805762Y-490146D03*
X2910762Y-490146D03*
X2994357Y-491694D03*
X3099357Y-491694D03*
X2994357Y-54644D03*
X3099357Y-54644D03*
X2994357Y-819481D03*
X3099357Y-819481D03*
X2805762Y-289213D03*
X2910762Y-289213D03*
X2805762Y-590613D03*
X2910762Y-590613D03*
X2805762Y-389680D03*
X2910762Y-389680D03*
X-81866Y-487715D03*
X-186866Y-487715D03*
X-277065Y-383064D03*
X-382065Y-383064D03*
X-277065Y-602843D03*
X-382065Y-602843D03*
X-277065Y-163286D03*
X-382065Y-163286D03*
X-277065Y-712732D03*
X-382065Y-712732D03*
X-277065Y-53397D03*
X-382065Y-53397D03*
X-277065Y-822621D03*
X-382065Y-822621D03*
X-81866Y-388049D03*
X-186866Y-388049D03*
X-277065Y-492954D03*
X-382065Y-492954D03*
X-277065Y-273175D03*
X-382065Y-273175D03*
D14*
X3333918Y-511664D02*
X3333918Y-535189D01*
X3347466Y-548737D02*
X3347466Y-578426D01*
X3347466Y-498116D02*
X3347466Y-361002D01*
X3333918Y-535189D02*
X3347466Y-548737D01*
X3333918Y-511664D02*
X3347466Y-498116D01*
X3347466Y-361002D02*
X3330448Y-343984D01*
X3330448Y-297942D01*
X3202134Y-279654D02*
X3099357Y-382431D01*
X3312160Y-279654D02*
X3330448Y-297942D01*
X3312160Y-279654D02*
X3202134Y-279654D01*
X3291918Y-511664D02*
X3291918Y-535189D01*
X3305466Y-548737D02*
X3305466Y-578426D01*
X3305466Y-498116D02*
X3305466Y-361002D01*
X3291918Y-535189D02*
X3305466Y-548737D01*
X3291918Y-511664D02*
X3305466Y-498116D01*
X3273213Y-610679D02*
X3109079Y-610679D01*
X3099357Y-600956D01*
X3273213Y-610679D02*
X3305466Y-578426D01*
X3249918Y-535189D02*
X3249918Y-511664D01*
X3263466Y-548737D02*
X3263466Y-578426D01*
X3263466Y-498116D02*
X3263466Y-361002D01*
X3249918Y-535189D02*
X3263466Y-548737D01*
X3249918Y-511664D02*
X3263466Y-498116D01*
X2922851Y-490146D02*
X2910762Y-490146D01*
X2922851Y-490146D02*
X2966681Y-446316D01*
X3110841Y-446316D01*
X3209704Y-347454D02*
X3233229Y-347454D01*
X3246777Y-361002D02*
X3263466Y-361002D01*
X3246777Y-361002D02*
X3233229Y-347454D01*
X3209704Y-347454D02*
X3110841Y-446316D01*
X3207918Y-511664D02*
X3207918Y-535189D01*
X3221466Y-548737D02*
X3221466Y-578426D01*
X3221466Y-498116D02*
X3221466Y-361002D01*
X3207918Y-535189D02*
X3221466Y-548737D01*
X3207918Y-511664D02*
X3221466Y-498116D01*
X3221466Y-578426D02*
X3186089Y-578426D01*
X3099357Y-491694D01*
X3473466Y-503863D02*
X3473466Y-523426D01*
X3473466Y-335692D02*
X3473466Y-306002D01*
X3473466Y-335692D02*
X3487014Y-349240D01*
X3487014Y-490315D02*
X3473466Y-503863D01*
X3487014Y-490315D02*
X3487014Y-349240D01*
X3416418Y-248954D02*
X3181336Y-248954D01*
X3150602Y-218220D01*
X3150602Y-105888D02*
X3099357Y-54644D01*
X3150602Y-105888D02*
X3150602Y-218220D01*
X3416418Y-248954D02*
X3473466Y-306002D01*
X3431466Y-503863D02*
X3431466Y-523426D01*
X3431466Y-335692D02*
X3431466Y-306002D01*
X3431466Y-335692D02*
X3445014Y-349240D01*
X3445014Y-490315D02*
X3431466Y-503863D01*
X3445014Y-490315D02*
X3445014Y-349240D01*
X3431466Y-523426D02*
X3431466Y-542989D01*
X3446284Y-557807D01*
X3446284Y-592316D01*
X3407079Y-631521D01*
X3168128Y-631521D02*
X3150348Y-649301D01*
X3150348Y-769697D01*
X3100564Y-819481D01*
X3099357Y-819481D01*
X3168128Y-631521D02*
X3407079Y-631521D01*
X3389466Y-523426D02*
X3389466Y-503863D01*
X3389466Y-335692D02*
X3389466Y-306002D01*
X3389466Y-335692D02*
X3403014Y-349240D01*
X3403014Y-490315D02*
X3389466Y-503863D01*
X3403014Y-490315D02*
X3403014Y-349240D01*
X2938830Y-289213D02*
X2910762Y-289213D01*
X2938830Y-289213D02*
X2967951Y-318335D01*
X3174746Y-272034D02*
X3355498Y-272034D01*
X3389466Y-306002D01*
X3174746Y-272034D02*
X3128445Y-318335D01*
X2967951Y-318335D01*
X3347466Y-503863D02*
X3347466Y-523426D01*
X3347466Y-335692D02*
X3347466Y-306002D01*
X3347466Y-335692D02*
X3361014Y-349240D01*
X3361014Y-490315D02*
X3347466Y-503863D01*
X3361014Y-490315D02*
X3361014Y-349240D01*
X3347466Y-523426D02*
X3347466Y-542989D01*
X3361014Y-556537D01*
X3361014Y-590189D01*
X3334083Y-617120D02*
X3158956Y-617120D01*
X3334083Y-617120D02*
X3361014Y-590189D01*
X2910762Y-590613D02*
X2910762Y-613063D01*
X2952457Y-654758D01*
X3121318Y-654758D02*
X3158956Y-617120D01*
X3121318Y-654758D02*
X2952457Y-654758D01*
X-554120Y-356712D02*
X-554120Y-345421D01*
X-543088Y-550797D02*
X-555136Y-562845D01*
X-543088Y-550797D02*
X-543088Y-367744D01*
X-554120Y-356712D01*
X-554120Y-345421D02*
X-545232Y-336533D01*
X-545232Y-330786D01*
X-541168Y-326722D01*
X-541168Y-315431D01*
X-513774Y-288036D01*
X-396926Y-288036D02*
X-382065Y-273175D01*
X-396926Y-288036D02*
X-513774Y-288036D01*
X-530136Y-554884D02*
X-530136Y-562845D01*
X-530136Y-554884D02*
X-518088Y-542836D01*
X-529120Y-356712D02*
X-529120Y-345421D01*
X-518088Y-367744D02*
X-518088Y-542836D01*
X-518088Y-367744D02*
X-529120Y-356712D01*
X-530136Y-562845D02*
X-530136Y-564949D01*
X-507537Y-587547D01*
X-437289Y-587547D01*
X-430833Y-581092D02*
X-430833Y-538674D01*
X-385113Y-492954D01*
X-382065Y-492954D01*
X-430833Y-581092D02*
X-437289Y-587547D01*
X-505136Y-562845D02*
X-505136Y-554884D01*
X-493088Y-542836D01*
X-493088Y-367744D01*
X-504120Y-356712D01*
X-504120Y-345421D01*
X-416725Y-432816D01*
X-231633Y-432816D02*
X-186866Y-388049D01*
X-231633Y-432816D02*
X-416725Y-432816D01*
X-655136Y-361444D02*
X-655136Y-537845D01*
X-655136Y-361444D02*
X-666168Y-350412D01*
X-666168Y-332469D01*
X-654120Y-320421D01*
X-428800Y-775886D02*
X-382065Y-822621D01*
X-440254Y-606988D02*
X-603032Y-606988D01*
X-642184Y-567836D01*
X-642184Y-550797D01*
X-655136Y-537845D01*
X-428800Y-618442D02*
X-428800Y-775886D01*
X-428800Y-618442D02*
X-440254Y-606988D01*
X-630136Y-537845D02*
X-630136Y-361444D01*
X-641168Y-350412D01*
X-641168Y-332469D01*
X-629120Y-320421D01*
X-581749Y-273050D01*
X-442119Y-273050D01*
X-431546Y-262477D01*
X-382065Y-94826D02*
X-382065Y-53397D01*
X-431546Y-144307D02*
X-431546Y-262477D01*
X-431546Y-144307D02*
X-382065Y-94826D01*
X-605136Y-361444D02*
X-605136Y-537845D01*
X-605136Y-361444D02*
X-616168Y-350412D01*
X-616168Y-332469D01*
X-604120Y-320421D01*
X-617184Y-557855D02*
X-617184Y-567836D01*
X-605136Y-545807D02*
X-605136Y-537845D01*
X-605136Y-545807D02*
X-617184Y-557855D01*
X-617184Y-567836D02*
X-584128Y-600892D01*
X-437009Y-600892D01*
X-422705Y-615196D01*
X-422705Y-672092D01*
X-382065Y-712732D01*
X-580136Y-537845D02*
X-580136Y-361444D01*
X-591168Y-350412D01*
X-591168Y-332469D01*
X-579120Y-320421D01*
X-578254Y-319555D01*
X-578254Y-302119D01*
X-556297Y-280162D01*
X-438404Y-280162D01*
X-424942Y-266700D01*
X-424942Y-206163D02*
X-382065Y-163286D01*
X-424942Y-206163D02*
X-424942Y-266700D01*
X-555136Y-361444D02*
X-555136Y-537845D01*
X-555136Y-361444D02*
X-566168Y-350412D01*
X-566168Y-332469D01*
X-554120Y-320421D01*
X-567184Y-557855D02*
X-567184Y-567836D01*
X-555136Y-545807D02*
X-555136Y-537845D01*
X-555136Y-545807D02*
X-567184Y-557855D01*
X-567184Y-567836D02*
X-540967Y-594053D01*
X-390855Y-594053D01*
X-382065Y-602843D01*
X-530136Y-537845D02*
X-530136Y-361444D01*
X-541168Y-350412D01*
X-541168Y-332469D01*
X-529120Y-320421D01*
X-521159Y-320421D01*
X-509111Y-308373D01*
X-456756Y-308373D01*
X-382065Y-383064D01*
X-505136Y-361444D02*
X-505136Y-537845D01*
X-505136Y-361444D02*
X-516168Y-350412D01*
X-516168Y-332469D01*
X-504120Y-320421D01*
X-517184Y-557855D02*
X-517184Y-567836D01*
X-505047Y-579973D01*
X-505136Y-545807D02*
X-505136Y-537845D01*
X-505136Y-545807D02*
X-517184Y-557855D01*
X3263466Y-523426D02*
X3263466Y-503863D01*
X3277014Y-490315D01*
X3277014Y-319550D02*
X3263466Y-306002D01*
X3277014Y-319550D02*
X3277014Y-490315D01*
X3263466Y-523426D02*
X3263466Y-542989D01*
X3277014Y-556537D01*
X3277014Y-590189D01*
X3262874Y-604329D01*
X3180651Y-604329D01*
X3116689Y-540367D01*
X-478627Y-579973D02*
X-505047Y-579973D01*
X-416306Y-517652D02*
X-416306Y-457200D01*
X-304644Y-447788D02*
X-304630Y-447802D01*
X-406894Y-447788D02*
X-416306Y-457200D01*
X-406894Y-447788D02*
X-304644Y-447788D01*
X-226779Y-447802D02*
X-186866Y-487715D01*
X-416306Y-517652D02*
X-478627Y-579973D01*
X-304630Y-447802D02*
X-226779Y-447802D01*
X-186866Y-456360D02*
X-186866Y-487715D01*
X-186866Y-456360D02*
X-171196Y-440690D01*
X68072Y-440690D01*
X1844548Y-563467D02*
X1844548Y-597503D01*
X1954943Y-707898D02*
X2086864Y-707898D01*
X153162Y-525780D02*
X68072Y-440690D01*
X153162Y-525780D02*
X1806861Y-525780D01*
X1844548Y-563467D01*
X1844548Y-597503D02*
X1954943Y-707898D01*
X2112137Y-682625D02*
X2112137Y-638310D01*
X2205000Y-545447D01*
X2112137Y-682625D02*
X2086864Y-707898D01*
X2752598Y-545447D02*
X2757678Y-540367D01*
X2752598Y-545447D02*
X2205000Y-545447D01*
X2757678Y-540367D02*
X3116689Y-540367D01*
X3305466Y-523426D02*
X3305466Y-503863D01*
X3305466Y-335692D02*
X3305466Y-306002D01*
X3305466Y-335692D02*
X3319014Y-349240D01*
X3319014Y-490315D02*
X3305466Y-503863D01*
X3319014Y-490315D02*
X3319014Y-349240D01*
X3305466Y-306002D02*
X3288777Y-306002D01*
X3275229Y-292454D01*
X2953146Y-432063D02*
X2910762Y-389680D01*
X2953146Y-432063D02*
X3119347Y-432063D01*
X3132247Y-419164D02*
X3132247Y-362794D01*
X3132247Y-419164D02*
X3119347Y-432063D01*
X3132247Y-362794D02*
X3202586Y-292454D01*
X3275229Y-292454D01*
X3375918Y-511664D02*
X3375918Y-535189D01*
X3389466Y-548737D02*
X3389466Y-578426D01*
X3389466Y-498116D02*
X3389466Y-361002D01*
X3375918Y-535189D02*
X3389466Y-548737D01*
X3375918Y-511664D02*
X3389466Y-498116D01*
X3389466Y-578426D02*
X3344033Y-623859D01*
X3163556Y-623859D01*
X3143744Y-643671D01*
X3143744Y-665832D01*
X3099357Y-710219D01*
X3417918Y-535189D02*
X3417918Y-511664D01*
X3431466Y-548737D02*
X3431466Y-578426D01*
X3431466Y-498116D02*
X3431466Y-361002D01*
X3417918Y-535189D02*
X3431466Y-548737D01*
X3417918Y-511664D02*
X3431466Y-498116D01*
X3431466Y-361002D02*
X3431466Y-341439D01*
X3417918Y-327891D01*
X3417918Y-305910D01*
X3376549Y-264541D01*
X3107985Y-264541D01*
X3099357Y-273169D01*
X3459918Y-511664D02*
X3459918Y-535189D01*
X3473466Y-548737D02*
X3473466Y-578426D01*
X3473466Y-498116D02*
X3473466Y-361002D01*
X3459918Y-535189D02*
X3473466Y-548737D01*
X3459918Y-511664D02*
X3473466Y-498116D01*
X3473466Y-361002D02*
X3450082Y-337618D01*
X3450082Y-293116D01*
X3413328Y-256362D01*
X3178542Y-256362D01*
X3099357Y-177178D01*
X3099357Y-163906D01*
X2994357Y-163906D02*
X2929663Y-228600D01*
X2675890Y-228600D01*
X2610358Y-305308D02*
X2533650Y-228600D01*
X2610358Y-305308D02*
X2729738Y-305308D01*
X2960456Y-239268D02*
X2994357Y-273169D01*
X2960456Y-239268D02*
X2772918Y-239268D01*
X2765298Y-246888D01*
X2765298Y-269748D01*
X2729738Y-305308D01*
X2568229Y-710219D02*
X2994357Y-710219D01*
X2568229Y-710219D02*
X2490470Y-632460D01*
X2372633Y-316503D02*
X2284730Y-228600D01*
X2976299Y-382431D02*
X2994357Y-382431D01*
X2976299Y-382431D02*
X2930183Y-336315D01*
X2762504Y-336315D01*
X2742692Y-316503D01*
X2372633Y-316503D01*
X2302764Y-632460D02*
X2254250Y-632460D01*
X2989757Y-600956D02*
X2994357Y-600956D01*
X2989757Y-600956D02*
X2933993Y-545193D01*
X2761996Y-545193D01*
X2755900Y-551289D01*
X2383935Y-551289D01*
X2302764Y-632460D01*
X2161194Y-329157D02*
X2646653Y-329157D01*
X2060637Y-228600D02*
X2038350Y-228600D01*
X2060637Y-228600D02*
X2161194Y-329157D01*
X2646653Y-329157D02*
X2805762Y-488266D01*
X2805762Y-490146D01*
X2950002Y-536049D02*
X2994357Y-491694D01*
X2950002Y-536049D02*
X2753868Y-536049D01*
X2749550Y-540367D01*
X2199666Y-540367D01*
X2107573Y-632460D01*
X2007870Y-632460D01*
X2994357Y-55572D02*
X2994357Y-54644D01*
X2994357Y-55572D02*
X2914394Y-135535D01*
X1955901Y-135535D02*
X1862836Y-228600D01*
X1791970Y-228600D01*
X1955901Y-135535D02*
X2914394Y-135535D01*
X1939544Y-722884D02*
X1849120Y-632460D01*
X1760220Y-632460D01*
X2897760Y-722884D02*
X2994357Y-819481D01*
X2897760Y-722884D02*
X1939544Y-722884D01*
X1860804Y-300736D02*
X1860804Y-243586D01*
X1860804Y-300736D02*
X1854200Y-307340D01*
X1625600Y-307340D02*
X1546860Y-228600D01*
X1860804Y-243586D02*
X1961134Y-143256D01*
X1854200Y-307340D02*
X1625600Y-307340D01*
X2733707Y-311150D02*
X2755644Y-289213D01*
X2489335Y-311150D02*
X2349373Y-171189D01*
X2489335Y-311150D02*
X2733707Y-311150D01*
X2349373Y-159266D02*
X2333364Y-143256D01*
X2349373Y-159266D02*
X2349373Y-171189D01*
X2333364Y-143256D02*
X1961134Y-143256D01*
X2755644Y-289213D02*
X2805762Y-289213D01*
X2566670Y-557784D02*
X2388108Y-557784D01*
X2324354Y-621538D01*
X2324354Y-702056D01*
X2310892Y-715518D01*
X1948688Y-715518D01*
X1836420Y-603250D01*
X1836420Y-568452D01*
X1824228Y-556260D01*
X1590040Y-556260D02*
X1513840Y-632460D01*
X1590040Y-556260D02*
X1824228Y-556260D01*
X2599499Y-590613D02*
X2805762Y-590613D01*
X2599499Y-590613D02*
X2566670Y-557784D01*
X13845Y-273175D02*
X-277065Y-273175D01*
X13845Y-273175D02*
X58420Y-228600D01*
X279654Y-632714D02*
X280670Y-633730D01*
X279654Y-632714D02*
X-137305Y-632714D01*
X-277065Y-492954D01*
X281432Y-198882D02*
X311150Y-228600D01*
X281432Y-198882D02*
X241554Y-198882D01*
X123952Y-316484D01*
X-10301Y-316484D02*
X-81866Y-388049D01*
X-10301Y-316484D02*
X123952Y-316484D01*
X440690Y-632460D02*
X528320Y-632460D01*
X440690Y-632460D02*
X337143Y-736007D01*
X-187403Y-736007D01*
X-274017Y-822621D02*
X-277065Y-822621D01*
X-274017Y-822621D02*
X-187403Y-736007D01*
X-225915Y-137059D02*
X467259Y-137059D01*
X-225915Y-137059D02*
X-277065Y-85909D01*
X-277065Y-53397D01*
X467259Y-137059D02*
X558800Y-228600D01*
X443738Y-575818D02*
X443738Y-618102D01*
X443738Y-575818D02*
X464566Y-554990D01*
X443738Y-618102D02*
X336597Y-725242D01*
X464566Y-554990D02*
X699770Y-554990D01*
X774700Y-629920D01*
X774700Y-632460D01*
X336597Y-725242D02*
X-264555Y-725242D01*
X-277065Y-712732D01*
X728726Y-305054D02*
X805180Y-228600D01*
X728726Y-305054D02*
X416306Y-305054D01*
X386588Y-275336D01*
X386588Y-160782D01*
X-3132Y-163286D02*
X-277065Y-163286D01*
X-3132Y-163286D02*
X13851Y-146304D01*
X372110Y-146304D02*
X386588Y-160782D01*
X372110Y-146304D02*
X13851Y-146304D01*
X435356Y-572516D02*
X435356Y-614680D01*
X435356Y-572516D02*
X461264Y-546608D01*
X935228Y-546608D02*
X1021080Y-632460D01*
X435356Y-614680D02*
X335788Y-714248D01*
X461264Y-546608D02*
X935228Y-546608D01*
X-165660Y-714248D02*
X-277065Y-602843D01*
X-165660Y-714248D02*
X335788Y-714248D01*
X966216Y-313944D02*
X1051560Y-228600D01*
X966216Y-313944D02*
X410464Y-313944D01*
X376936Y-280416D01*
X376936Y-164338D01*
X366014Y-153416D01*
X253627Y-153416D02*
X240411Y-166632D01*
X240411Y-183864D02*
X117522Y-306752D01*
X240411Y-183864D02*
X240411Y-166632D01*
X253627Y-153416D02*
X366014Y-153416D01*
X117522Y-306752D02*
X-200753Y-306752D01*
X-277065Y-383064D01*
X1857661Y-314198D02*
X1867916Y-303943D01*
X1410089Y-228600D02*
X1300480Y-228600D01*
X1867916Y-248666D02*
X1867916Y-303943D01*
X1867916Y-248666D02*
X1965706Y-150876D01*
X1495687Y-314198D02*
X1410089Y-228600D01*
X1495687Y-314198D02*
X1857661Y-314198D01*
X1965706Y-150876D02*
X2098040Y-150876D01*
X2105152Y-157988D02*
X2105152Y-215805D01*
X2211970Y-322624D01*
X2805762Y-388742D02*
X2805762Y-389680D01*
X2805762Y-388742D02*
X2739644Y-322624D01*
X2211970Y-322624D01*
X2105152Y-157988D02*
X2098040Y-150876D01*
X1267460Y-632460D02*
X1156582Y-632460D01*
X1061586Y-537464D01*
X-32117Y-537464D02*
X-81866Y-487715D01*
X-32117Y-537464D02*
X1061586Y-537464D01*
M02*
