G04 EAGLE Gerber RS-274X export*
G75*
%MOMM*%
%FSLAX34Y34*%
%LPD*%
%IN*%
%IPPOS*%
%AMOC8*
5,1,8,0,0,1.08239X$1,22.5*%
G01*
%ADD10C,0.254000*%


D10*
X-716534Y-875284D02*
X3581400Y-876300D01*
X3581400Y0D01*
X-716534Y1016D01*
X-716534Y-875284D01*
X948330Y-40001D02*
X948330Y-38739D01*
X948259Y-37478D01*
X948118Y-36223D01*
X947906Y-34979D01*
X947625Y-33748D01*
X947276Y-32535D01*
X946859Y-31343D01*
X946376Y-30176D01*
X945828Y-29039D01*
X945217Y-27934D01*
X944545Y-26865D01*
X943815Y-25835D01*
X943028Y-24848D01*
X942186Y-23907D01*
X941294Y-23014D01*
X940352Y-22172D01*
X939365Y-21385D01*
X938335Y-20655D01*
X937266Y-19983D01*
X936161Y-19372D01*
X935024Y-18824D01*
X933857Y-18341D01*
X932665Y-17924D01*
X931452Y-17575D01*
X930221Y-17294D01*
X928977Y-17082D01*
X927722Y-16941D01*
X926461Y-16870D01*
X925199Y-16870D01*
X923938Y-16941D01*
X922683Y-17082D01*
X921439Y-17294D01*
X920208Y-17575D01*
X918995Y-17924D01*
X917803Y-18341D01*
X916636Y-18824D01*
X915499Y-19372D01*
X914394Y-19983D01*
X913325Y-20655D01*
X912295Y-21385D01*
X911308Y-22172D01*
X910367Y-23014D01*
X909474Y-23907D01*
X908632Y-24848D01*
X907845Y-25835D01*
X907115Y-26865D01*
X906443Y-27934D01*
X905832Y-29039D01*
X905284Y-30176D01*
X904801Y-31343D01*
X904384Y-32535D01*
X904035Y-33748D01*
X903754Y-34979D01*
X903542Y-36223D01*
X903401Y-37478D01*
X903330Y-38739D01*
X903330Y-40001D01*
X903401Y-41262D01*
X903542Y-42517D01*
X903754Y-43761D01*
X904035Y-44992D01*
X904384Y-46205D01*
X904801Y-47397D01*
X905284Y-48564D01*
X905832Y-49701D01*
X906443Y-50806D01*
X907115Y-51875D01*
X907845Y-52905D01*
X908632Y-53892D01*
X909474Y-54834D01*
X910367Y-55726D01*
X911308Y-56568D01*
X912295Y-57355D01*
X913325Y-58085D01*
X914394Y-58757D01*
X915499Y-59368D01*
X916636Y-59916D01*
X917803Y-60399D01*
X918995Y-60816D01*
X920208Y-61165D01*
X921439Y-61446D01*
X922683Y-61658D01*
X923938Y-61799D01*
X925199Y-61870D01*
X926461Y-61870D01*
X927722Y-61799D01*
X928977Y-61658D01*
X930221Y-61446D01*
X931452Y-61165D01*
X932665Y-60816D01*
X933857Y-60399D01*
X935024Y-59916D01*
X936161Y-59368D01*
X937266Y-58757D01*
X938335Y-58085D01*
X939365Y-57355D01*
X940352Y-56568D01*
X941294Y-55726D01*
X942186Y-54834D01*
X943028Y-53892D01*
X943815Y-52905D01*
X944545Y-51875D01*
X945217Y-50806D01*
X945828Y-49701D01*
X946376Y-48564D01*
X946859Y-47397D01*
X947276Y-46205D01*
X947625Y-44992D01*
X947906Y-43761D01*
X948118Y-42517D01*
X948259Y-41262D01*
X948330Y-40001D01*
X1960520Y-40001D02*
X1960520Y-38739D01*
X1960449Y-37478D01*
X1960308Y-36223D01*
X1960096Y-34979D01*
X1959815Y-33748D01*
X1959466Y-32535D01*
X1959049Y-31343D01*
X1958566Y-30176D01*
X1958018Y-29039D01*
X1957407Y-27934D01*
X1956735Y-26865D01*
X1956005Y-25835D01*
X1955218Y-24848D01*
X1954376Y-23907D01*
X1953484Y-23014D01*
X1952542Y-22172D01*
X1951555Y-21385D01*
X1950525Y-20655D01*
X1949456Y-19983D01*
X1948351Y-19372D01*
X1947214Y-18824D01*
X1946047Y-18341D01*
X1944855Y-17924D01*
X1943642Y-17575D01*
X1942411Y-17294D01*
X1941167Y-17082D01*
X1939912Y-16941D01*
X1938651Y-16870D01*
X1937389Y-16870D01*
X1936128Y-16941D01*
X1934873Y-17082D01*
X1933629Y-17294D01*
X1932398Y-17575D01*
X1931185Y-17924D01*
X1929993Y-18341D01*
X1928826Y-18824D01*
X1927689Y-19372D01*
X1926584Y-19983D01*
X1925515Y-20655D01*
X1924485Y-21385D01*
X1923498Y-22172D01*
X1922557Y-23014D01*
X1921664Y-23907D01*
X1920822Y-24848D01*
X1920035Y-25835D01*
X1919305Y-26865D01*
X1918633Y-27934D01*
X1918022Y-29039D01*
X1917474Y-30176D01*
X1916991Y-31343D01*
X1916574Y-32535D01*
X1916225Y-33748D01*
X1915944Y-34979D01*
X1915732Y-36223D01*
X1915591Y-37478D01*
X1915520Y-38739D01*
X1915520Y-40001D01*
X1915591Y-41262D01*
X1915732Y-42517D01*
X1915944Y-43761D01*
X1916225Y-44992D01*
X1916574Y-46205D01*
X1916991Y-47397D01*
X1917474Y-48564D01*
X1918022Y-49701D01*
X1918633Y-50806D01*
X1919305Y-51875D01*
X1920035Y-52905D01*
X1920822Y-53892D01*
X1921664Y-54834D01*
X1922557Y-55726D01*
X1923498Y-56568D01*
X1924485Y-57355D01*
X1925515Y-58085D01*
X1926584Y-58757D01*
X1927689Y-59368D01*
X1928826Y-59916D01*
X1929993Y-60399D01*
X1931185Y-60816D01*
X1932398Y-61165D01*
X1933629Y-61446D01*
X1934873Y-61658D01*
X1936128Y-61799D01*
X1937389Y-61870D01*
X1938651Y-61870D01*
X1939912Y-61799D01*
X1941167Y-61658D01*
X1942411Y-61446D01*
X1943642Y-61165D01*
X1944855Y-60816D01*
X1946047Y-60399D01*
X1947214Y-59916D01*
X1948351Y-59368D01*
X1949456Y-58757D01*
X1950525Y-58085D01*
X1951555Y-57355D01*
X1952542Y-56568D01*
X1953484Y-55726D01*
X1954376Y-54834D01*
X1955218Y-53892D01*
X1956005Y-52905D01*
X1956735Y-51875D01*
X1957407Y-50806D01*
X1958018Y-49701D01*
X1958566Y-48564D01*
X1959049Y-47397D01*
X1959466Y-46205D01*
X1959815Y-44992D01*
X1960096Y-43761D01*
X1960308Y-42517D01*
X1960449Y-41262D01*
X1960520Y-40001D01*
X2656988Y-40001D02*
X2656988Y-38739D01*
X2656917Y-37478D01*
X2656776Y-36223D01*
X2656564Y-34979D01*
X2656283Y-33748D01*
X2655934Y-32535D01*
X2655517Y-31343D01*
X2655034Y-30176D01*
X2654486Y-29039D01*
X2653875Y-27934D01*
X2653203Y-26865D01*
X2652473Y-25835D01*
X2651686Y-24848D01*
X2650844Y-23907D01*
X2649952Y-23014D01*
X2649010Y-22172D01*
X2648023Y-21385D01*
X2646993Y-20655D01*
X2645924Y-19983D01*
X2644819Y-19372D01*
X2643682Y-18824D01*
X2642515Y-18341D01*
X2641323Y-17924D01*
X2640110Y-17575D01*
X2638879Y-17294D01*
X2637635Y-17082D01*
X2636380Y-16941D01*
X2635119Y-16870D01*
X2633857Y-16870D01*
X2632596Y-16941D01*
X2631341Y-17082D01*
X2630097Y-17294D01*
X2628866Y-17575D01*
X2627653Y-17924D01*
X2626461Y-18341D01*
X2625294Y-18824D01*
X2624157Y-19372D01*
X2623052Y-19983D01*
X2621983Y-20655D01*
X2620953Y-21385D01*
X2619966Y-22172D01*
X2619025Y-23014D01*
X2618132Y-23907D01*
X2617290Y-24848D01*
X2616503Y-25835D01*
X2615773Y-26865D01*
X2615101Y-27934D01*
X2614490Y-29039D01*
X2613942Y-30176D01*
X2613459Y-31343D01*
X2613042Y-32535D01*
X2612693Y-33748D01*
X2612412Y-34979D01*
X2612200Y-36223D01*
X2612059Y-37478D01*
X2611988Y-38739D01*
X2611988Y-40001D01*
X2612059Y-41262D01*
X2612200Y-42517D01*
X2612412Y-43761D01*
X2612693Y-44992D01*
X2613042Y-46205D01*
X2613459Y-47397D01*
X2613942Y-48564D01*
X2614490Y-49701D01*
X2615101Y-50806D01*
X2615773Y-51875D01*
X2616503Y-52905D01*
X2617290Y-53892D01*
X2618132Y-54834D01*
X2619025Y-55726D01*
X2619966Y-56568D01*
X2620953Y-57355D01*
X2621983Y-58085D01*
X2623052Y-58757D01*
X2624157Y-59368D01*
X2625294Y-59916D01*
X2626461Y-60399D01*
X2627653Y-60816D01*
X2628866Y-61165D01*
X2630097Y-61446D01*
X2631341Y-61658D01*
X2632596Y-61799D01*
X2633857Y-61870D01*
X2635119Y-61870D01*
X2636380Y-61799D01*
X2637635Y-61658D01*
X2638879Y-61446D01*
X2640110Y-61165D01*
X2641323Y-60816D01*
X2642515Y-60399D01*
X2643682Y-59916D01*
X2644819Y-59368D01*
X2645924Y-58757D01*
X2646993Y-58085D01*
X2648023Y-57355D01*
X2649010Y-56568D01*
X2649952Y-55726D01*
X2650844Y-54834D01*
X2651686Y-53892D01*
X2652473Y-52905D01*
X2653203Y-51875D01*
X2653875Y-50806D01*
X2654486Y-49701D01*
X2655034Y-48564D01*
X2655517Y-47397D01*
X2655934Y-46205D01*
X2656283Y-44992D01*
X2656564Y-43761D01*
X2656776Y-42517D01*
X2656917Y-41262D01*
X2656988Y-40001D01*
X436520Y-429891D02*
X436520Y-428629D01*
X436449Y-427368D01*
X436308Y-426113D01*
X436096Y-424869D01*
X435815Y-423638D01*
X435466Y-422425D01*
X435049Y-421233D01*
X434566Y-420066D01*
X434018Y-418929D01*
X433407Y-417824D01*
X432735Y-416755D01*
X432005Y-415725D01*
X431218Y-414738D01*
X430376Y-413797D01*
X429484Y-412904D01*
X428542Y-412062D01*
X427555Y-411275D01*
X426525Y-410545D01*
X425456Y-409873D01*
X424351Y-409262D01*
X423214Y-408714D01*
X422047Y-408231D01*
X420855Y-407814D01*
X419642Y-407465D01*
X418411Y-407184D01*
X417167Y-406972D01*
X415912Y-406831D01*
X414651Y-406760D01*
X413389Y-406760D01*
X412128Y-406831D01*
X410873Y-406972D01*
X409629Y-407184D01*
X408398Y-407465D01*
X407185Y-407814D01*
X405993Y-408231D01*
X404826Y-408714D01*
X403689Y-409262D01*
X402584Y-409873D01*
X401515Y-410545D01*
X400485Y-411275D01*
X399498Y-412062D01*
X398557Y-412904D01*
X397664Y-413797D01*
X396822Y-414738D01*
X396035Y-415725D01*
X395305Y-416755D01*
X394633Y-417824D01*
X394022Y-418929D01*
X393474Y-420066D01*
X392991Y-421233D01*
X392574Y-422425D01*
X392225Y-423638D01*
X391944Y-424869D01*
X391732Y-426113D01*
X391591Y-427368D01*
X391520Y-428629D01*
X391520Y-429891D01*
X391591Y-431152D01*
X391732Y-432407D01*
X391944Y-433651D01*
X392225Y-434882D01*
X392574Y-436095D01*
X392991Y-437287D01*
X393474Y-438454D01*
X394022Y-439591D01*
X394633Y-440696D01*
X395305Y-441765D01*
X396035Y-442795D01*
X396822Y-443782D01*
X397664Y-444724D01*
X398557Y-445616D01*
X399498Y-446458D01*
X400485Y-447245D01*
X401515Y-447975D01*
X402584Y-448647D01*
X403689Y-449258D01*
X404826Y-449806D01*
X405993Y-450289D01*
X407185Y-450706D01*
X408398Y-451055D01*
X409629Y-451336D01*
X410873Y-451548D01*
X412128Y-451689D01*
X413389Y-451760D01*
X414651Y-451760D01*
X415912Y-451689D01*
X417167Y-451548D01*
X418411Y-451336D01*
X419642Y-451055D01*
X420855Y-450706D01*
X422047Y-450289D01*
X423214Y-449806D01*
X424351Y-449258D01*
X425456Y-448647D01*
X426525Y-447975D01*
X427555Y-447245D01*
X428542Y-446458D01*
X429484Y-445616D01*
X430376Y-444724D01*
X431218Y-443782D01*
X432005Y-442795D01*
X432735Y-441765D01*
X433407Y-440696D01*
X434018Y-439591D01*
X434566Y-438454D01*
X435049Y-437287D01*
X435466Y-436095D01*
X435815Y-434882D01*
X436096Y-433651D01*
X436308Y-432407D01*
X436449Y-431152D01*
X436520Y-429891D01*
X227478Y-40001D02*
X227478Y-38739D01*
X227407Y-37478D01*
X227266Y-36223D01*
X227054Y-34979D01*
X226773Y-33748D01*
X226424Y-32535D01*
X226007Y-31343D01*
X225524Y-30176D01*
X224976Y-29039D01*
X224365Y-27934D01*
X223693Y-26865D01*
X222963Y-25835D01*
X222176Y-24848D01*
X221334Y-23907D01*
X220442Y-23014D01*
X219500Y-22172D01*
X218513Y-21385D01*
X217483Y-20655D01*
X216414Y-19983D01*
X215309Y-19372D01*
X214172Y-18824D01*
X213005Y-18341D01*
X211813Y-17924D01*
X210600Y-17575D01*
X209369Y-17294D01*
X208125Y-17082D01*
X206870Y-16941D01*
X205609Y-16870D01*
X204347Y-16870D01*
X203086Y-16941D01*
X201831Y-17082D01*
X200587Y-17294D01*
X199356Y-17575D01*
X198143Y-17924D01*
X196951Y-18341D01*
X195784Y-18824D01*
X194647Y-19372D01*
X193542Y-19983D01*
X192473Y-20655D01*
X191443Y-21385D01*
X190456Y-22172D01*
X189515Y-23014D01*
X188622Y-23907D01*
X187780Y-24848D01*
X186993Y-25835D01*
X186263Y-26865D01*
X185591Y-27934D01*
X184980Y-29039D01*
X184432Y-30176D01*
X183949Y-31343D01*
X183532Y-32535D01*
X183183Y-33748D01*
X182902Y-34979D01*
X182690Y-36223D01*
X182549Y-37478D01*
X182478Y-38739D01*
X182478Y-40001D01*
X182549Y-41262D01*
X182690Y-42517D01*
X182902Y-43761D01*
X183183Y-44992D01*
X183532Y-46205D01*
X183949Y-47397D01*
X184432Y-48564D01*
X184980Y-49701D01*
X185591Y-50806D01*
X186263Y-51875D01*
X186993Y-52905D01*
X187780Y-53892D01*
X188622Y-54834D01*
X189515Y-55726D01*
X190456Y-56568D01*
X191443Y-57355D01*
X192473Y-58085D01*
X193542Y-58757D01*
X194647Y-59368D01*
X195784Y-59916D01*
X196951Y-60399D01*
X198143Y-60816D01*
X199356Y-61165D01*
X200587Y-61446D01*
X201831Y-61658D01*
X203086Y-61799D01*
X204347Y-61870D01*
X205609Y-61870D01*
X206870Y-61799D01*
X208125Y-61658D01*
X209369Y-61446D01*
X210600Y-61165D01*
X211813Y-60816D01*
X213005Y-60399D01*
X214172Y-59916D01*
X215309Y-59368D01*
X216414Y-58757D01*
X217483Y-58085D01*
X218513Y-57355D01*
X219500Y-56568D01*
X220442Y-55726D01*
X221334Y-54834D01*
X222176Y-53892D01*
X222963Y-52905D01*
X223693Y-51875D01*
X224365Y-50806D01*
X224976Y-49701D01*
X225524Y-48564D01*
X226007Y-47397D01*
X226424Y-46205D01*
X226773Y-44992D01*
X227054Y-43761D01*
X227266Y-42517D01*
X227407Y-41262D01*
X227478Y-40001D01*
X1423310Y-429891D02*
X1423310Y-428629D01*
X1423239Y-427368D01*
X1423098Y-426113D01*
X1422886Y-424869D01*
X1422605Y-423638D01*
X1422256Y-422425D01*
X1421839Y-421233D01*
X1421356Y-420066D01*
X1420808Y-418929D01*
X1420197Y-417824D01*
X1419525Y-416755D01*
X1418795Y-415725D01*
X1418008Y-414738D01*
X1417166Y-413797D01*
X1416274Y-412904D01*
X1415332Y-412062D01*
X1414345Y-411275D01*
X1413315Y-410545D01*
X1412246Y-409873D01*
X1411141Y-409262D01*
X1410004Y-408714D01*
X1408837Y-408231D01*
X1407645Y-407814D01*
X1406432Y-407465D01*
X1405201Y-407184D01*
X1403957Y-406972D01*
X1402702Y-406831D01*
X1401441Y-406760D01*
X1400179Y-406760D01*
X1398918Y-406831D01*
X1397663Y-406972D01*
X1396419Y-407184D01*
X1395188Y-407465D01*
X1393975Y-407814D01*
X1392783Y-408231D01*
X1391616Y-408714D01*
X1390479Y-409262D01*
X1389374Y-409873D01*
X1388305Y-410545D01*
X1387275Y-411275D01*
X1386288Y-412062D01*
X1385347Y-412904D01*
X1384454Y-413797D01*
X1383612Y-414738D01*
X1382825Y-415725D01*
X1382095Y-416755D01*
X1381423Y-417824D01*
X1380812Y-418929D01*
X1380264Y-420066D01*
X1379781Y-421233D01*
X1379364Y-422425D01*
X1379015Y-423638D01*
X1378734Y-424869D01*
X1378522Y-426113D01*
X1378381Y-427368D01*
X1378310Y-428629D01*
X1378310Y-429891D01*
X1378381Y-431152D01*
X1378522Y-432407D01*
X1378734Y-433651D01*
X1379015Y-434882D01*
X1379364Y-436095D01*
X1379781Y-437287D01*
X1380264Y-438454D01*
X1380812Y-439591D01*
X1381423Y-440696D01*
X1382095Y-441765D01*
X1382825Y-442795D01*
X1383612Y-443782D01*
X1384454Y-444724D01*
X1385347Y-445616D01*
X1386288Y-446458D01*
X1387275Y-447245D01*
X1388305Y-447975D01*
X1389374Y-448647D01*
X1390479Y-449258D01*
X1391616Y-449806D01*
X1392783Y-450289D01*
X1393975Y-450706D01*
X1395188Y-451055D01*
X1396419Y-451336D01*
X1397663Y-451548D01*
X1398918Y-451689D01*
X1400179Y-451760D01*
X1401441Y-451760D01*
X1402702Y-451689D01*
X1403957Y-451548D01*
X1405201Y-451336D01*
X1406432Y-451055D01*
X1407645Y-450706D01*
X1408837Y-450289D01*
X1410004Y-449806D01*
X1411141Y-449258D01*
X1412246Y-448647D01*
X1413315Y-447975D01*
X1414345Y-447245D01*
X1415332Y-446458D01*
X1416274Y-445616D01*
X1417166Y-444724D01*
X1418008Y-443782D01*
X1418795Y-442795D01*
X1419525Y-441765D01*
X1420197Y-440696D01*
X1420808Y-439591D01*
X1421356Y-438454D01*
X1421839Y-437287D01*
X1422256Y-436095D01*
X1422605Y-434882D01*
X1422886Y-433651D01*
X1423098Y-432407D01*
X1423239Y-431152D01*
X1423310Y-429891D01*
X2408830Y-429891D02*
X2408830Y-428629D01*
X2408759Y-427368D01*
X2408618Y-426113D01*
X2408406Y-424869D01*
X2408125Y-423638D01*
X2407776Y-422425D01*
X2407359Y-421233D01*
X2406876Y-420066D01*
X2406328Y-418929D01*
X2405717Y-417824D01*
X2405045Y-416755D01*
X2404315Y-415725D01*
X2403528Y-414738D01*
X2402686Y-413797D01*
X2401794Y-412904D01*
X2400852Y-412062D01*
X2399865Y-411275D01*
X2398835Y-410545D01*
X2397766Y-409873D01*
X2396661Y-409262D01*
X2395524Y-408714D01*
X2394357Y-408231D01*
X2393165Y-407814D01*
X2391952Y-407465D01*
X2390721Y-407184D01*
X2389477Y-406972D01*
X2388222Y-406831D01*
X2386961Y-406760D01*
X2385699Y-406760D01*
X2384438Y-406831D01*
X2383183Y-406972D01*
X2381939Y-407184D01*
X2380708Y-407465D01*
X2379495Y-407814D01*
X2378303Y-408231D01*
X2377136Y-408714D01*
X2375999Y-409262D01*
X2374894Y-409873D01*
X2373825Y-410545D01*
X2372795Y-411275D01*
X2371808Y-412062D01*
X2370867Y-412904D01*
X2369974Y-413797D01*
X2369132Y-414738D01*
X2368345Y-415725D01*
X2367615Y-416755D01*
X2366943Y-417824D01*
X2366332Y-418929D01*
X2365784Y-420066D01*
X2365301Y-421233D01*
X2364884Y-422425D01*
X2364535Y-423638D01*
X2364254Y-424869D01*
X2364042Y-426113D01*
X2363901Y-427368D01*
X2363830Y-428629D01*
X2363830Y-429891D01*
X2363901Y-431152D01*
X2364042Y-432407D01*
X2364254Y-433651D01*
X2364535Y-434882D01*
X2364884Y-436095D01*
X2365301Y-437287D01*
X2365784Y-438454D01*
X2366332Y-439591D01*
X2366943Y-440696D01*
X2367615Y-441765D01*
X2368345Y-442795D01*
X2369132Y-443782D01*
X2369974Y-444724D01*
X2370867Y-445616D01*
X2371808Y-446458D01*
X2372795Y-447245D01*
X2373825Y-447975D01*
X2374894Y-448647D01*
X2375999Y-449258D01*
X2377136Y-449806D01*
X2378303Y-450289D01*
X2379495Y-450706D01*
X2380708Y-451055D01*
X2381939Y-451336D01*
X2383183Y-451548D01*
X2384438Y-451689D01*
X2385699Y-451760D01*
X2386961Y-451760D01*
X2388222Y-451689D01*
X2389477Y-451548D01*
X2390721Y-451336D01*
X2391952Y-451055D01*
X2393165Y-450706D01*
X2394357Y-450289D01*
X2395524Y-449806D01*
X2396661Y-449258D01*
X2397766Y-448647D01*
X2398835Y-447975D01*
X2399865Y-447245D01*
X2400852Y-446458D01*
X2401794Y-445616D01*
X2402686Y-444724D01*
X2403528Y-443782D01*
X2404315Y-442795D01*
X2405045Y-441765D01*
X2405717Y-440696D01*
X2406328Y-439591D01*
X2406876Y-438454D01*
X2407359Y-437287D01*
X2407776Y-436095D01*
X2408125Y-434882D01*
X2408406Y-433651D01*
X2408618Y-432407D01*
X2408759Y-431152D01*
X2408830Y-429891D01*
X2374540Y-819781D02*
X2374540Y-818519D01*
X2374469Y-817258D01*
X2374328Y-816003D01*
X2374116Y-814759D01*
X2373835Y-813528D01*
X2373486Y-812315D01*
X2373069Y-811123D01*
X2372586Y-809956D01*
X2372038Y-808819D01*
X2371427Y-807714D01*
X2370755Y-806645D01*
X2370025Y-805615D01*
X2369238Y-804628D01*
X2368396Y-803687D01*
X2367504Y-802794D01*
X2366562Y-801952D01*
X2365575Y-801165D01*
X2364545Y-800435D01*
X2363476Y-799763D01*
X2362371Y-799152D01*
X2361234Y-798604D01*
X2360067Y-798121D01*
X2358875Y-797704D01*
X2357662Y-797355D01*
X2356431Y-797074D01*
X2355187Y-796862D01*
X2353932Y-796721D01*
X2352671Y-796650D01*
X2351409Y-796650D01*
X2350148Y-796721D01*
X2348893Y-796862D01*
X2347649Y-797074D01*
X2346418Y-797355D01*
X2345205Y-797704D01*
X2344013Y-798121D01*
X2342846Y-798604D01*
X2341709Y-799152D01*
X2340604Y-799763D01*
X2339535Y-800435D01*
X2338505Y-801165D01*
X2337518Y-801952D01*
X2336577Y-802794D01*
X2335684Y-803687D01*
X2334842Y-804628D01*
X2334055Y-805615D01*
X2333325Y-806645D01*
X2332653Y-807714D01*
X2332042Y-808819D01*
X2331494Y-809956D01*
X2331011Y-811123D01*
X2330594Y-812315D01*
X2330245Y-813528D01*
X2329964Y-814759D01*
X2329752Y-816003D01*
X2329611Y-817258D01*
X2329540Y-818519D01*
X2329540Y-819781D01*
X2329611Y-821042D01*
X2329752Y-822297D01*
X2329964Y-823541D01*
X2330245Y-824772D01*
X2330594Y-825985D01*
X2331011Y-827177D01*
X2331494Y-828344D01*
X2332042Y-829481D01*
X2332653Y-830586D01*
X2333325Y-831655D01*
X2334055Y-832685D01*
X2334842Y-833672D01*
X2335684Y-834614D01*
X2336577Y-835506D01*
X2337518Y-836348D01*
X2338505Y-837135D01*
X2339535Y-837865D01*
X2340604Y-838537D01*
X2341709Y-839148D01*
X2342846Y-839696D01*
X2344013Y-840179D01*
X2345205Y-840596D01*
X2346418Y-840945D01*
X2347649Y-841226D01*
X2348893Y-841438D01*
X2350148Y-841579D01*
X2351409Y-841650D01*
X2352671Y-841650D01*
X2353932Y-841579D01*
X2355187Y-841438D01*
X2356431Y-841226D01*
X2357662Y-840945D01*
X2358875Y-840596D01*
X2360067Y-840179D01*
X2361234Y-839696D01*
X2362371Y-839148D01*
X2363476Y-838537D01*
X2364545Y-837865D01*
X2365575Y-837135D01*
X2366562Y-836348D01*
X2367504Y-835506D01*
X2368396Y-834614D01*
X2369238Y-833672D01*
X2370025Y-832685D01*
X2370755Y-831655D01*
X2371427Y-830586D01*
X2372038Y-829481D01*
X2372586Y-828344D01*
X2373069Y-827177D01*
X2373486Y-825985D01*
X2373835Y-824772D01*
X2374116Y-823541D01*
X2374328Y-822297D01*
X2374469Y-821042D01*
X2374540Y-819781D01*
X1391560Y-819781D02*
X1391560Y-818519D01*
X1391489Y-817258D01*
X1391348Y-816003D01*
X1391136Y-814759D01*
X1390855Y-813528D01*
X1390506Y-812315D01*
X1390089Y-811123D01*
X1389606Y-809956D01*
X1389058Y-808819D01*
X1388447Y-807714D01*
X1387775Y-806645D01*
X1387045Y-805615D01*
X1386258Y-804628D01*
X1385416Y-803687D01*
X1384524Y-802794D01*
X1383582Y-801952D01*
X1382595Y-801165D01*
X1381565Y-800435D01*
X1380496Y-799763D01*
X1379391Y-799152D01*
X1378254Y-798604D01*
X1377087Y-798121D01*
X1375895Y-797704D01*
X1374682Y-797355D01*
X1373451Y-797074D01*
X1372207Y-796862D01*
X1370952Y-796721D01*
X1369691Y-796650D01*
X1368429Y-796650D01*
X1367168Y-796721D01*
X1365913Y-796862D01*
X1364669Y-797074D01*
X1363438Y-797355D01*
X1362225Y-797704D01*
X1361033Y-798121D01*
X1359866Y-798604D01*
X1358729Y-799152D01*
X1357624Y-799763D01*
X1356555Y-800435D01*
X1355525Y-801165D01*
X1354538Y-801952D01*
X1353597Y-802794D01*
X1352704Y-803687D01*
X1351862Y-804628D01*
X1351075Y-805615D01*
X1350345Y-806645D01*
X1349673Y-807714D01*
X1349062Y-808819D01*
X1348514Y-809956D01*
X1348031Y-811123D01*
X1347614Y-812315D01*
X1347265Y-813528D01*
X1346984Y-814759D01*
X1346772Y-816003D01*
X1346631Y-817258D01*
X1346560Y-818519D01*
X1346560Y-819781D01*
X1346631Y-821042D01*
X1346772Y-822297D01*
X1346984Y-823541D01*
X1347265Y-824772D01*
X1347614Y-825985D01*
X1348031Y-827177D01*
X1348514Y-828344D01*
X1349062Y-829481D01*
X1349673Y-830586D01*
X1350345Y-831655D01*
X1351075Y-832685D01*
X1351862Y-833672D01*
X1352704Y-834614D01*
X1353597Y-835506D01*
X1354538Y-836348D01*
X1355525Y-837135D01*
X1356555Y-837865D01*
X1357624Y-838537D01*
X1358729Y-839148D01*
X1359866Y-839696D01*
X1361033Y-840179D01*
X1362225Y-840596D01*
X1363438Y-840945D01*
X1364669Y-841226D01*
X1365913Y-841438D01*
X1367168Y-841579D01*
X1368429Y-841650D01*
X1369691Y-841650D01*
X1370952Y-841579D01*
X1372207Y-841438D01*
X1373451Y-841226D01*
X1374682Y-840945D01*
X1375895Y-840596D01*
X1377087Y-840179D01*
X1378254Y-839696D01*
X1379391Y-839148D01*
X1380496Y-838537D01*
X1381565Y-837865D01*
X1382595Y-837135D01*
X1383582Y-836348D01*
X1384524Y-835506D01*
X1385416Y-834614D01*
X1386258Y-833672D01*
X1387045Y-832685D01*
X1387775Y-831655D01*
X1388447Y-830586D01*
X1389058Y-829481D01*
X1389606Y-828344D01*
X1390089Y-827177D01*
X1390506Y-825985D01*
X1390855Y-824772D01*
X1391136Y-823541D01*
X1391348Y-822297D01*
X1391489Y-821042D01*
X1391560Y-819781D01*
X412390Y-819781D02*
X412390Y-818519D01*
X412319Y-817258D01*
X412178Y-816003D01*
X411966Y-814759D01*
X411685Y-813528D01*
X411336Y-812315D01*
X410919Y-811123D01*
X410436Y-809956D01*
X409888Y-808819D01*
X409277Y-807714D01*
X408605Y-806645D01*
X407875Y-805615D01*
X407088Y-804628D01*
X406246Y-803687D01*
X405354Y-802794D01*
X404412Y-801952D01*
X403425Y-801165D01*
X402395Y-800435D01*
X401326Y-799763D01*
X400221Y-799152D01*
X399084Y-798604D01*
X397917Y-798121D01*
X396725Y-797704D01*
X395512Y-797355D01*
X394281Y-797074D01*
X393037Y-796862D01*
X391782Y-796721D01*
X390521Y-796650D01*
X389259Y-796650D01*
X387998Y-796721D01*
X386743Y-796862D01*
X385499Y-797074D01*
X384268Y-797355D01*
X383055Y-797704D01*
X381863Y-798121D01*
X380696Y-798604D01*
X379559Y-799152D01*
X378454Y-799763D01*
X377385Y-800435D01*
X376355Y-801165D01*
X375368Y-801952D01*
X374427Y-802794D01*
X373534Y-803687D01*
X372692Y-804628D01*
X371905Y-805615D01*
X371175Y-806645D01*
X370503Y-807714D01*
X369892Y-808819D01*
X369344Y-809956D01*
X368861Y-811123D01*
X368444Y-812315D01*
X368095Y-813528D01*
X367814Y-814759D01*
X367602Y-816003D01*
X367461Y-817258D01*
X367390Y-818519D01*
X367390Y-819781D01*
X367461Y-821042D01*
X367602Y-822297D01*
X367814Y-823541D01*
X368095Y-824772D01*
X368444Y-825985D01*
X368861Y-827177D01*
X369344Y-828344D01*
X369892Y-829481D01*
X370503Y-830586D01*
X371175Y-831655D01*
X371905Y-832685D01*
X372692Y-833672D01*
X373534Y-834614D01*
X374427Y-835506D01*
X375368Y-836348D01*
X376355Y-837135D01*
X377385Y-837865D01*
X378454Y-838537D01*
X379559Y-839148D01*
X380696Y-839696D01*
X381863Y-840179D01*
X383055Y-840596D01*
X384268Y-840945D01*
X385499Y-841226D01*
X386743Y-841438D01*
X387998Y-841579D01*
X389259Y-841650D01*
X390521Y-841650D01*
X391782Y-841579D01*
X393037Y-841438D01*
X394281Y-841226D01*
X395512Y-840945D01*
X396725Y-840596D01*
X397917Y-840179D01*
X399084Y-839696D01*
X400221Y-839148D01*
X401326Y-838537D01*
X402395Y-837865D01*
X403425Y-837135D01*
X404412Y-836348D01*
X405354Y-835506D01*
X406246Y-834614D01*
X407088Y-833672D01*
X407875Y-832685D01*
X408605Y-831655D01*
X409277Y-830586D01*
X409888Y-829481D01*
X410436Y-828344D01*
X410919Y-827177D01*
X411336Y-825985D01*
X411685Y-824772D01*
X411966Y-823541D01*
X412178Y-822297D01*
X412319Y-821042D01*
X412390Y-819781D01*
X-559920Y-307340D02*
X-559983Y-307976D01*
X-560107Y-308602D01*
X-560293Y-309213D01*
X-560537Y-309803D01*
X-560838Y-310367D01*
X-561193Y-310898D01*
X-561598Y-311391D01*
X-562050Y-311843D01*
X-562543Y-312248D01*
X-563074Y-312603D01*
X-563638Y-312904D01*
X-564228Y-313148D01*
X-564839Y-313334D01*
X-565465Y-313458D01*
X-566101Y-313521D01*
X-566739Y-313521D01*
X-567375Y-313458D01*
X-568001Y-313334D01*
X-568612Y-313148D01*
X-569202Y-312904D01*
X-569766Y-312603D01*
X-570297Y-312248D01*
X-570790Y-311843D01*
X-571242Y-311391D01*
X-571647Y-310898D01*
X-572002Y-310367D01*
X-572303Y-309803D01*
X-572547Y-309213D01*
X-572733Y-308602D01*
X-572857Y-307976D01*
X-572920Y-307340D01*
X-572920Y-306702D01*
X-572857Y-306066D01*
X-572733Y-305440D01*
X-572547Y-304829D01*
X-572303Y-304239D01*
X-572002Y-303675D01*
X-571647Y-303144D01*
X-571242Y-302651D01*
X-570790Y-302199D01*
X-570297Y-301794D01*
X-569766Y-301439D01*
X-569202Y-301138D01*
X-568612Y-300894D01*
X-568001Y-300708D01*
X-567375Y-300584D01*
X-566739Y-300521D01*
X-566101Y-300521D01*
X-565465Y-300584D01*
X-564839Y-300708D01*
X-564228Y-300894D01*
X-563638Y-301138D01*
X-563074Y-301439D01*
X-562543Y-301794D01*
X-562050Y-302199D01*
X-561598Y-302651D01*
X-561193Y-303144D01*
X-560838Y-303675D01*
X-560537Y-304239D01*
X-560293Y-304829D01*
X-560107Y-305440D01*
X-559983Y-306066D01*
X-559920Y-306702D01*
X-559920Y-307340D01*
X-560936Y-524764D02*
X-560999Y-525400D01*
X-561123Y-526026D01*
X-561309Y-526637D01*
X-561553Y-527227D01*
X-561854Y-527791D01*
X-562209Y-528322D01*
X-562614Y-528815D01*
X-563066Y-529267D01*
X-563559Y-529672D01*
X-564090Y-530027D01*
X-564654Y-530328D01*
X-565244Y-530572D01*
X-565855Y-530758D01*
X-566481Y-530882D01*
X-567117Y-530945D01*
X-567755Y-530945D01*
X-568391Y-530882D01*
X-569017Y-530758D01*
X-569628Y-530572D01*
X-570218Y-530328D01*
X-570782Y-530027D01*
X-571313Y-529672D01*
X-571806Y-529267D01*
X-572258Y-528815D01*
X-572663Y-528322D01*
X-573018Y-527791D01*
X-573319Y-527227D01*
X-573563Y-526637D01*
X-573749Y-526026D01*
X-573873Y-525400D01*
X-573936Y-524764D01*
X-573936Y-524126D01*
X-573873Y-523490D01*
X-573749Y-522864D01*
X-573563Y-522253D01*
X-573319Y-521663D01*
X-573018Y-521099D01*
X-572663Y-520568D01*
X-572258Y-520075D01*
X-571806Y-519623D01*
X-571313Y-519218D01*
X-570782Y-518863D01*
X-570218Y-518562D01*
X-569628Y-518318D01*
X-569017Y-518132D01*
X-568391Y-518008D01*
X-567755Y-517945D01*
X-567117Y-517945D01*
X-566481Y-518008D01*
X-565855Y-518132D01*
X-565244Y-518318D01*
X-564654Y-518562D01*
X-564090Y-518863D01*
X-563559Y-519218D01*
X-563066Y-519623D01*
X-562614Y-520075D01*
X-562209Y-520568D01*
X-561854Y-521099D01*
X-561553Y-521663D01*
X-561309Y-522253D01*
X-561123Y-522864D01*
X-560999Y-523490D01*
X-560936Y-524126D01*
X-560936Y-524764D01*
M02*
