G04 EAGLE Gerber RS-274X export*
G75*
%MOMM*%
%FSLAX34Y34*%
%LPD*%
%INSilkscreen Bottom*%
%IPPOS*%
%AMOC8*
5,1,8,0,0,1.08239X$1,22.5*%
G01*
%ADD10C,0.076200*%


D10*
X3434329Y-610743D02*
X3431874Y-603377D01*
X3429418Y-610743D01*
X3430032Y-608902D02*
X3433715Y-608902D01*
X3426526Y-607878D02*
X3421616Y-607878D01*
X3416700Y-610743D02*
X3415063Y-610743D01*
X3416700Y-610743D02*
X3416778Y-610741D01*
X3416856Y-610736D01*
X3416933Y-610726D01*
X3417010Y-610713D01*
X3417086Y-610697D01*
X3417161Y-610677D01*
X3417235Y-610653D01*
X3417308Y-610626D01*
X3417380Y-610595D01*
X3417450Y-610561D01*
X3417519Y-610524D01*
X3417585Y-610483D01*
X3417650Y-610439D01*
X3417712Y-610393D01*
X3417772Y-610343D01*
X3417830Y-610291D01*
X3417885Y-610236D01*
X3417937Y-610178D01*
X3417987Y-610118D01*
X3418033Y-610056D01*
X3418077Y-609991D01*
X3418118Y-609925D01*
X3418155Y-609856D01*
X3418189Y-609786D01*
X3418220Y-609714D01*
X3418247Y-609641D01*
X3418271Y-609567D01*
X3418291Y-609492D01*
X3418307Y-609416D01*
X3418320Y-609339D01*
X3418330Y-609262D01*
X3418335Y-609184D01*
X3418337Y-609106D01*
X3418337Y-605014D01*
X3418335Y-604934D01*
X3418329Y-604854D01*
X3418319Y-604774D01*
X3418306Y-604695D01*
X3418288Y-604616D01*
X3418267Y-604539D01*
X3418241Y-604463D01*
X3418212Y-604388D01*
X3418180Y-604314D01*
X3418144Y-604242D01*
X3418104Y-604172D01*
X3418061Y-604105D01*
X3418015Y-604039D01*
X3417965Y-603976D01*
X3417913Y-603915D01*
X3417858Y-603856D01*
X3417799Y-603801D01*
X3417739Y-603749D01*
X3417675Y-603699D01*
X3417610Y-603653D01*
X3417542Y-603610D01*
X3417472Y-603570D01*
X3417400Y-603534D01*
X3417326Y-603502D01*
X3417252Y-603473D01*
X3417175Y-603448D01*
X3417098Y-603426D01*
X3417019Y-603408D01*
X3416940Y-603395D01*
X3416861Y-603385D01*
X3416780Y-603379D01*
X3416700Y-603377D01*
X3415063Y-603377D01*
X3412218Y-605423D02*
X3412218Y-608697D01*
X3412218Y-605423D02*
X3412216Y-605334D01*
X3412210Y-605245D01*
X3412200Y-605156D01*
X3412187Y-605068D01*
X3412170Y-604980D01*
X3412148Y-604893D01*
X3412123Y-604808D01*
X3412095Y-604723D01*
X3412062Y-604640D01*
X3412026Y-604558D01*
X3411987Y-604478D01*
X3411944Y-604400D01*
X3411898Y-604324D01*
X3411848Y-604249D01*
X3411795Y-604177D01*
X3411739Y-604108D01*
X3411680Y-604041D01*
X3411619Y-603976D01*
X3411554Y-603915D01*
X3411487Y-603856D01*
X3411418Y-603800D01*
X3411346Y-603747D01*
X3411271Y-603697D01*
X3411195Y-603651D01*
X3411117Y-603608D01*
X3411037Y-603569D01*
X3410955Y-603533D01*
X3410872Y-603500D01*
X3410787Y-603472D01*
X3410702Y-603447D01*
X3410615Y-603425D01*
X3410527Y-603408D01*
X3410439Y-603395D01*
X3410350Y-603385D01*
X3410261Y-603379D01*
X3410172Y-603377D01*
X3410083Y-603379D01*
X3409994Y-603385D01*
X3409905Y-603395D01*
X3409817Y-603408D01*
X3409729Y-603425D01*
X3409642Y-603447D01*
X3409557Y-603472D01*
X3409472Y-603500D01*
X3409389Y-603533D01*
X3409307Y-603569D01*
X3409227Y-603608D01*
X3409149Y-603651D01*
X3409073Y-603697D01*
X3408998Y-603747D01*
X3408926Y-603800D01*
X3408857Y-603856D01*
X3408790Y-603915D01*
X3408725Y-603976D01*
X3408664Y-604041D01*
X3408605Y-604108D01*
X3408549Y-604177D01*
X3408496Y-604249D01*
X3408446Y-604324D01*
X3408400Y-604400D01*
X3408357Y-604478D01*
X3408318Y-604558D01*
X3408282Y-604640D01*
X3408249Y-604723D01*
X3408221Y-604808D01*
X3408196Y-604893D01*
X3408174Y-604980D01*
X3408157Y-605068D01*
X3408144Y-605156D01*
X3408134Y-605245D01*
X3408128Y-605334D01*
X3408126Y-605423D01*
X3408126Y-608697D01*
X3408128Y-608786D01*
X3408134Y-608875D01*
X3408144Y-608964D01*
X3408157Y-609052D01*
X3408174Y-609140D01*
X3408196Y-609227D01*
X3408221Y-609312D01*
X3408249Y-609397D01*
X3408282Y-609480D01*
X3408318Y-609562D01*
X3408357Y-609642D01*
X3408400Y-609720D01*
X3408446Y-609796D01*
X3408496Y-609871D01*
X3408549Y-609943D01*
X3408605Y-610012D01*
X3408664Y-610079D01*
X3408725Y-610144D01*
X3408790Y-610205D01*
X3408857Y-610264D01*
X3408926Y-610320D01*
X3408998Y-610373D01*
X3409073Y-610423D01*
X3409149Y-610469D01*
X3409227Y-610512D01*
X3409307Y-610551D01*
X3409389Y-610587D01*
X3409472Y-610620D01*
X3409557Y-610648D01*
X3409642Y-610673D01*
X3409729Y-610695D01*
X3409817Y-610712D01*
X3409905Y-610725D01*
X3409994Y-610735D01*
X3410083Y-610741D01*
X3410172Y-610743D01*
X3410261Y-610741D01*
X3410350Y-610735D01*
X3410439Y-610725D01*
X3410527Y-610712D01*
X3410615Y-610695D01*
X3410702Y-610673D01*
X3410787Y-610648D01*
X3410872Y-610620D01*
X3410955Y-610587D01*
X3411037Y-610551D01*
X3411117Y-610512D01*
X3411195Y-610469D01*
X3411271Y-610423D01*
X3411346Y-610373D01*
X3411418Y-610320D01*
X3411487Y-610264D01*
X3411554Y-610205D01*
X3411619Y-610144D01*
X3411680Y-610079D01*
X3411739Y-610012D01*
X3411795Y-609943D01*
X3411848Y-609871D01*
X3411898Y-609796D01*
X3411944Y-609720D01*
X3411987Y-609642D01*
X3412026Y-609562D01*
X3412062Y-609480D01*
X3412095Y-609397D01*
X3412123Y-609312D01*
X3412148Y-609227D01*
X3412170Y-609140D01*
X3412187Y-609052D01*
X3412200Y-608964D01*
X3412210Y-608875D01*
X3412216Y-608786D01*
X3412218Y-608697D01*
X3404659Y-610743D02*
X3404659Y-603377D01*
X3400567Y-610743D01*
X3400567Y-603377D01*
X3396856Y-603377D02*
X3396856Y-610743D01*
X3392764Y-610743D02*
X3396856Y-603377D01*
X3392764Y-603377D02*
X3392764Y-610743D01*
X3389038Y-610743D02*
X3385764Y-610743D01*
X3389038Y-610743D02*
X3389038Y-603377D01*
X3385764Y-603377D01*
X3386582Y-606651D02*
X3389038Y-606651D01*
X3381344Y-610743D02*
X3379707Y-610743D01*
X3381344Y-610743D02*
X3381422Y-610741D01*
X3381500Y-610736D01*
X3381577Y-610726D01*
X3381654Y-610713D01*
X3381730Y-610697D01*
X3381805Y-610677D01*
X3381879Y-610653D01*
X3381952Y-610626D01*
X3382024Y-610595D01*
X3382094Y-610561D01*
X3382163Y-610524D01*
X3382229Y-610483D01*
X3382294Y-610439D01*
X3382356Y-610393D01*
X3382416Y-610343D01*
X3382474Y-610291D01*
X3382529Y-610236D01*
X3382581Y-610178D01*
X3382631Y-610118D01*
X3382677Y-610056D01*
X3382721Y-609991D01*
X3382762Y-609925D01*
X3382799Y-609856D01*
X3382833Y-609786D01*
X3382864Y-609714D01*
X3382891Y-609641D01*
X3382915Y-609567D01*
X3382935Y-609492D01*
X3382951Y-609416D01*
X3382964Y-609339D01*
X3382974Y-609262D01*
X3382979Y-609184D01*
X3382981Y-609106D01*
X3382981Y-605014D01*
X3382979Y-604934D01*
X3382973Y-604854D01*
X3382963Y-604774D01*
X3382950Y-604695D01*
X3382932Y-604616D01*
X3382911Y-604539D01*
X3382885Y-604463D01*
X3382856Y-604388D01*
X3382824Y-604314D01*
X3382788Y-604242D01*
X3382748Y-604172D01*
X3382705Y-604105D01*
X3382659Y-604039D01*
X3382609Y-603976D01*
X3382557Y-603915D01*
X3382502Y-603856D01*
X3382443Y-603801D01*
X3382383Y-603749D01*
X3382319Y-603699D01*
X3382254Y-603653D01*
X3382186Y-603610D01*
X3382116Y-603570D01*
X3382044Y-603534D01*
X3381970Y-603502D01*
X3381896Y-603473D01*
X3381819Y-603448D01*
X3381742Y-603426D01*
X3381663Y-603408D01*
X3381584Y-603395D01*
X3381505Y-603385D01*
X3381424Y-603379D01*
X3381344Y-603377D01*
X3379707Y-603377D01*
X3375303Y-603377D02*
X3375303Y-610743D01*
X3377349Y-603377D02*
X3373257Y-603377D01*
X3370522Y-605423D02*
X3370522Y-608697D01*
X3370522Y-605423D02*
X3370520Y-605334D01*
X3370514Y-605245D01*
X3370504Y-605156D01*
X3370491Y-605068D01*
X3370474Y-604980D01*
X3370452Y-604893D01*
X3370427Y-604808D01*
X3370399Y-604723D01*
X3370366Y-604640D01*
X3370330Y-604558D01*
X3370291Y-604478D01*
X3370248Y-604400D01*
X3370202Y-604324D01*
X3370152Y-604249D01*
X3370099Y-604177D01*
X3370043Y-604108D01*
X3369984Y-604041D01*
X3369923Y-603976D01*
X3369858Y-603915D01*
X3369791Y-603856D01*
X3369722Y-603800D01*
X3369650Y-603747D01*
X3369575Y-603697D01*
X3369499Y-603651D01*
X3369421Y-603608D01*
X3369341Y-603569D01*
X3369259Y-603533D01*
X3369176Y-603500D01*
X3369091Y-603472D01*
X3369006Y-603447D01*
X3368919Y-603425D01*
X3368831Y-603408D01*
X3368743Y-603395D01*
X3368654Y-603385D01*
X3368565Y-603379D01*
X3368476Y-603377D01*
X3368387Y-603379D01*
X3368298Y-603385D01*
X3368209Y-603395D01*
X3368121Y-603408D01*
X3368033Y-603425D01*
X3367946Y-603447D01*
X3367861Y-603472D01*
X3367776Y-603500D01*
X3367693Y-603533D01*
X3367611Y-603569D01*
X3367531Y-603608D01*
X3367453Y-603651D01*
X3367377Y-603697D01*
X3367302Y-603747D01*
X3367230Y-603800D01*
X3367161Y-603856D01*
X3367094Y-603915D01*
X3367029Y-603976D01*
X3366968Y-604041D01*
X3366909Y-604108D01*
X3366853Y-604177D01*
X3366800Y-604249D01*
X3366750Y-604324D01*
X3366704Y-604400D01*
X3366661Y-604478D01*
X3366622Y-604558D01*
X3366586Y-604640D01*
X3366553Y-604723D01*
X3366525Y-604808D01*
X3366500Y-604893D01*
X3366478Y-604980D01*
X3366461Y-605068D01*
X3366448Y-605156D01*
X3366438Y-605245D01*
X3366432Y-605334D01*
X3366430Y-605423D01*
X3366429Y-605423D02*
X3366429Y-608697D01*
X3366430Y-608697D02*
X3366432Y-608786D01*
X3366438Y-608875D01*
X3366448Y-608964D01*
X3366461Y-609052D01*
X3366478Y-609140D01*
X3366500Y-609227D01*
X3366525Y-609312D01*
X3366553Y-609397D01*
X3366586Y-609480D01*
X3366622Y-609562D01*
X3366661Y-609642D01*
X3366704Y-609720D01*
X3366750Y-609796D01*
X3366800Y-609871D01*
X3366853Y-609943D01*
X3366909Y-610012D01*
X3366968Y-610079D01*
X3367029Y-610144D01*
X3367094Y-610205D01*
X3367161Y-610264D01*
X3367230Y-610320D01*
X3367302Y-610373D01*
X3367377Y-610423D01*
X3367453Y-610469D01*
X3367531Y-610512D01*
X3367611Y-610551D01*
X3367693Y-610587D01*
X3367776Y-610620D01*
X3367861Y-610648D01*
X3367946Y-610673D01*
X3368033Y-610695D01*
X3368121Y-610712D01*
X3368209Y-610725D01*
X3368298Y-610735D01*
X3368387Y-610741D01*
X3368476Y-610743D01*
X3368565Y-610741D01*
X3368654Y-610735D01*
X3368743Y-610725D01*
X3368831Y-610712D01*
X3368919Y-610695D01*
X3369006Y-610673D01*
X3369091Y-610648D01*
X3369176Y-610620D01*
X3369259Y-610587D01*
X3369341Y-610551D01*
X3369421Y-610512D01*
X3369499Y-610469D01*
X3369575Y-610423D01*
X3369650Y-610373D01*
X3369722Y-610320D01*
X3369791Y-610264D01*
X3369858Y-610205D01*
X3369923Y-610144D01*
X3369984Y-610079D01*
X3370043Y-610012D01*
X3370099Y-609943D01*
X3370152Y-609871D01*
X3370202Y-609796D01*
X3370248Y-609720D01*
X3370291Y-609642D01*
X3370330Y-609562D01*
X3370366Y-609480D01*
X3370399Y-609397D01*
X3370427Y-609312D01*
X3370452Y-609227D01*
X3370474Y-609140D01*
X3370491Y-609052D01*
X3370504Y-608964D01*
X3370514Y-608875D01*
X3370520Y-608786D01*
X3370522Y-608697D01*
X3362911Y-610743D02*
X3362911Y-603377D01*
X3360865Y-603377D01*
X3360776Y-603379D01*
X3360687Y-603385D01*
X3360598Y-603395D01*
X3360510Y-603408D01*
X3360422Y-603425D01*
X3360335Y-603447D01*
X3360250Y-603472D01*
X3360165Y-603500D01*
X3360082Y-603533D01*
X3360000Y-603569D01*
X3359920Y-603608D01*
X3359842Y-603651D01*
X3359766Y-603697D01*
X3359691Y-603747D01*
X3359619Y-603800D01*
X3359550Y-603856D01*
X3359483Y-603915D01*
X3359418Y-603976D01*
X3359357Y-604041D01*
X3359298Y-604108D01*
X3359242Y-604177D01*
X3359189Y-604249D01*
X3359139Y-604324D01*
X3359093Y-604400D01*
X3359050Y-604478D01*
X3359011Y-604558D01*
X3358975Y-604640D01*
X3358942Y-604723D01*
X3358914Y-604808D01*
X3358889Y-604893D01*
X3358867Y-604980D01*
X3358850Y-605068D01*
X3358837Y-605156D01*
X3358827Y-605245D01*
X3358821Y-605334D01*
X3358819Y-605423D01*
X3358821Y-605512D01*
X3358827Y-605601D01*
X3358837Y-605690D01*
X3358850Y-605778D01*
X3358867Y-605866D01*
X3358889Y-605953D01*
X3358914Y-606038D01*
X3358942Y-606123D01*
X3358975Y-606206D01*
X3359011Y-606288D01*
X3359050Y-606368D01*
X3359093Y-606446D01*
X3359139Y-606522D01*
X3359189Y-606597D01*
X3359242Y-606669D01*
X3359298Y-606738D01*
X3359357Y-606805D01*
X3359418Y-606870D01*
X3359483Y-606931D01*
X3359550Y-606990D01*
X3359619Y-607046D01*
X3359691Y-607099D01*
X3359766Y-607149D01*
X3359842Y-607195D01*
X3359920Y-607238D01*
X3360000Y-607277D01*
X3360082Y-607313D01*
X3360165Y-607346D01*
X3360250Y-607374D01*
X3360335Y-607399D01*
X3360422Y-607421D01*
X3360510Y-607438D01*
X3360598Y-607451D01*
X3360687Y-607461D01*
X3360776Y-607467D01*
X3360865Y-607469D01*
X3362911Y-607469D01*
X3360456Y-607469D02*
X3358819Y-610743D01*
X3355569Y-607878D02*
X3350658Y-607878D01*
X3347357Y-605014D02*
X3345311Y-603377D01*
X3345311Y-610743D01*
X3347357Y-610743D02*
X3343265Y-610743D01*
X3340042Y-609106D02*
X3338405Y-603377D01*
X3340042Y-609106D02*
X3335949Y-609106D01*
X3337177Y-607469D02*
X3337177Y-610743D01*
X3332648Y-607878D02*
X3327737Y-607878D01*
X3324176Y-610743D02*
X3324176Y-603377D01*
X3324176Y-610743D02*
X3320903Y-610743D01*
X3318096Y-608697D02*
X3318096Y-605423D01*
X3318094Y-605334D01*
X3318088Y-605245D01*
X3318078Y-605156D01*
X3318065Y-605068D01*
X3318048Y-604980D01*
X3318026Y-604893D01*
X3318001Y-604808D01*
X3317973Y-604723D01*
X3317940Y-604640D01*
X3317904Y-604558D01*
X3317865Y-604478D01*
X3317822Y-604400D01*
X3317776Y-604324D01*
X3317726Y-604249D01*
X3317673Y-604177D01*
X3317617Y-604108D01*
X3317558Y-604041D01*
X3317497Y-603976D01*
X3317432Y-603915D01*
X3317365Y-603856D01*
X3317296Y-603800D01*
X3317224Y-603747D01*
X3317149Y-603697D01*
X3317073Y-603651D01*
X3316995Y-603608D01*
X3316915Y-603569D01*
X3316833Y-603533D01*
X3316750Y-603500D01*
X3316665Y-603472D01*
X3316580Y-603447D01*
X3316493Y-603425D01*
X3316405Y-603408D01*
X3316317Y-603395D01*
X3316228Y-603385D01*
X3316139Y-603379D01*
X3316050Y-603377D01*
X3315961Y-603379D01*
X3315872Y-603385D01*
X3315783Y-603395D01*
X3315695Y-603408D01*
X3315607Y-603425D01*
X3315520Y-603447D01*
X3315435Y-603472D01*
X3315350Y-603500D01*
X3315267Y-603533D01*
X3315185Y-603569D01*
X3315105Y-603608D01*
X3315027Y-603651D01*
X3314951Y-603697D01*
X3314876Y-603747D01*
X3314804Y-603800D01*
X3314735Y-603856D01*
X3314668Y-603915D01*
X3314603Y-603976D01*
X3314542Y-604041D01*
X3314483Y-604108D01*
X3314427Y-604177D01*
X3314374Y-604249D01*
X3314324Y-604324D01*
X3314278Y-604400D01*
X3314235Y-604478D01*
X3314196Y-604558D01*
X3314160Y-604640D01*
X3314127Y-604723D01*
X3314099Y-604808D01*
X3314074Y-604893D01*
X3314052Y-604980D01*
X3314035Y-605068D01*
X3314022Y-605156D01*
X3314012Y-605245D01*
X3314006Y-605334D01*
X3314004Y-605423D01*
X3314004Y-608697D01*
X3314006Y-608786D01*
X3314012Y-608875D01*
X3314022Y-608964D01*
X3314035Y-609052D01*
X3314052Y-609140D01*
X3314074Y-609227D01*
X3314099Y-609312D01*
X3314127Y-609397D01*
X3314160Y-609480D01*
X3314196Y-609562D01*
X3314235Y-609642D01*
X3314278Y-609720D01*
X3314324Y-609796D01*
X3314374Y-609871D01*
X3314427Y-609943D01*
X3314483Y-610012D01*
X3314542Y-610079D01*
X3314603Y-610144D01*
X3314668Y-610205D01*
X3314735Y-610264D01*
X3314804Y-610320D01*
X3314876Y-610373D01*
X3314951Y-610423D01*
X3315027Y-610469D01*
X3315105Y-610512D01*
X3315185Y-610551D01*
X3315267Y-610587D01*
X3315350Y-610620D01*
X3315435Y-610648D01*
X3315520Y-610673D01*
X3315607Y-610695D01*
X3315695Y-610712D01*
X3315783Y-610725D01*
X3315872Y-610735D01*
X3315961Y-610741D01*
X3316050Y-610743D01*
X3316139Y-610741D01*
X3316228Y-610735D01*
X3316317Y-610725D01*
X3316405Y-610712D01*
X3316493Y-610695D01*
X3316580Y-610673D01*
X3316665Y-610648D01*
X3316750Y-610620D01*
X3316833Y-610587D01*
X3316915Y-610551D01*
X3316995Y-610512D01*
X3317073Y-610469D01*
X3317149Y-610423D01*
X3317224Y-610373D01*
X3317296Y-610320D01*
X3317365Y-610264D01*
X3317432Y-610205D01*
X3317497Y-610144D01*
X3317558Y-610079D01*
X3317617Y-610012D01*
X3317673Y-609943D01*
X3317726Y-609871D01*
X3317776Y-609796D01*
X3317822Y-609720D01*
X3317865Y-609642D01*
X3317904Y-609562D01*
X3317940Y-609480D01*
X3317973Y-609397D01*
X3318001Y-609312D01*
X3318026Y-609227D01*
X3318048Y-609140D01*
X3318065Y-609052D01*
X3318078Y-608964D01*
X3318088Y-608875D01*
X3318094Y-608786D01*
X3318096Y-608697D01*
X3311033Y-603377D02*
X3309396Y-610743D01*
X3307759Y-605832D01*
X3306123Y-610743D01*
X3304486Y-603377D01*
X3301255Y-610743D02*
X3297982Y-610743D01*
X3301255Y-610743D02*
X3301255Y-603377D01*
X3297982Y-603377D01*
X3298800Y-606651D02*
X3301255Y-606651D01*
X3294880Y-603377D02*
X3294880Y-610743D01*
X3294880Y-603377D02*
X3292834Y-603377D01*
X3292745Y-603379D01*
X3292656Y-603385D01*
X3292567Y-603395D01*
X3292479Y-603408D01*
X3292391Y-603425D01*
X3292304Y-603447D01*
X3292219Y-603472D01*
X3292134Y-603500D01*
X3292051Y-603533D01*
X3291969Y-603569D01*
X3291889Y-603608D01*
X3291811Y-603651D01*
X3291735Y-603697D01*
X3291660Y-603747D01*
X3291588Y-603800D01*
X3291519Y-603856D01*
X3291452Y-603915D01*
X3291387Y-603976D01*
X3291326Y-604041D01*
X3291267Y-604108D01*
X3291211Y-604177D01*
X3291158Y-604249D01*
X3291108Y-604324D01*
X3291062Y-604400D01*
X3291019Y-604478D01*
X3290980Y-604558D01*
X3290944Y-604640D01*
X3290911Y-604723D01*
X3290883Y-604808D01*
X3290858Y-604893D01*
X3290836Y-604980D01*
X3290819Y-605068D01*
X3290806Y-605156D01*
X3290796Y-605245D01*
X3290790Y-605334D01*
X3290788Y-605423D01*
X3290790Y-605512D01*
X3290796Y-605601D01*
X3290806Y-605690D01*
X3290819Y-605778D01*
X3290836Y-605866D01*
X3290858Y-605953D01*
X3290883Y-606038D01*
X3290911Y-606123D01*
X3290944Y-606206D01*
X3290980Y-606288D01*
X3291019Y-606368D01*
X3291062Y-606446D01*
X3291108Y-606522D01*
X3291158Y-606597D01*
X3291211Y-606669D01*
X3291267Y-606738D01*
X3291326Y-606805D01*
X3291387Y-606870D01*
X3291452Y-606931D01*
X3291519Y-606990D01*
X3291588Y-607046D01*
X3291660Y-607099D01*
X3291735Y-607149D01*
X3291811Y-607195D01*
X3291889Y-607238D01*
X3291969Y-607277D01*
X3292051Y-607313D01*
X3292134Y-607346D01*
X3292219Y-607374D01*
X3292304Y-607399D01*
X3292391Y-607421D01*
X3292479Y-607438D01*
X3292567Y-607451D01*
X3292656Y-607461D01*
X3292745Y-607467D01*
X3292834Y-607469D01*
X3294880Y-607469D01*
X3292425Y-607469D02*
X3290788Y-610743D01*
X3287538Y-607878D02*
X3282627Y-607878D01*
X3279326Y-608697D02*
X3279326Y-605423D01*
X3279325Y-605423D02*
X3279323Y-605334D01*
X3279317Y-605245D01*
X3279307Y-605156D01*
X3279294Y-605068D01*
X3279277Y-604980D01*
X3279255Y-604893D01*
X3279230Y-604808D01*
X3279202Y-604723D01*
X3279169Y-604640D01*
X3279133Y-604558D01*
X3279094Y-604478D01*
X3279051Y-604400D01*
X3279005Y-604324D01*
X3278955Y-604249D01*
X3278902Y-604177D01*
X3278846Y-604108D01*
X3278787Y-604041D01*
X3278726Y-603976D01*
X3278661Y-603915D01*
X3278594Y-603856D01*
X3278525Y-603800D01*
X3278453Y-603747D01*
X3278378Y-603697D01*
X3278302Y-603651D01*
X3278224Y-603608D01*
X3278144Y-603569D01*
X3278062Y-603533D01*
X3277979Y-603500D01*
X3277894Y-603472D01*
X3277809Y-603447D01*
X3277722Y-603425D01*
X3277634Y-603408D01*
X3277546Y-603395D01*
X3277457Y-603385D01*
X3277368Y-603379D01*
X3277279Y-603377D01*
X3277190Y-603379D01*
X3277101Y-603385D01*
X3277012Y-603395D01*
X3276924Y-603408D01*
X3276836Y-603425D01*
X3276749Y-603447D01*
X3276664Y-603472D01*
X3276579Y-603500D01*
X3276496Y-603533D01*
X3276414Y-603569D01*
X3276334Y-603608D01*
X3276256Y-603651D01*
X3276180Y-603697D01*
X3276105Y-603747D01*
X3276033Y-603800D01*
X3275964Y-603856D01*
X3275897Y-603915D01*
X3275832Y-603976D01*
X3275771Y-604041D01*
X3275712Y-604108D01*
X3275656Y-604177D01*
X3275603Y-604249D01*
X3275553Y-604324D01*
X3275507Y-604400D01*
X3275464Y-604478D01*
X3275425Y-604558D01*
X3275389Y-604640D01*
X3275356Y-604723D01*
X3275328Y-604808D01*
X3275303Y-604893D01*
X3275281Y-604980D01*
X3275264Y-605068D01*
X3275251Y-605156D01*
X3275241Y-605245D01*
X3275235Y-605334D01*
X3275233Y-605423D01*
X3275233Y-608697D01*
X3275235Y-608786D01*
X3275241Y-608875D01*
X3275251Y-608964D01*
X3275264Y-609052D01*
X3275281Y-609140D01*
X3275303Y-609227D01*
X3275328Y-609312D01*
X3275356Y-609397D01*
X3275389Y-609480D01*
X3275425Y-609562D01*
X3275464Y-609642D01*
X3275507Y-609720D01*
X3275553Y-609796D01*
X3275603Y-609871D01*
X3275656Y-609943D01*
X3275712Y-610012D01*
X3275771Y-610079D01*
X3275832Y-610144D01*
X3275897Y-610205D01*
X3275964Y-610264D01*
X3276033Y-610320D01*
X3276105Y-610373D01*
X3276180Y-610423D01*
X3276256Y-610469D01*
X3276334Y-610512D01*
X3276414Y-610551D01*
X3276496Y-610587D01*
X3276579Y-610620D01*
X3276664Y-610648D01*
X3276749Y-610673D01*
X3276836Y-610695D01*
X3276924Y-610712D01*
X3277012Y-610725D01*
X3277101Y-610735D01*
X3277190Y-610741D01*
X3277279Y-610743D01*
X3277368Y-610741D01*
X3277457Y-610735D01*
X3277546Y-610725D01*
X3277634Y-610712D01*
X3277722Y-610695D01*
X3277809Y-610673D01*
X3277894Y-610648D01*
X3277979Y-610620D01*
X3278062Y-610587D01*
X3278144Y-610551D01*
X3278224Y-610512D01*
X3278302Y-610469D01*
X3278378Y-610423D01*
X3278453Y-610373D01*
X3278525Y-610320D01*
X3278594Y-610264D01*
X3278661Y-610205D01*
X3278726Y-610144D01*
X3278787Y-610079D01*
X3278846Y-610012D01*
X3278902Y-609943D01*
X3278955Y-609871D01*
X3279005Y-609796D01*
X3279051Y-609720D01*
X3279094Y-609642D01*
X3279133Y-609562D01*
X3279169Y-609480D01*
X3279202Y-609397D01*
X3279230Y-609312D01*
X3279255Y-609227D01*
X3279277Y-609140D01*
X3279294Y-609052D01*
X3279307Y-608964D01*
X3279317Y-608875D01*
X3279323Y-608786D01*
X3279325Y-608697D01*
X3271767Y-608697D02*
X3271767Y-603377D01*
X3271766Y-608697D02*
X3271764Y-608786D01*
X3271758Y-608875D01*
X3271748Y-608964D01*
X3271735Y-609052D01*
X3271718Y-609140D01*
X3271696Y-609227D01*
X3271671Y-609312D01*
X3271643Y-609397D01*
X3271610Y-609480D01*
X3271574Y-609562D01*
X3271535Y-609642D01*
X3271492Y-609720D01*
X3271446Y-609796D01*
X3271396Y-609871D01*
X3271343Y-609943D01*
X3271287Y-610012D01*
X3271228Y-610079D01*
X3271167Y-610144D01*
X3271102Y-610205D01*
X3271035Y-610264D01*
X3270966Y-610320D01*
X3270894Y-610373D01*
X3270819Y-610423D01*
X3270743Y-610469D01*
X3270665Y-610512D01*
X3270585Y-610551D01*
X3270503Y-610587D01*
X3270420Y-610620D01*
X3270335Y-610648D01*
X3270250Y-610673D01*
X3270163Y-610695D01*
X3270075Y-610712D01*
X3269987Y-610725D01*
X3269898Y-610735D01*
X3269809Y-610741D01*
X3269720Y-610743D01*
X3269631Y-610741D01*
X3269542Y-610735D01*
X3269453Y-610725D01*
X3269365Y-610712D01*
X3269277Y-610695D01*
X3269190Y-610673D01*
X3269105Y-610648D01*
X3269020Y-610620D01*
X3268937Y-610587D01*
X3268855Y-610551D01*
X3268775Y-610512D01*
X3268697Y-610469D01*
X3268621Y-610423D01*
X3268546Y-610373D01*
X3268474Y-610320D01*
X3268405Y-610264D01*
X3268338Y-610205D01*
X3268273Y-610144D01*
X3268212Y-610079D01*
X3268153Y-610012D01*
X3268097Y-609943D01*
X3268044Y-609871D01*
X3267994Y-609796D01*
X3267948Y-609720D01*
X3267905Y-609642D01*
X3267866Y-609562D01*
X3267830Y-609480D01*
X3267797Y-609397D01*
X3267769Y-609312D01*
X3267744Y-609227D01*
X3267722Y-609140D01*
X3267705Y-609052D01*
X3267692Y-608964D01*
X3267682Y-608875D01*
X3267676Y-608786D01*
X3267674Y-608697D01*
X3267674Y-603377D01*
X3262649Y-603377D02*
X3262649Y-610743D01*
X3264695Y-603377D02*
X3260603Y-603377D01*
X-493517Y-596392D02*
X-495972Y-589026D01*
X-498427Y-596392D01*
X-497814Y-594551D02*
X-494131Y-594551D01*
X-501320Y-593527D02*
X-506230Y-593527D01*
X-511146Y-596392D02*
X-512782Y-596392D01*
X-511146Y-596392D02*
X-511068Y-596390D01*
X-510990Y-596385D01*
X-510913Y-596375D01*
X-510836Y-596362D01*
X-510760Y-596346D01*
X-510685Y-596326D01*
X-510611Y-596302D01*
X-510538Y-596275D01*
X-510466Y-596244D01*
X-510396Y-596210D01*
X-510328Y-596173D01*
X-510261Y-596132D01*
X-510196Y-596088D01*
X-510134Y-596042D01*
X-510074Y-595992D01*
X-510016Y-595940D01*
X-509961Y-595885D01*
X-509909Y-595827D01*
X-509859Y-595767D01*
X-509813Y-595705D01*
X-509769Y-595640D01*
X-509728Y-595574D01*
X-509691Y-595505D01*
X-509657Y-595435D01*
X-509626Y-595363D01*
X-509599Y-595290D01*
X-509575Y-595216D01*
X-509555Y-595141D01*
X-509539Y-595065D01*
X-509526Y-594988D01*
X-509516Y-594911D01*
X-509511Y-594833D01*
X-509509Y-594755D01*
X-509509Y-590663D01*
X-509511Y-590583D01*
X-509517Y-590503D01*
X-509527Y-590423D01*
X-509540Y-590344D01*
X-509558Y-590265D01*
X-509579Y-590188D01*
X-509605Y-590112D01*
X-509634Y-590037D01*
X-509666Y-589963D01*
X-509702Y-589891D01*
X-509742Y-589821D01*
X-509785Y-589754D01*
X-509831Y-589688D01*
X-509881Y-589625D01*
X-509933Y-589564D01*
X-509988Y-589505D01*
X-510047Y-589450D01*
X-510107Y-589398D01*
X-510171Y-589348D01*
X-510236Y-589302D01*
X-510304Y-589259D01*
X-510374Y-589219D01*
X-510446Y-589183D01*
X-510520Y-589151D01*
X-510594Y-589122D01*
X-510671Y-589097D01*
X-510748Y-589075D01*
X-510827Y-589057D01*
X-510906Y-589044D01*
X-510985Y-589034D01*
X-511066Y-589028D01*
X-511146Y-589026D01*
X-512782Y-589026D01*
X-515628Y-591072D02*
X-515628Y-594346D01*
X-515628Y-591072D02*
X-515630Y-590983D01*
X-515636Y-590894D01*
X-515646Y-590805D01*
X-515659Y-590717D01*
X-515676Y-590629D01*
X-515698Y-590542D01*
X-515723Y-590457D01*
X-515751Y-590372D01*
X-515784Y-590289D01*
X-515820Y-590207D01*
X-515859Y-590127D01*
X-515902Y-590049D01*
X-515948Y-589973D01*
X-515998Y-589898D01*
X-516051Y-589826D01*
X-516107Y-589757D01*
X-516166Y-589690D01*
X-516227Y-589625D01*
X-516292Y-589564D01*
X-516359Y-589505D01*
X-516428Y-589449D01*
X-516500Y-589396D01*
X-516575Y-589346D01*
X-516651Y-589300D01*
X-516729Y-589257D01*
X-516809Y-589218D01*
X-516891Y-589182D01*
X-516974Y-589149D01*
X-517059Y-589121D01*
X-517144Y-589096D01*
X-517231Y-589074D01*
X-517319Y-589057D01*
X-517407Y-589044D01*
X-517496Y-589034D01*
X-517585Y-589028D01*
X-517674Y-589026D01*
X-517763Y-589028D01*
X-517852Y-589034D01*
X-517941Y-589044D01*
X-518029Y-589057D01*
X-518117Y-589074D01*
X-518204Y-589096D01*
X-518289Y-589121D01*
X-518374Y-589149D01*
X-518457Y-589182D01*
X-518539Y-589218D01*
X-518619Y-589257D01*
X-518697Y-589300D01*
X-518773Y-589346D01*
X-518848Y-589396D01*
X-518920Y-589449D01*
X-518989Y-589505D01*
X-519056Y-589564D01*
X-519121Y-589625D01*
X-519182Y-589690D01*
X-519241Y-589757D01*
X-519297Y-589826D01*
X-519350Y-589898D01*
X-519400Y-589973D01*
X-519446Y-590049D01*
X-519489Y-590127D01*
X-519528Y-590207D01*
X-519564Y-590289D01*
X-519597Y-590372D01*
X-519625Y-590457D01*
X-519650Y-590542D01*
X-519672Y-590629D01*
X-519689Y-590717D01*
X-519702Y-590805D01*
X-519712Y-590894D01*
X-519718Y-590983D01*
X-519720Y-591072D01*
X-519720Y-594346D01*
X-519718Y-594435D01*
X-519712Y-594524D01*
X-519702Y-594613D01*
X-519689Y-594701D01*
X-519672Y-594789D01*
X-519650Y-594876D01*
X-519625Y-594961D01*
X-519597Y-595046D01*
X-519564Y-595129D01*
X-519528Y-595211D01*
X-519489Y-595291D01*
X-519446Y-595369D01*
X-519400Y-595445D01*
X-519350Y-595520D01*
X-519297Y-595592D01*
X-519241Y-595661D01*
X-519182Y-595728D01*
X-519121Y-595793D01*
X-519056Y-595854D01*
X-518989Y-595913D01*
X-518920Y-595969D01*
X-518848Y-596022D01*
X-518773Y-596072D01*
X-518697Y-596118D01*
X-518619Y-596161D01*
X-518539Y-596200D01*
X-518457Y-596236D01*
X-518374Y-596269D01*
X-518289Y-596297D01*
X-518204Y-596322D01*
X-518117Y-596344D01*
X-518029Y-596361D01*
X-517941Y-596374D01*
X-517852Y-596384D01*
X-517763Y-596390D01*
X-517674Y-596392D01*
X-517585Y-596390D01*
X-517496Y-596384D01*
X-517407Y-596374D01*
X-517319Y-596361D01*
X-517231Y-596344D01*
X-517144Y-596322D01*
X-517059Y-596297D01*
X-516974Y-596269D01*
X-516891Y-596236D01*
X-516809Y-596200D01*
X-516729Y-596161D01*
X-516651Y-596118D01*
X-516575Y-596072D01*
X-516500Y-596022D01*
X-516428Y-595969D01*
X-516359Y-595913D01*
X-516292Y-595854D01*
X-516227Y-595793D01*
X-516166Y-595728D01*
X-516107Y-595661D01*
X-516051Y-595592D01*
X-515998Y-595520D01*
X-515948Y-595445D01*
X-515902Y-595369D01*
X-515859Y-595291D01*
X-515820Y-595211D01*
X-515784Y-595129D01*
X-515751Y-595046D01*
X-515723Y-594961D01*
X-515698Y-594876D01*
X-515676Y-594789D01*
X-515659Y-594701D01*
X-515646Y-594613D01*
X-515636Y-594524D01*
X-515630Y-594435D01*
X-515628Y-594346D01*
X-523187Y-596392D02*
X-523187Y-589026D01*
X-527279Y-596392D01*
X-527279Y-589026D01*
X-530990Y-589026D02*
X-530990Y-596392D01*
X-535082Y-596392D02*
X-530990Y-589026D01*
X-535082Y-589026D02*
X-535082Y-596392D01*
X-538808Y-596392D02*
X-542082Y-596392D01*
X-538808Y-596392D02*
X-538808Y-589026D01*
X-542082Y-589026D01*
X-541263Y-592300D02*
X-538808Y-592300D01*
X-546502Y-596392D02*
X-548139Y-596392D01*
X-546502Y-596392D02*
X-546424Y-596390D01*
X-546346Y-596385D01*
X-546269Y-596375D01*
X-546192Y-596362D01*
X-546116Y-596346D01*
X-546041Y-596326D01*
X-545967Y-596302D01*
X-545894Y-596275D01*
X-545822Y-596244D01*
X-545752Y-596210D01*
X-545684Y-596173D01*
X-545617Y-596132D01*
X-545552Y-596088D01*
X-545490Y-596042D01*
X-545430Y-595992D01*
X-545372Y-595940D01*
X-545317Y-595885D01*
X-545265Y-595827D01*
X-545215Y-595767D01*
X-545169Y-595705D01*
X-545125Y-595640D01*
X-545084Y-595574D01*
X-545047Y-595505D01*
X-545013Y-595435D01*
X-544982Y-595363D01*
X-544955Y-595290D01*
X-544931Y-595216D01*
X-544911Y-595141D01*
X-544895Y-595065D01*
X-544882Y-594988D01*
X-544872Y-594911D01*
X-544867Y-594833D01*
X-544865Y-594755D01*
X-544865Y-590663D01*
X-544867Y-590583D01*
X-544873Y-590503D01*
X-544883Y-590423D01*
X-544896Y-590344D01*
X-544914Y-590265D01*
X-544935Y-590188D01*
X-544961Y-590112D01*
X-544990Y-590037D01*
X-545022Y-589963D01*
X-545058Y-589891D01*
X-545098Y-589821D01*
X-545141Y-589754D01*
X-545187Y-589688D01*
X-545237Y-589625D01*
X-545289Y-589564D01*
X-545344Y-589505D01*
X-545403Y-589450D01*
X-545463Y-589398D01*
X-545527Y-589348D01*
X-545592Y-589302D01*
X-545660Y-589259D01*
X-545730Y-589219D01*
X-545802Y-589183D01*
X-545876Y-589151D01*
X-545950Y-589122D01*
X-546027Y-589097D01*
X-546104Y-589075D01*
X-546183Y-589057D01*
X-546262Y-589044D01*
X-546341Y-589034D01*
X-546422Y-589028D01*
X-546502Y-589026D01*
X-548139Y-589026D01*
X-552543Y-589026D02*
X-552543Y-596392D01*
X-550497Y-589026D02*
X-554589Y-589026D01*
X-557324Y-591072D02*
X-557324Y-594346D01*
X-557324Y-591072D02*
X-557326Y-590983D01*
X-557332Y-590894D01*
X-557342Y-590805D01*
X-557355Y-590717D01*
X-557372Y-590629D01*
X-557394Y-590542D01*
X-557419Y-590457D01*
X-557447Y-590372D01*
X-557480Y-590289D01*
X-557516Y-590207D01*
X-557555Y-590127D01*
X-557598Y-590049D01*
X-557644Y-589973D01*
X-557694Y-589898D01*
X-557747Y-589826D01*
X-557803Y-589757D01*
X-557862Y-589690D01*
X-557923Y-589625D01*
X-557988Y-589564D01*
X-558055Y-589505D01*
X-558124Y-589449D01*
X-558196Y-589396D01*
X-558271Y-589346D01*
X-558347Y-589300D01*
X-558425Y-589257D01*
X-558505Y-589218D01*
X-558587Y-589182D01*
X-558670Y-589149D01*
X-558755Y-589121D01*
X-558840Y-589096D01*
X-558927Y-589074D01*
X-559015Y-589057D01*
X-559103Y-589044D01*
X-559192Y-589034D01*
X-559281Y-589028D01*
X-559370Y-589026D01*
X-559459Y-589028D01*
X-559548Y-589034D01*
X-559637Y-589044D01*
X-559725Y-589057D01*
X-559813Y-589074D01*
X-559900Y-589096D01*
X-559985Y-589121D01*
X-560070Y-589149D01*
X-560153Y-589182D01*
X-560235Y-589218D01*
X-560315Y-589257D01*
X-560393Y-589300D01*
X-560469Y-589346D01*
X-560544Y-589396D01*
X-560616Y-589449D01*
X-560685Y-589505D01*
X-560752Y-589564D01*
X-560817Y-589625D01*
X-560878Y-589690D01*
X-560937Y-589757D01*
X-560993Y-589826D01*
X-561046Y-589898D01*
X-561096Y-589973D01*
X-561142Y-590049D01*
X-561185Y-590127D01*
X-561224Y-590207D01*
X-561260Y-590289D01*
X-561293Y-590372D01*
X-561321Y-590457D01*
X-561346Y-590542D01*
X-561368Y-590629D01*
X-561385Y-590717D01*
X-561398Y-590805D01*
X-561408Y-590894D01*
X-561414Y-590983D01*
X-561416Y-591072D01*
X-561416Y-594346D01*
X-561414Y-594435D01*
X-561408Y-594524D01*
X-561398Y-594613D01*
X-561385Y-594701D01*
X-561368Y-594789D01*
X-561346Y-594876D01*
X-561321Y-594961D01*
X-561293Y-595046D01*
X-561260Y-595129D01*
X-561224Y-595211D01*
X-561185Y-595291D01*
X-561142Y-595369D01*
X-561096Y-595445D01*
X-561046Y-595520D01*
X-560993Y-595592D01*
X-560937Y-595661D01*
X-560878Y-595728D01*
X-560817Y-595793D01*
X-560752Y-595854D01*
X-560685Y-595913D01*
X-560616Y-595969D01*
X-560544Y-596022D01*
X-560469Y-596072D01*
X-560393Y-596118D01*
X-560315Y-596161D01*
X-560235Y-596200D01*
X-560153Y-596236D01*
X-560070Y-596269D01*
X-559985Y-596297D01*
X-559900Y-596322D01*
X-559813Y-596344D01*
X-559725Y-596361D01*
X-559637Y-596374D01*
X-559548Y-596384D01*
X-559459Y-596390D01*
X-559370Y-596392D01*
X-559281Y-596390D01*
X-559192Y-596384D01*
X-559103Y-596374D01*
X-559015Y-596361D01*
X-558927Y-596344D01*
X-558840Y-596322D01*
X-558755Y-596297D01*
X-558670Y-596269D01*
X-558587Y-596236D01*
X-558505Y-596200D01*
X-558425Y-596161D01*
X-558347Y-596118D01*
X-558271Y-596072D01*
X-558196Y-596022D01*
X-558124Y-595969D01*
X-558055Y-595913D01*
X-557988Y-595854D01*
X-557923Y-595793D01*
X-557862Y-595728D01*
X-557803Y-595661D01*
X-557747Y-595592D01*
X-557694Y-595520D01*
X-557644Y-595445D01*
X-557598Y-595369D01*
X-557555Y-595291D01*
X-557516Y-595211D01*
X-557480Y-595129D01*
X-557447Y-595046D01*
X-557419Y-594961D01*
X-557394Y-594876D01*
X-557372Y-594789D01*
X-557355Y-594701D01*
X-557342Y-594613D01*
X-557332Y-594524D01*
X-557326Y-594435D01*
X-557324Y-594346D01*
X-564934Y-596392D02*
X-564934Y-589026D01*
X-566981Y-589026D01*
X-567070Y-589028D01*
X-567159Y-589034D01*
X-567248Y-589044D01*
X-567336Y-589057D01*
X-567424Y-589074D01*
X-567511Y-589096D01*
X-567596Y-589121D01*
X-567681Y-589149D01*
X-567764Y-589182D01*
X-567846Y-589218D01*
X-567926Y-589257D01*
X-568004Y-589300D01*
X-568080Y-589346D01*
X-568155Y-589396D01*
X-568227Y-589449D01*
X-568296Y-589505D01*
X-568363Y-589564D01*
X-568428Y-589625D01*
X-568489Y-589690D01*
X-568548Y-589757D01*
X-568604Y-589826D01*
X-568657Y-589898D01*
X-568707Y-589973D01*
X-568753Y-590049D01*
X-568796Y-590127D01*
X-568835Y-590207D01*
X-568871Y-590289D01*
X-568904Y-590372D01*
X-568932Y-590457D01*
X-568957Y-590542D01*
X-568979Y-590629D01*
X-568996Y-590717D01*
X-569009Y-590805D01*
X-569019Y-590894D01*
X-569025Y-590983D01*
X-569027Y-591072D01*
X-569025Y-591161D01*
X-569019Y-591250D01*
X-569009Y-591339D01*
X-568996Y-591427D01*
X-568979Y-591515D01*
X-568957Y-591602D01*
X-568932Y-591687D01*
X-568904Y-591772D01*
X-568871Y-591855D01*
X-568835Y-591937D01*
X-568796Y-592017D01*
X-568753Y-592095D01*
X-568707Y-592171D01*
X-568657Y-592246D01*
X-568604Y-592318D01*
X-568548Y-592387D01*
X-568489Y-592454D01*
X-568428Y-592519D01*
X-568363Y-592580D01*
X-568296Y-592639D01*
X-568227Y-592695D01*
X-568155Y-592748D01*
X-568080Y-592798D01*
X-568004Y-592844D01*
X-567926Y-592887D01*
X-567846Y-592926D01*
X-567764Y-592962D01*
X-567681Y-592995D01*
X-567596Y-593023D01*
X-567511Y-593048D01*
X-567424Y-593070D01*
X-567336Y-593087D01*
X-567248Y-593100D01*
X-567159Y-593110D01*
X-567070Y-593116D01*
X-566981Y-593118D01*
X-564934Y-593118D01*
X-567390Y-593118D02*
X-569027Y-596392D01*
X-572277Y-593527D02*
X-577188Y-593527D01*
X-580489Y-590663D02*
X-582535Y-589026D01*
X-582535Y-596392D01*
X-580489Y-596392D02*
X-584581Y-596392D01*
X-587804Y-594755D02*
X-589441Y-589026D01*
X-587804Y-594755D02*
X-591896Y-594755D01*
X-590669Y-593118D02*
X-590669Y-596392D01*
X-595198Y-593527D02*
X-600109Y-593527D01*
X-603654Y-594346D02*
X-603654Y-589026D01*
X-603654Y-594346D02*
X-603656Y-594435D01*
X-603662Y-594524D01*
X-603672Y-594613D01*
X-603685Y-594701D01*
X-603702Y-594789D01*
X-603724Y-594876D01*
X-603749Y-594961D01*
X-603777Y-595046D01*
X-603810Y-595129D01*
X-603846Y-595211D01*
X-603885Y-595291D01*
X-603928Y-595369D01*
X-603974Y-595445D01*
X-604024Y-595520D01*
X-604077Y-595592D01*
X-604133Y-595661D01*
X-604192Y-595728D01*
X-604253Y-595793D01*
X-604318Y-595854D01*
X-604385Y-595913D01*
X-604454Y-595969D01*
X-604526Y-596022D01*
X-604601Y-596072D01*
X-604677Y-596118D01*
X-604755Y-596161D01*
X-604835Y-596200D01*
X-604917Y-596236D01*
X-605000Y-596269D01*
X-605085Y-596297D01*
X-605170Y-596322D01*
X-605257Y-596344D01*
X-605345Y-596361D01*
X-605433Y-596374D01*
X-605522Y-596384D01*
X-605611Y-596390D01*
X-605700Y-596392D01*
X-605789Y-596390D01*
X-605878Y-596384D01*
X-605967Y-596374D01*
X-606055Y-596361D01*
X-606143Y-596344D01*
X-606230Y-596322D01*
X-606315Y-596297D01*
X-606400Y-596269D01*
X-606483Y-596236D01*
X-606565Y-596200D01*
X-606645Y-596161D01*
X-606723Y-596118D01*
X-606799Y-596072D01*
X-606874Y-596022D01*
X-606946Y-595969D01*
X-607015Y-595913D01*
X-607082Y-595854D01*
X-607147Y-595793D01*
X-607208Y-595728D01*
X-607267Y-595661D01*
X-607323Y-595592D01*
X-607376Y-595520D01*
X-607426Y-595445D01*
X-607472Y-595369D01*
X-607515Y-595291D01*
X-607554Y-595211D01*
X-607590Y-595129D01*
X-607623Y-595046D01*
X-607651Y-594961D01*
X-607676Y-594876D01*
X-607698Y-594789D01*
X-607715Y-594701D01*
X-607728Y-594613D01*
X-607738Y-594524D01*
X-607744Y-594435D01*
X-607746Y-594346D01*
X-607746Y-589026D01*
X-611574Y-589026D02*
X-611574Y-596392D01*
X-611574Y-589026D02*
X-613620Y-589026D01*
X-613709Y-589028D01*
X-613798Y-589034D01*
X-613887Y-589044D01*
X-613975Y-589057D01*
X-614063Y-589074D01*
X-614150Y-589096D01*
X-614235Y-589121D01*
X-614320Y-589149D01*
X-614403Y-589182D01*
X-614485Y-589218D01*
X-614565Y-589257D01*
X-614643Y-589300D01*
X-614719Y-589346D01*
X-614794Y-589396D01*
X-614866Y-589449D01*
X-614935Y-589505D01*
X-615002Y-589564D01*
X-615067Y-589625D01*
X-615128Y-589690D01*
X-615187Y-589757D01*
X-615243Y-589826D01*
X-615296Y-589898D01*
X-615346Y-589973D01*
X-615392Y-590049D01*
X-615435Y-590127D01*
X-615474Y-590207D01*
X-615510Y-590289D01*
X-615543Y-590372D01*
X-615571Y-590457D01*
X-615596Y-590542D01*
X-615618Y-590629D01*
X-615635Y-590717D01*
X-615648Y-590805D01*
X-615658Y-590894D01*
X-615664Y-590983D01*
X-615666Y-591072D01*
X-615664Y-591161D01*
X-615658Y-591250D01*
X-615648Y-591339D01*
X-615635Y-591427D01*
X-615618Y-591515D01*
X-615596Y-591602D01*
X-615571Y-591687D01*
X-615543Y-591772D01*
X-615510Y-591855D01*
X-615474Y-591937D01*
X-615435Y-592017D01*
X-615392Y-592095D01*
X-615346Y-592171D01*
X-615296Y-592246D01*
X-615243Y-592318D01*
X-615187Y-592387D01*
X-615128Y-592454D01*
X-615067Y-592519D01*
X-615002Y-592580D01*
X-614935Y-592639D01*
X-614866Y-592695D01*
X-614794Y-592748D01*
X-614719Y-592798D01*
X-614643Y-592844D01*
X-614565Y-592887D01*
X-614485Y-592926D01*
X-614403Y-592962D01*
X-614320Y-592995D01*
X-614235Y-593023D01*
X-614150Y-593048D01*
X-614063Y-593070D01*
X-613975Y-593087D01*
X-613887Y-593100D01*
X-613798Y-593110D01*
X-613709Y-593116D01*
X-613620Y-593118D01*
X-611574Y-593118D01*
X-618890Y-596392D02*
X-618890Y-589026D01*
X-620936Y-589026D01*
X-621025Y-589028D01*
X-621114Y-589034D01*
X-621203Y-589044D01*
X-621291Y-589057D01*
X-621379Y-589074D01*
X-621466Y-589096D01*
X-621551Y-589121D01*
X-621636Y-589149D01*
X-621719Y-589182D01*
X-621801Y-589218D01*
X-621881Y-589257D01*
X-621959Y-589300D01*
X-622035Y-589346D01*
X-622110Y-589396D01*
X-622182Y-589449D01*
X-622251Y-589505D01*
X-622318Y-589564D01*
X-622383Y-589625D01*
X-622444Y-589690D01*
X-622503Y-589757D01*
X-622559Y-589826D01*
X-622612Y-589898D01*
X-622662Y-589973D01*
X-622708Y-590049D01*
X-622751Y-590127D01*
X-622790Y-590207D01*
X-622826Y-590289D01*
X-622859Y-590372D01*
X-622887Y-590457D01*
X-622912Y-590542D01*
X-622934Y-590629D01*
X-622951Y-590717D01*
X-622964Y-590805D01*
X-622974Y-590894D01*
X-622980Y-590983D01*
X-622982Y-591072D01*
X-622980Y-591161D01*
X-622974Y-591250D01*
X-622964Y-591339D01*
X-622951Y-591427D01*
X-622934Y-591515D01*
X-622912Y-591602D01*
X-622887Y-591687D01*
X-622859Y-591772D01*
X-622826Y-591855D01*
X-622790Y-591937D01*
X-622751Y-592017D01*
X-622708Y-592095D01*
X-622662Y-592171D01*
X-622612Y-592246D01*
X-622559Y-592318D01*
X-622503Y-592387D01*
X-622444Y-592454D01*
X-622383Y-592519D01*
X-622318Y-592580D01*
X-622251Y-592639D01*
X-622182Y-592695D01*
X-622110Y-592748D01*
X-622035Y-592798D01*
X-621959Y-592844D01*
X-621881Y-592887D01*
X-621801Y-592926D01*
X-621719Y-592962D01*
X-621636Y-592995D01*
X-621551Y-593023D01*
X-621466Y-593048D01*
X-621379Y-593070D01*
X-621291Y-593087D01*
X-621203Y-593100D01*
X-621114Y-593110D01*
X-621025Y-593116D01*
X-620936Y-593118D01*
X-618890Y-593118D01*
X-626103Y-596392D02*
X-629377Y-596392D01*
X-626103Y-596392D02*
X-626103Y-589026D01*
X-629377Y-589026D01*
X-628558Y-592300D02*
X-626103Y-592300D01*
X-632478Y-589026D02*
X-632478Y-596392D01*
X-632478Y-589026D02*
X-634524Y-589026D01*
X-634613Y-589028D01*
X-634702Y-589034D01*
X-634791Y-589044D01*
X-634879Y-589057D01*
X-634967Y-589074D01*
X-635054Y-589096D01*
X-635139Y-589121D01*
X-635224Y-589149D01*
X-635307Y-589182D01*
X-635389Y-589218D01*
X-635469Y-589257D01*
X-635547Y-589300D01*
X-635623Y-589346D01*
X-635698Y-589396D01*
X-635770Y-589449D01*
X-635839Y-589505D01*
X-635906Y-589564D01*
X-635971Y-589625D01*
X-636032Y-589690D01*
X-636091Y-589757D01*
X-636147Y-589826D01*
X-636200Y-589898D01*
X-636250Y-589973D01*
X-636296Y-590049D01*
X-636339Y-590127D01*
X-636378Y-590207D01*
X-636414Y-590289D01*
X-636447Y-590372D01*
X-636475Y-590457D01*
X-636500Y-590542D01*
X-636522Y-590629D01*
X-636539Y-590717D01*
X-636552Y-590805D01*
X-636562Y-590894D01*
X-636568Y-590983D01*
X-636570Y-591072D01*
X-636568Y-591161D01*
X-636562Y-591250D01*
X-636552Y-591339D01*
X-636539Y-591427D01*
X-636522Y-591515D01*
X-636500Y-591602D01*
X-636475Y-591687D01*
X-636447Y-591772D01*
X-636414Y-591855D01*
X-636378Y-591937D01*
X-636339Y-592017D01*
X-636296Y-592095D01*
X-636250Y-592171D01*
X-636200Y-592246D01*
X-636147Y-592318D01*
X-636091Y-592387D01*
X-636032Y-592454D01*
X-635971Y-592519D01*
X-635906Y-592580D01*
X-635839Y-592639D01*
X-635770Y-592695D01*
X-635698Y-592748D01*
X-635623Y-592798D01*
X-635547Y-592844D01*
X-635469Y-592887D01*
X-635389Y-592926D01*
X-635307Y-592962D01*
X-635224Y-592995D01*
X-635139Y-593023D01*
X-635054Y-593048D01*
X-634967Y-593070D01*
X-634879Y-593087D01*
X-634791Y-593100D01*
X-634702Y-593110D01*
X-634613Y-593116D01*
X-634524Y-593118D01*
X-632478Y-593118D01*
X-634933Y-593118D02*
X-636570Y-596392D01*
X-639821Y-593527D02*
X-644731Y-593527D01*
X-648033Y-594346D02*
X-648033Y-591072D01*
X-648035Y-590983D01*
X-648041Y-590894D01*
X-648051Y-590805D01*
X-648064Y-590717D01*
X-648081Y-590629D01*
X-648103Y-590542D01*
X-648128Y-590457D01*
X-648156Y-590372D01*
X-648189Y-590289D01*
X-648225Y-590207D01*
X-648264Y-590127D01*
X-648307Y-590049D01*
X-648353Y-589973D01*
X-648403Y-589898D01*
X-648456Y-589826D01*
X-648512Y-589757D01*
X-648571Y-589690D01*
X-648632Y-589625D01*
X-648697Y-589564D01*
X-648764Y-589505D01*
X-648833Y-589449D01*
X-648905Y-589396D01*
X-648980Y-589346D01*
X-649056Y-589300D01*
X-649134Y-589257D01*
X-649214Y-589218D01*
X-649296Y-589182D01*
X-649379Y-589149D01*
X-649464Y-589121D01*
X-649549Y-589096D01*
X-649636Y-589074D01*
X-649724Y-589057D01*
X-649812Y-589044D01*
X-649901Y-589034D01*
X-649990Y-589028D01*
X-650079Y-589026D01*
X-650168Y-589028D01*
X-650257Y-589034D01*
X-650346Y-589044D01*
X-650434Y-589057D01*
X-650522Y-589074D01*
X-650609Y-589096D01*
X-650694Y-589121D01*
X-650779Y-589149D01*
X-650862Y-589182D01*
X-650944Y-589218D01*
X-651024Y-589257D01*
X-651102Y-589300D01*
X-651178Y-589346D01*
X-651253Y-589396D01*
X-651325Y-589449D01*
X-651394Y-589505D01*
X-651461Y-589564D01*
X-651526Y-589625D01*
X-651587Y-589690D01*
X-651646Y-589757D01*
X-651702Y-589826D01*
X-651755Y-589898D01*
X-651805Y-589973D01*
X-651851Y-590049D01*
X-651894Y-590127D01*
X-651933Y-590207D01*
X-651969Y-590289D01*
X-652002Y-590372D01*
X-652030Y-590457D01*
X-652055Y-590542D01*
X-652077Y-590629D01*
X-652094Y-590717D01*
X-652107Y-590805D01*
X-652117Y-590894D01*
X-652123Y-590983D01*
X-652125Y-591072D01*
X-652125Y-594346D01*
X-652123Y-594435D01*
X-652117Y-594524D01*
X-652107Y-594613D01*
X-652094Y-594701D01*
X-652077Y-594789D01*
X-652055Y-594876D01*
X-652030Y-594961D01*
X-652002Y-595046D01*
X-651969Y-595129D01*
X-651933Y-595211D01*
X-651894Y-595291D01*
X-651851Y-595369D01*
X-651805Y-595445D01*
X-651755Y-595520D01*
X-651702Y-595592D01*
X-651646Y-595661D01*
X-651587Y-595728D01*
X-651526Y-595793D01*
X-651461Y-595854D01*
X-651394Y-595913D01*
X-651325Y-595969D01*
X-651253Y-596022D01*
X-651178Y-596072D01*
X-651102Y-596118D01*
X-651024Y-596161D01*
X-650944Y-596200D01*
X-650862Y-596236D01*
X-650779Y-596269D01*
X-650694Y-596297D01*
X-650609Y-596322D01*
X-650522Y-596344D01*
X-650434Y-596361D01*
X-650346Y-596374D01*
X-650257Y-596384D01*
X-650168Y-596390D01*
X-650079Y-596392D01*
X-649990Y-596390D01*
X-649901Y-596384D01*
X-649812Y-596374D01*
X-649724Y-596361D01*
X-649636Y-596344D01*
X-649549Y-596322D01*
X-649464Y-596297D01*
X-649379Y-596269D01*
X-649296Y-596236D01*
X-649214Y-596200D01*
X-649134Y-596161D01*
X-649056Y-596118D01*
X-648980Y-596072D01*
X-648905Y-596022D01*
X-648833Y-595969D01*
X-648764Y-595913D01*
X-648697Y-595854D01*
X-648632Y-595793D01*
X-648571Y-595728D01*
X-648512Y-595661D01*
X-648456Y-595592D01*
X-648403Y-595520D01*
X-648353Y-595445D01*
X-648307Y-595369D01*
X-648264Y-595291D01*
X-648225Y-595211D01*
X-648189Y-595129D01*
X-648156Y-595046D01*
X-648128Y-594961D01*
X-648103Y-594876D01*
X-648081Y-594789D01*
X-648064Y-594701D01*
X-648051Y-594613D01*
X-648041Y-594524D01*
X-648035Y-594435D01*
X-648033Y-594346D01*
X-655592Y-594346D02*
X-655592Y-589026D01*
X-655592Y-594346D02*
X-655594Y-594435D01*
X-655600Y-594524D01*
X-655610Y-594613D01*
X-655623Y-594701D01*
X-655640Y-594789D01*
X-655662Y-594876D01*
X-655687Y-594961D01*
X-655715Y-595046D01*
X-655748Y-595129D01*
X-655784Y-595211D01*
X-655823Y-595291D01*
X-655866Y-595369D01*
X-655912Y-595445D01*
X-655962Y-595520D01*
X-656015Y-595592D01*
X-656071Y-595661D01*
X-656130Y-595728D01*
X-656191Y-595793D01*
X-656256Y-595854D01*
X-656323Y-595913D01*
X-656392Y-595969D01*
X-656464Y-596022D01*
X-656539Y-596072D01*
X-656615Y-596118D01*
X-656693Y-596161D01*
X-656773Y-596200D01*
X-656855Y-596236D01*
X-656938Y-596269D01*
X-657023Y-596297D01*
X-657108Y-596322D01*
X-657195Y-596344D01*
X-657283Y-596361D01*
X-657371Y-596374D01*
X-657460Y-596384D01*
X-657549Y-596390D01*
X-657638Y-596392D01*
X-657727Y-596390D01*
X-657816Y-596384D01*
X-657905Y-596374D01*
X-657993Y-596361D01*
X-658081Y-596344D01*
X-658168Y-596322D01*
X-658253Y-596297D01*
X-658338Y-596269D01*
X-658421Y-596236D01*
X-658503Y-596200D01*
X-658583Y-596161D01*
X-658661Y-596118D01*
X-658737Y-596072D01*
X-658812Y-596022D01*
X-658884Y-595969D01*
X-658953Y-595913D01*
X-659020Y-595854D01*
X-659085Y-595793D01*
X-659146Y-595728D01*
X-659205Y-595661D01*
X-659261Y-595592D01*
X-659314Y-595520D01*
X-659364Y-595445D01*
X-659410Y-595369D01*
X-659453Y-595291D01*
X-659492Y-595211D01*
X-659528Y-595129D01*
X-659561Y-595046D01*
X-659589Y-594961D01*
X-659614Y-594876D01*
X-659636Y-594789D01*
X-659653Y-594701D01*
X-659666Y-594613D01*
X-659676Y-594524D01*
X-659682Y-594435D01*
X-659684Y-594346D01*
X-659684Y-589026D01*
X-664709Y-589026D02*
X-664709Y-596392D01*
X-662663Y-589026D02*
X-666755Y-589026D01*
M02*
