G04 EAGLE Gerber RS-274X export*
G75*
%MOMM*%
%FSLAX34Y34*%
%LPD*%
%INSoldermask Top*%
%IPPOS*%
%AMOC8*
5,1,8,0,0,1.08239X$1,22.5*%
G01*
%ADD10R,11.709400X13.614400*%
%ADD11R,2.506400X2.506400*%
%ADD12C,2.206400*%
%ADD13C,1.706400*%
%ADD14R,6.006400X7.636400*%


D10*
X2675890Y-228600D03*
X1546860Y-228600D03*
X1513840Y-632460D03*
X1300480Y-228600D03*
X1267460Y-632460D03*
X1051560Y-228600D03*
X1021080Y-632460D03*
X805180Y-228600D03*
X774700Y-632460D03*
X558800Y-228600D03*
X528320Y-632460D03*
X2533650Y-228600D03*
X311150Y-228600D03*
X280670Y-633730D03*
X58420Y-228600D03*
X2490470Y-632460D03*
X2284730Y-228600D03*
X2254250Y-632460D03*
X2038350Y-228600D03*
X2007870Y-632460D03*
X1791970Y-228600D03*
X1760220Y-632460D03*
D11*
X3431466Y-361002D03*
X3389466Y-361002D03*
X3347466Y-361002D03*
X3305466Y-361002D03*
X3263466Y-361002D03*
X3431466Y-306002D03*
X3389466Y-306002D03*
X3347466Y-306002D03*
X3305466Y-306002D03*
X3263466Y-306002D03*
X3221466Y-306002D03*
X3221466Y-361002D03*
X3473466Y-361002D03*
X3473466Y-306002D03*
X3431466Y-578426D03*
X3389466Y-578426D03*
X3347466Y-578426D03*
X3305466Y-578426D03*
X3263466Y-578426D03*
X3431466Y-523426D03*
X3389466Y-523426D03*
X3347466Y-523426D03*
X3305466Y-523426D03*
X3263466Y-523426D03*
X3221466Y-523426D03*
X3221466Y-578426D03*
X3473466Y-578426D03*
X3473466Y-523426D03*
D12*
X-579120Y-320421D03*
X-579120Y-345421D03*
X-604120Y-345421D03*
X-604120Y-320421D03*
X-629120Y-320421D03*
X-629120Y-345421D03*
X-554120Y-345421D03*
X-554120Y-320421D03*
X-529120Y-320421D03*
X-529120Y-345421D03*
D13*
X-566420Y-307021D03*
D12*
X-504120Y-345421D03*
X-504120Y-320421D03*
X-654120Y-320421D03*
X-654120Y-345421D03*
X-580136Y-537845D03*
X-580136Y-562845D03*
X-605136Y-562845D03*
X-605136Y-537845D03*
X-630136Y-537845D03*
X-630136Y-562845D03*
X-555136Y-562845D03*
X-555136Y-537845D03*
X-530136Y-537845D03*
X-530136Y-562845D03*
D13*
X-567436Y-524445D03*
D12*
X-505136Y-562845D03*
X-505136Y-537845D03*
X-655136Y-537845D03*
X-655136Y-562845D03*
D14*
X2994357Y-163906D03*
X3099357Y-163906D03*
X2994357Y-273169D03*
X3099357Y-273169D03*
X2994357Y-710219D03*
X3099357Y-710219D03*
X2994357Y-382431D03*
X3099357Y-382431D03*
X2994357Y-600956D03*
X3099357Y-600956D03*
X2805762Y-490146D03*
X2910762Y-490146D03*
X2994357Y-491694D03*
X3099357Y-491694D03*
X2994357Y-54644D03*
X3099357Y-54644D03*
X2994357Y-819481D03*
X3099357Y-819481D03*
X2805762Y-289213D03*
X2910762Y-289213D03*
X2805762Y-590613D03*
X2910762Y-590613D03*
X2805762Y-389680D03*
X2910762Y-389680D03*
X-81866Y-487715D03*
X-186866Y-487715D03*
X-277065Y-383064D03*
X-382065Y-383064D03*
X-277065Y-602843D03*
X-382065Y-602843D03*
X-277065Y-163286D03*
X-382065Y-163286D03*
X-277065Y-712732D03*
X-382065Y-712732D03*
X-277065Y-53397D03*
X-382065Y-53397D03*
X-277065Y-822621D03*
X-382065Y-822621D03*
X-81866Y-388049D03*
X-186866Y-388049D03*
X-277065Y-492954D03*
X-382065Y-492954D03*
X-277065Y-273175D03*
X-382065Y-273175D03*
M02*
