G04 EAGLE Gerber RS-274X export*
G75*
%MOMM*%
%FSLAX34Y34*%
%LPD*%
%INSoldermask Bottom*%
%IPPOS*%
%AMOC8*
5,1,8,0,0,1.08239X$1,22.5*%
G01*
%ADD10R,2.506400X2.506400*%
%ADD11C,2.206400*%
%ADD12C,1.706400*%


D10*
X3431466Y-361002D03*
X3389466Y-361002D03*
X3347466Y-361002D03*
X3305466Y-361002D03*
X3263466Y-361002D03*
X3431466Y-306002D03*
X3389466Y-306002D03*
X3347466Y-306002D03*
X3305466Y-306002D03*
X3263466Y-306002D03*
X3221466Y-306002D03*
X3221466Y-361002D03*
X3473466Y-361002D03*
X3473466Y-306002D03*
X3431466Y-578426D03*
X3389466Y-578426D03*
X3347466Y-578426D03*
X3305466Y-578426D03*
X3263466Y-578426D03*
X3431466Y-523426D03*
X3389466Y-523426D03*
X3347466Y-523426D03*
X3305466Y-523426D03*
X3263466Y-523426D03*
X3221466Y-523426D03*
X3221466Y-578426D03*
X3473466Y-578426D03*
X3473466Y-523426D03*
D11*
X-579120Y-320421D03*
X-579120Y-345421D03*
X-604120Y-345421D03*
X-604120Y-320421D03*
X-629120Y-320421D03*
X-629120Y-345421D03*
X-554120Y-345421D03*
X-554120Y-320421D03*
X-529120Y-320421D03*
X-529120Y-345421D03*
D12*
X-566420Y-307021D03*
D11*
X-504120Y-345421D03*
X-504120Y-320421D03*
X-654120Y-320421D03*
X-654120Y-345421D03*
X-580136Y-537845D03*
X-580136Y-562845D03*
X-605136Y-562845D03*
X-605136Y-537845D03*
X-630136Y-537845D03*
X-630136Y-562845D03*
X-555136Y-562845D03*
X-555136Y-537845D03*
X-530136Y-537845D03*
X-530136Y-562845D03*
D12*
X-567436Y-524445D03*
D11*
X-505136Y-562845D03*
X-505136Y-537845D03*
X-655136Y-537845D03*
X-655136Y-562845D03*
M02*
