G04 EAGLE Gerber RS-274X export*
G75*
%MOMM*%
%FSLAX34Y34*%
%LPD*%
%INSolderpaste Top*%
%IPPOS*%
%AMOC8*
5,1,8,0,0,1.08239X$1,22.5*%
G01*
%ADD10R,11.303000X13.208000*%
%ADD11R,5.600000X7.230000*%


D10*
X2675890Y-228600D03*
X1546860Y-228600D03*
X1513840Y-632460D03*
X1300480Y-228600D03*
X1267460Y-632460D03*
X1051560Y-228600D03*
X1021080Y-632460D03*
X805180Y-228600D03*
X774700Y-632460D03*
X558800Y-228600D03*
X528320Y-632460D03*
X2533650Y-228600D03*
X311150Y-228600D03*
X280670Y-633730D03*
X58420Y-228600D03*
X2490470Y-632460D03*
X2284730Y-228600D03*
X2254250Y-632460D03*
X2038350Y-228600D03*
X2007870Y-632460D03*
X1791970Y-228600D03*
X1760220Y-632460D03*
D11*
X2994357Y-163906D03*
X3099357Y-163906D03*
X2994357Y-273169D03*
X3099357Y-273169D03*
X2994357Y-710219D03*
X3099357Y-710219D03*
X2994357Y-382431D03*
X3099357Y-382431D03*
X2994357Y-600956D03*
X3099357Y-600956D03*
X2805762Y-490146D03*
X2910762Y-490146D03*
X2994357Y-491694D03*
X3099357Y-491694D03*
X2994357Y-54644D03*
X3099357Y-54644D03*
X2994357Y-819481D03*
X3099357Y-819481D03*
X2805762Y-289213D03*
X2910762Y-289213D03*
X2805762Y-590613D03*
X2910762Y-590613D03*
X2805762Y-389680D03*
X2910762Y-389680D03*
X-81866Y-487715D03*
X-186866Y-487715D03*
X-277065Y-383064D03*
X-382065Y-383064D03*
X-277065Y-602843D03*
X-382065Y-602843D03*
X-277065Y-163286D03*
X-382065Y-163286D03*
X-277065Y-712732D03*
X-382065Y-712732D03*
X-277065Y-53397D03*
X-382065Y-53397D03*
X-277065Y-822621D03*
X-382065Y-822621D03*
X-81866Y-388049D03*
X-186866Y-388049D03*
X-277065Y-492954D03*
X-382065Y-492954D03*
X-277065Y-273175D03*
X-382065Y-273175D03*
M02*
