  0
SECTION
  2
HEADER
  9
$ACADVER
  1
AC1009
  9
$FILLMODE
 70
1
  9
$EXTMIN
 10
-33.7566
 20
-3.8100
 30
0.0000
  9
$EXTMAX
 10
33.7566
 20
40.0050
 30
0.0000
  0
ENDSEC
  0
SECTION
  2
TABLES
  0
TABLE
  2
LTYPE
 70
1
  0
LTYPE
  2
CONTINUOUS
 70
64
  3
Solid line
 72
65
 73
0
 40
0
  0
ENDTAB
  0
TABLE
  2
LAYER
 70
255
  0
LAYER
  2
17
 70
64
 62
110
  6
CONTINUOUS
  0
LAYER
  2
19
 70
64
 62
53
  6
CONTINUOUS
  0
LAYER
  2
20
 70
64
 62
31
  6
CONTINUOUS
  0
LAYER
  2
23
 70
64
 62
53
  6
CONTINUOUS
  0
LAYER
  2
24
 70
64
 62
53
  6
CONTINUOUS
  0
LAYER
  2
25
 70
64
 62
253
  6
CONTINUOUS
  0
LAYER
  2
26
 70
64
 62
253
  6
CONTINUOUS
  0
LAYER
  2
39
 70
64
 62
12
  6
CONTINUOUS
  0
LAYER
  2
40
 70
64
 62
132
  6
CONTINUOUS
  0
LAYER
  2
41
 70
64
 62
12
  6
CONTINUOUS
  0
LAYER
  2
42
 70
64
 62
132
  6
CONTINUOUS
  0
LAYER
  2
51
 70
64
 62
253
  6
CONTINUOUS
  0
LAYER
  2
52
 70
64
 62
253
  6
CONTINUOUS
  0
ENDTAB
  0
ENDSEC
  0
SECTION
  2
BLOCKS
  0
BLOCK
  8
0
  2
RECT
 70
64
 10
0.0000
 20
0.0000
 30
0.0000
  3
RECT
  0
SOLID
  8
0
 10
-0.5000
 20
-0.5000
 30
0.0000
 11
0.5000
 21
-0.5000
 31
0.0000
 12
-0.5000
 22
0.5000
 32
0.0000
 13
0.5000
 23
0.5000
 33
0.0000
  0
ENDBLK
  8
0
  0
BLOCK
  8
0
  2
PIE
 70
64
 10
0.0000
 20
0.0000
 30
0.0000
  3
PIE
  0
POLYLINE
  8
0
 66
1
 10
0.0000
 20
0.0000
 30
0.0000
 40
0.5000
 41
0.5000
 70
0
  0
VERTEX
  8
0
 10
0.0000
 20
-0.2500
 30
0.0000
 42
1.0000
  0
VERTEX
  8
0
 10
0.0000
 20
0.2500
 30
0.0000
 42
1.0000
  0
VERTEX
  8
0
 10
0.0000
 20
-0.2500
 30
0.0000
  0
SEQEND
  8
0
  0
ENDBLK
  8
0
  0
BLOCK
  8
0
  2
OCTAGONP
 70
64
 10
0.0000
 20
0.0000
 30
0.0000
  3
OCTAGONP
  0
POLYLINE
  8
0
 66
1
 10
0.0000
 20
0.0000
 30
0.0000
 40
0.5000
 41
0.5000
 70
0
  0
VERTEX
  8
0
 10
-0.2500
 20
-0.1036
 30
0.0000
  0
VERTEX
  8
0
 10
-0.2500
 20
0.1036
 30
0.0000
  0
VERTEX
  8
0
 10
-0.1036
 20
0.2500
 30
0.0000
  0
VERTEX
  8
0
 10
0.1036
 20
0.2500
 30
0.0000
  0
VERTEX
  8
0
 10
0.2500
 20
0.1036
 30
0.0000
  0
VERTEX
  8
0
 10
0.2500
 20
-0.1036
 30
0.0000
  0
VERTEX
  8
0
 10
0.1036
 20
-0.2500
 30
0.0000
  0
VERTEX
  8
0
 10
-0.1036
 20
-0.2500
 30
0.0000
  0
VERTEX
  8
0
 10
-0.2500
 20
-0.1036
 30
0.0000
  0
VERTEX
  8
0
 10
-0.2500
 20
0.1036
 30
0.0000
  0
SEQEND
  8
0
  0
ENDBLK
  8
0
  0
BLOCK
  8
0
  2
SQUAREP
 70
64
 10
0.0000
 20
0.0000
 30
0.0000
  3
SQUAREP
  0
SOLID
  8
0
 10
-0.5000
 20
-0.5000
 30
0.0000
 11
0.5000
 21
-0.5000
 31
0.0000
 12
-0.5000
 22
0.5000
 32
0.0000
 13
0.5000
 23
0.5000
 33
0.0000
  0
ENDBLK
  8
0
  0
BLOCK
  8
0
  2
ROUNDP
 70
64
 10
0.0000
 20
0.0000
 30
0.0000
  3
ROUNDP
  0
POLYLINE
  8
0
 66
1
 10
0.0000
 20
0.0000
 30
0.0000
 40
0.5000
 41
0.5000
 70
0
  0
VERTEX
  8
0
 10
0.0000
 20
-0.2500
 30
0.0000
 42
1.0000
  0
VERTEX
  8
0
 10
0.0000
 20
0.2500
 30
0.0000
 42
1.0000
  0
VERTEX
  8
0
 10
0.0000
 20
-0.2500
 30
0.0000
  0
SEQEND
  8
0
  0
ENDBLK
  8
0
  0
BLOCK
  8
0
  2
ANNULUSP
 70
64
 10
0.0000
 20
0.0000
 30
0.0000
  3
ANNULUSP
  0
POLYLINE
  8
0
 66
1
 10
0.0000
 20
0.0000
 30
0.0000
 40
0.5000
 41
0.5000
 70
0
  0
VERTEX
  8
0
 10
0.0000
 20
-0.2500
 30
0.0000
 42
1.0000
  0
VERTEX
  8
0
 10
0.0000
 20
0.2500
 30
0.0000
 42
1.0000
  0
VERTEX
  8
0
 10
0.0000
 20
-0.2500
 30
0.0000
  0
SEQEND
  8
0
  0
ENDBLK
  8
0
  0
BLOCK
  8
0
  2
THERMALP
 70
64
 10
0.0000
 20
0.0000
 30
0.0000
  3
THERMALP
  0
POLYLINE
  8
0
 66
1
 10
0.0000
 20
0.0000
 30
0.0000
 40
0.1000
 41
0.1000
 70
0
  0
VERTEX
  8
0
 10
-0.2379
 20
0.4500
 30
0.0000
  0
VERTEX
  8
0
 10
0.2379
 20
0.4500
 30
0.0000
  0
SEQEND
  8
0
  0
POLYLINE
  8
0
 66
1
 10
0.0000
 20
0.0000
 30
0.0000
 40
0.0500
 41
0.0500
 70
0
  0
VERTEX
  8
0
 10
0.2379
 20
0.4250
 30
0.0000
 42
1.0000
  0
VERTEX
  8
0
 10
0.2379
 20
0.4750
 30
0.0000
  0
SEQEND
  8
0
  0
POLYLINE
  8
0
 66
1
 10
0.0000
 20
0.0000
 30
0.0000
 40
0.0500
 41
0.0500
 70
0
  0
VERTEX
  8
0
 10
-0.2379
 20
0.4750
 30
0.0000
 42
1.0000
  0
VERTEX
  8
0
 10
-0.2379
 20
0.4250
 30
0.0000
  0
SEQEND
  8
0
  0
POLYLINE
  8
0
 66
1
 10
0.0000
 20
0.0000
 30
0.0000
 40
0.1000
 41
0.1000
 70
0
  0
VERTEX
  8
0
 10
0.4500
 20
0.2379
 30
0.0000
  0
VERTEX
  8
0
 10
0.4500
 20
-0.2379
 30
0.0000
  0
SEQEND
  8
0
  0
POLYLINE
  8
0
 66
1
 10
0.0000
 20
0.0000
 30
0.0000
 40
0.0500
 41
0.0500
 70
0
  0
VERTEX
  8
0
 10
0.4250
 20
-0.2379
 30
0.0000
 42
1.0000
  0
VERTEX
  8
0
 10
0.4750
 20
-0.2379
 30
0.0000
  0
SEQEND
  8
0
  0
POLYLINE
  8
0
 66
1
 10
0.0000
 20
0.0000
 30
0.0000
 40
0.0500
 41
0.0500
 70
0
  0
VERTEX
  8
0
 10
0.4750
 20
0.2379
 30
0.0000
 42
1.0000
  0
VERTEX
  8
0
 10
0.4250
 20
0.2379
 30
0.0000
  0
SEQEND
  8
0
  0
POLYLINE
  8
0
 66
1
 10
0.0000
 20
0.0000
 30
0.0000
 40
0.1000
 41
0.1000
 70
0
  0
VERTEX
  8
0
 10
0.2379
 20
-0.4500
 30
0.0000
  0
VERTEX
  8
0
 10
-0.2379
 20
-0.4500
 30
0.0000
  0
SEQEND
  8
0
  0
POLYLINE
  8
0
 66
1
 10
0.0000
 20
0.0000
 30
0.0000
 40
0.0500
 41
0.0500
 70
0
  0
VERTEX
  8
0
 10
-0.2379
 20
-0.4250
 30
0.0000
 42
1.0000
  0
VERTEX
  8
0
 10
-0.2379
 20
-0.4750
 30
0.0000
  0
SEQEND
  8
0
  0
POLYLINE
  8
0
 66
1
 10
0.0000
 20
0.0000
 30
0.0000
 40
0.0500
 41
0.0500
 70
0
  0
VERTEX
  8
0
 10
0.2379
 20
-0.4750
 30
0.0000
 42
1.0000
  0
VERTEX
  8
0
 10
0.2379
 20
-0.4250
 30
0.0000
  0
SEQEND
  8
0
  0
POLYLINE
  8
0
 66
1
 10
0.0000
 20
0.0000
 30
0.0000
 40
0.1000
 41
0.1000
 70
0
  0
VERTEX
  8
0
 10
-0.4500
 20
-0.2379
 30
0.0000
  0
VERTEX
  8
0
 10
-0.4500
 20
0.2379
 30
0.0000
  0
SEQEND
  8
0
  0
POLYLINE
  8
0
 66
1
 10
0.0000
 20
0.0000
 30
0.0000
 40
0.0500
 41
0.0500
 70
0
  0
VERTEX
  8
0
 10
-0.4250
 20
0.2379
 30
0.0000
 42
1.0000
  0
VERTEX
  8
0
 10
-0.4750
 20
0.2379
 30
0.0000
  0
SEQEND
  8
0
  0
POLYLINE
  8
0
 66
1
 10
0.0000
 20
0.0000
 30
0.0000
 40
0.0500
 41
0.0500
 70
0
  0
VERTEX
  8
0
 10
-0.4750
 20
-0.2379
 30
0.0000
 42
1.0000
  0
VERTEX
  8
0
 10
-0.4250
 20
-0.2379
 30
0.0000
  0
SEQEND
  8
0
  0
ENDBLK
  8
0
  0
BLOCK
  8
0
  2
OCTAGONV
 70
64
 10
0.0000
 20
0.0000
 30
0.0000
  3
OCTAGONV
  0
POLYLINE
  8
0
 66
1
 10
0.0000
 20
0.0000
 30
0.0000
 40
0.5000
 41
0.5000
 70
0
  0
VERTEX
  8
0
 10
-0.2500
 20
-0.1036
 30
0.0000
  0
VERTEX
  8
0
 10
-0.2500
 20
0.1036
 30
0.0000
  0
VERTEX
  8
0
 10
-0.1036
 20
0.2500
 30
0.0000
  0
VERTEX
  8
0
 10
0.1036
 20
0.2500
 30
0.0000
  0
VERTEX
  8
0
 10
0.2500
 20
0.1036
 30
0.0000
  0
VERTEX
  8
0
 10
0.2500
 20
-0.1036
 30
0.0000
  0
VERTEX
  8
0
 10
0.1036
 20
-0.2500
 30
0.0000
  0
VERTEX
  8
0
 10
-0.1036
 20
-0.2500
 30
0.0000
  0
VERTEX
  8
0
 10
-0.2500
 20
-0.1036
 30
0.0000
  0
VERTEX
  8
0
 10
-0.2500
 20
0.1036
 30
0.0000
  0
SEQEND
  8
0
  0
ENDBLK
  8
0
  0
BLOCK
  8
0
  2
SQUAREV
 70
64
 10
0.0000
 20
0.0000
 30
0.0000
  3
SQUAREV
  0
SOLID
  8
0
 10
-0.5000
 20
-0.5000
 30
0.0000
 11
0.5000
 21
-0.5000
 31
0.0000
 12
-0.5000
 22
0.5000
 32
0.0000
 13
0.5000
 23
0.5000
 33
0.0000
  0
ENDBLK
  8
0
  0
BLOCK
  8
0
  2
ROUNDV
 70
64
 10
0.0000
 20
0.0000
 30
0.0000
  3
ROUNDV
  0
POLYLINE
  8
0
 66
1
 10
0.0000
 20
0.0000
 30
0.0000
 40
0.5000
 41
0.5000
 70
0
  0
VERTEX
  8
0
 10
0.0000
 20
-0.2500
 30
0.0000
 42
1.0000
  0
VERTEX
  8
0
 10
0.0000
 20
0.2500
 30
0.0000
 42
1.0000
  0
VERTEX
  8
0
 10
0.0000
 20
-0.2500
 30
0.0000
  0
SEQEND
  8
0
  0
ENDBLK
  8
0
  0
BLOCK
  8
0
  2
ANNULUSV
 70
64
 10
0.0000
 20
0.0000
 30
0.0000
  3
ANNULUSV
  0
POLYLINE
  8
0
 66
1
 10
0.0000
 20
0.0000
 30
0.0000
 40
0.5000
 41
0.5000
 70
0
  0
VERTEX
  8
0
 10
0.0000
 20
-0.2500
 30
0.0000
 42
1.0000
  0
VERTEX
  8
0
 10
0.0000
 20
0.2500
 30
0.0000
 42
1.0000
  0
VERTEX
  8
0
 10
0.0000
 20
-0.2500
 30
0.0000
  0
SEQEND
  8
0
  0
ENDBLK
  8
0
  0
BLOCK
  8
0
  2
THERMALV
 70
64
 10
0.0000
 20
0.0000
 30
0.0000
  3
THERMALV
  0
POLYLINE
  8
0
 66
1
 10
0.0000
 20
0.0000
 30
0.0000
 40
0.1000
 41
0.1000
 70
0
  0
VERTEX
  8
0
 10
-0.2379
 20
0.4500
 30
0.0000
  0
VERTEX
  8
0
 10
0.2379
 20
0.4500
 30
0.0000
  0
SEQEND
  8
0
  0
POLYLINE
  8
0
 66
1
 10
0.0000
 20
0.0000
 30
0.0000
 40
0.0500
 41
0.0500
 70
0
  0
VERTEX
  8
0
 10
0.2379
 20
0.4250
 30
0.0000
 42
1.0000
  0
VERTEX
  8
0
 10
0.2379
 20
0.4750
 30
0.0000
  0
SEQEND
  8
0
  0
POLYLINE
  8
0
 66
1
 10
0.0000
 20
0.0000
 30
0.0000
 40
0.0500
 41
0.0500
 70
0
  0
VERTEX
  8
0
 10
-0.2379
 20
0.4750
 30
0.0000
 42
1.0000
  0
VERTEX
  8
0
 10
-0.2379
 20
0.4250
 30
0.0000
  0
SEQEND
  8
0
  0
POLYLINE
  8
0
 66
1
 10
0.0000
 20
0.0000
 30
0.0000
 40
0.1000
 41
0.1000
 70
0
  0
VERTEX
  8
0
 10
0.4500
 20
0.2379
 30
0.0000
  0
VERTEX
  8
0
 10
0.4500
 20
-0.2379
 30
0.0000
  0
SEQEND
  8
0
  0
POLYLINE
  8
0
 66
1
 10
0.0000
 20
0.0000
 30
0.0000
 40
0.0500
 41
0.0500
 70
0
  0
VERTEX
  8
0
 10
0.4250
 20
-0.2379
 30
0.0000
 42
1.0000
  0
VERTEX
  8
0
 10
0.4750
 20
-0.2379
 30
0.0000
  0
SEQEND
  8
0
  0
POLYLINE
  8
0
 66
1
 10
0.0000
 20
0.0000
 30
0.0000
 40
0.0500
 41
0.0500
 70
0
  0
VERTEX
  8
0
 10
0.4750
 20
0.2379
 30
0.0000
 42
1.0000
  0
VERTEX
  8
0
 10
0.4250
 20
0.2379
 30
0.0000
  0
SEQEND
  8
0
  0
POLYLINE
  8
0
 66
1
 10
0.0000
 20
0.0000
 30
0.0000
 40
0.1000
 41
0.1000
 70
0
  0
VERTEX
  8
0
 10
0.2379
 20
-0.4500
 30
0.0000
  0
VERTEX
  8
0
 10
-0.2379
 20
-0.4500
 30
0.0000
  0
SEQEND
  8
0
  0
POLYLINE
  8
0
 66
1
 10
0.0000
 20
0.0000
 30
0.0000
 40
0.0500
 41
0.0500
 70
0
  0
VERTEX
  8
0
 10
-0.2379
 20
-0.4250
 30
0.0000
 42
1.0000
  0
VERTEX
  8
0
 10
-0.2379
 20
-0.4750
 30
0.0000
  0
SEQEND
  8
0
  0
POLYLINE
  8
0
 66
1
 10
0.0000
 20
0.0000
 30
0.0000
 40
0.0500
 41
0.0500
 70
0
  0
VERTEX
  8
0
 10
0.2379
 20
-0.4750
 30
0.0000
 42
1.0000
  0
VERTEX
  8
0
 10
0.2379
 20
-0.4250
 30
0.0000
  0
SEQEND
  8
0
  0
POLYLINE
  8
0
 66
1
 10
0.0000
 20
0.0000
 30
0.0000
 40
0.1000
 41
0.1000
 70
0
  0
VERTEX
  8
0
 10
-0.4500
 20
-0.2379
 30
0.0000
  0
VERTEX
  8
0
 10
-0.4500
 20
0.2379
 30
0.0000
  0
SEQEND
  8
0
  0
POLYLINE
  8
0
 66
1
 10
0.0000
 20
0.0000
 30
0.0000
 40
0.0500
 41
0.0500
 70
0
  0
VERTEX
  8
0
 10
-0.4250
 20
0.2379
 30
0.0000
 42
1.0000
  0
VERTEX
  8
0
 10
-0.4750
 20
0.2379
 30
0.0000
  0
SEQEND
  8
0
  0
POLYLINE
  8
0
 66
1
 10
0.0000
 20
0.0000
 30
0.0000
 40
0.0500
 41
0.0500
 70
0
  0
VERTEX
  8
0
 10
-0.4750
 20
-0.2379
 30
0.0000
 42
1.0000
  0
VERTEX
  8
0
 10
-0.4250
 20
-0.2379
 30
0.0000
  0
SEQEND
  8
0
  0
ENDBLK
  8
0
  0
ENDSEC
  0
SECTION
  2
ENTITIES
  0
LINE
  8
20
 10
23.8942
 20
-0.2976
 30
0.0000
 11
27.1090
 21
-3.5124
 31
0.0000
  0
ARC
  8
20
 10
27.8274
 20
-2.7940
 30
0.0000
 40
1.0160
 50
225.0001
 51
270.0000
  0
LINE
  8
20
 10
27.8274
 20
-3.8100
 30
0.0000
 11
32.7406
 21
-3.8100
 31
0.0000
  0
ARC
  8
20
 10
32.7406
 20
-2.7940
 30
0.0000
 40
1.0160
 50
270.0000
 51
0.0000
  0
LINE
  8
20
 10
33.7566
 20
-2.7940
 30
0.0000
 11
33.7566
 21
14.4128
 31
0.0000
  0
LINE
  8
20
 10
23.1758
 20
0.0000
 30
0.0000
 11
-23.1758
 21
0.0000
 31
0.0000
  0
LINE
  8
20
 10
-32.7406
 20
-3.8100
 30
0.0000
 11
-27.8274
 21
-3.8100
 31
0.0000
  0
ARC
  8
20
 10
-27.8274
 20
-2.7940
 30
0.0000
 40
1.0160
 50
270.0000
 51
314.9999
  0
ARC
  8
20
 10
-23.1758
 20
-1.0160
 30
0.0000
 40
1.0160
 50
90.0000
 51
134.9999
  0
LINE
  8
20
 10
-23.8942
 20
-0.2976
 30
0.0000
 11
-27.1090
 21
-3.5124
 31
0.0000
  0
ARC
  8
20
 10
-32.7406
 20
-2.7940
 30
0.0000
 40
1.0160
 50
180.0000
 51
270.0000
  0
LINE
  8
20
 10
-33.7566
 20
-2.7940
 30
0.0000
 11
-33.7566
 21
14.4128
 31
0.0000
  0
ARC
  8
20
 10
0.0000
 20
-46.7387
 30
0.0000
 40
69.8500
 50
61.1006
 51
118.8994
  0
ARC
  8
20
 10
23.1758
 20
-1.0160
 30
0.0000
 40
1.0160
 50
45.0001
 51
90.0000
  0
POINT
  8
23
 10
27.9400
 20
8.8900
 30
0.0000
  0
INSERT
  8
39
  2
RECT
 10
27.9400
 20
8.8900
 30
0.0000
 41
5.5880
 42
5.5880
 43
1.0000
 50
180.0000
  0
POLYLINE
  8
25
 66
1
 10
0.0000
 20
0.0000
 30
0.0000
 40
0.0762
 41
0.0762
 70
0
  0
VERTEX
  8
25
 10
27.3574
 20
5.3213
 30
0.0000
  0
VERTEX
  8
25
 10
27.3574
 20
6.0579
 30
0.0000
  0
SEQEND
  8
0
  0
POLYLINE
  8
25
 66
1
 10
0.0000
 20
0.0000
 30
0.0000
 40
0.0381
 41
0.0381
 70
0
  0
VERTEX
  8
25
 10
27.3765
 20
6.0579
 30
0.0000
 42
1.0000
  0
VERTEX
  8
25
 10
27.3384
 20
6.0579
 30
0.0000
  0
SEQEND
  8
0
  0
POLYLINE
  8
25
 66
1
 10
0.0000
 20
0.0000
 30
0.0000
 40
0.0381
 41
0.0381
 70
0
  0
VERTEX
  8
25
 10
27.3384
 20
5.3213
 30
0.0000
 42
1.0000
  0
VERTEX
  8
25
 10
27.3765
 20
5.3213
 30
0.0000
  0
SEQEND
  8
0
  0
POLYLINE
  8
25
 66
1
 10
0.0000
 20
0.0000
 30
0.0000
 40
0.0762
 41
0.0762
 70
0
  0
VERTEX
  8
25
 10
27.3574
 20
6.0579
 30
0.0000
  0
VERTEX
  8
25
 10
27.5620
 20
6.0579
 30
0.0000
  0
SEQEND
  8
0
  0
POLYLINE
  8
25
 66
1
 10
0.0000
 20
0.0000
 30
0.0000
 40
0.0381
 41
0.0381
 70
0
  0
VERTEX
  8
25
 10
27.5620
 20
6.0389
 30
0.0000
 42
1.0000
  0
VERTEX
  8
25
 10
27.5620
 20
6.0770
 30
0.0000
  0
SEQEND
  8
0
  0
POLYLINE
  8
25
 66
1
 10
0.0000
 20
0.0000
 30
0.0000
 40
0.0381
 41
0.0381
 70
0
  0
VERTEX
  8
25
 10
27.3574
 20
6.0770
 30
0.0000
 42
1.0000
  0
VERTEX
  8
25
 10
27.3574
 20
6.0389
 30
0.0000
  0
SEQEND
  8
0
  0
POLYLINE
  8
25
 66
1
 10
0.0000
 20
0.0000
 30
0.0000
 40
0.0762
 41
0.0762
 70
0
  0
VERTEX
  8
25
 10
27.7667
 20
5.8533
 30
0.0000
 42
0.4142
  0
VERTEX
  8
25
 10
27.5620
 20
6.0579
 30
0.0000
  0
SEQEND
  8
0
  0
POLYLINE
  8
25
 66
1
 10
0.0000
 20
0.0000
 30
0.0000
 40
0.0381
 41
0.0381
 70
0
  0
VERTEX
  8
25
 10
27.7476
 20
5.8533
 30
0.0000
 42
1.0000
  0
VERTEX
  8
25
 10
27.7857
 20
5.8533
 30
0.0000
  0
SEQEND
  8
0
  0
POLYLINE
  8
25
 66
1
 10
0.0000
 20
0.0000
 30
0.0000
 40
0.0381
 41
0.0381
 70
0
  0
VERTEX
  8
25
 10
27.5620
 20
6.0770
 30
0.0000
 42
1.0000
  0
VERTEX
  8
25
 10
27.5620
 20
6.0389
 30
0.0000
  0
SEQEND
  8
0
  0
POLYLINE
  8
25
 66
1
 10
0.0000
 20
0.0000
 30
0.0000
 40
0.0762
 41
0.0762
 70
0
  0
VERTEX
  8
25
 10
27.7667
 20
5.8533
 30
0.0000
  0
VERTEX
  8
25
 10
27.7667
 20
5.5259
 30
0.0000
  0
SEQEND
  8
0
  0
POLYLINE
  8
25
 66
1
 10
0.0000
 20
0.0000
 30
0.0000
 40
0.0381
 41
0.0381
 70
0
  0
VERTEX
  8
25
 10
27.7476
 20
5.5259
 30
0.0000
 42
1.0000
  0
VERTEX
  8
25
 10
27.7857
 20
5.5259
 30
0.0000
  0
SEQEND
  8
0
  0
POLYLINE
  8
25
 66
1
 10
0.0000
 20
0.0000
 30
0.0000
 40
0.0381
 41
0.0381
 70
0
  0
VERTEX
  8
25
 10
27.7857
 20
5.8533
 30
0.0000
 42
1.0000
  0
VERTEX
  8
25
 10
27.7476
 20
5.8533
 30
0.0000
  0
SEQEND
  8
0
  0
POLYLINE
  8
25
 66
1
 10
0.0000
 20
0.0000
 30
0.0000
 40
0.0762
 41
0.0762
 70
0
  0
VERTEX
  8
25
 10
27.5620
 20
5.3213
 30
0.0000
 42
0.4142
  0
VERTEX
  8
25
 10
27.7667
 20
5.5259
 30
0.0000
  0
SEQEND
  8
0
  0
POLYLINE
  8
25
 66
1
 10
0.0000
 20
0.0000
 30
0.0000
 40
0.0381
 41
0.0381
 70
0
  0
VERTEX
  8
25
 10
27.5620
 20
5.3403
 30
0.0000
 42
1.0000
  0
VERTEX
  8
25
 10
27.5620
 20
5.3023
 30
0.0000
  0
SEQEND
  8
0
  0
POLYLINE
  8
25
 66
1
 10
0.0000
 20
0.0000
 30
0.0000
 40
0.0381
 41
0.0381
 70
0
  0
VERTEX
  8
25
 10
27.7857
 20
5.5259
 30
0.0000
 42
1.0000
  0
VERTEX
  8
25
 10
27.7476
 20
5.5259
 30
0.0000
  0
SEQEND
  8
0
  0
POLYLINE
  8
25
 66
1
 10
0.0000
 20
0.0000
 30
0.0000
 40
0.0762
 41
0.0762
 70
0
  0
VERTEX
  8
25
 10
27.5620
 20
5.3213
 30
0.0000
  0
VERTEX
  8
25
 10
27.3574
 20
5.3213
 30
0.0000
  0
SEQEND
  8
0
  0
POLYLINE
  8
25
 66
1
 10
0.0000
 20
0.0000
 30
0.0000
 40
0.0381
 41
0.0381
 70
0
  0
VERTEX
  8
25
 10
27.3574
 20
5.3403
 30
0.0000
 42
1.0000
  0
VERTEX
  8
25
 10
27.3574
 20
5.3022
 30
0.0000
  0
SEQEND
  8
0
  0
POLYLINE
  8
25
 66
1
 10
0.0000
 20
0.0000
 30
0.0000
 40
0.0381
 41
0.0381
 70
0
  0
VERTEX
  8
25
 10
27.5620
 20
5.3022
 30
0.0000
 42
1.0000
  0
VERTEX
  8
25
 10
27.5620
 20
5.3403
 30
0.0000
  0
SEQEND
  8
0
  0
POLYLINE
  8
25
 66
1
 10
0.0000
 20
0.0000
 30
0.0000
 40
0.0762
 41
0.0762
 70
0
  0
VERTEX
  8
25
 10
28.1133
 20
5.8942
 30
0.0000
  0
VERTEX
  8
25
 10
28.3179
 20
6.0579
 30
0.0000
  0
SEQEND
  8
0
  0
POLYLINE
  8
25
 66
1
 10
0.0000
 20
0.0000
 30
0.0000
 40
0.0381
 41
0.0381
 70
0
  0
VERTEX
  8
25
 10
28.3299
 20
6.0430
 30
0.0000
 42
1.0000
  0
VERTEX
  8
25
 10
28.3060
 20
6.0728
 30
0.0000
  0
SEQEND
  8
0
  0
POLYLINE
  8
25
 66
1
 10
0.0000
 20
0.0000
 30
0.0000
 40
0.0381
 41
0.0381
 70
0
  0
VERTEX
  8
25
 10
28.1014
 20
5.9091
 30
0.0000
 42
1.0000
  0
VERTEX
  8
25
 10
28.1252
 20
5.8793
 30
0.0000
  0
SEQEND
  8
0
  0
POLYLINE
  8
25
 66
1
 10
0.0000
 20
0.0000
 30
0.0000
 40
0.0762
 41
0.0762
 70
0
  0
VERTEX
  8
25
 10
28.3179
 20
6.0579
 30
0.0000
  0
VERTEX
  8
25
 10
28.3179
 20
5.3213
 30
0.0000
  0
SEQEND
  8
0
  0
POLYLINE
  8
25
 66
1
 10
0.0000
 20
0.0000
 30
0.0000
 40
0.0381
 41
0.0381
 70
0
  0
VERTEX
  8
25
 10
28.2989
 20
5.3213
 30
0.0000
 42
1.0000
  0
VERTEX
  8
25
 10
28.3370
 20
5.3213
 30
0.0000
  0
SEQEND
  8
0
  0
POLYLINE
  8
25
 66
1
 10
0.0000
 20
0.0000
 30
0.0000
 40
0.0381
 41
0.0381
 70
0
  0
VERTEX
  8
25
 10
28.3370
 20
6.0579
 30
0.0000
 42
1.0000
  0
VERTEX
  8
25
 10
28.2989
 20
6.0579
 30
0.0000
  0
SEQEND
  8
0
  0
POLYLINE
  8
25
 66
1
 10
0.0000
 20
0.0000
 30
0.0000
 40
0.0762
 41
0.0762
 70
0
  0
VERTEX
  8
25
 10
28.1133
 20
5.3213
 30
0.0000
  0
VERTEX
  8
25
 10
28.5226
 20
5.3213
 30
0.0000
  0
SEQEND
  8
0
  0
POLYLINE
  8
25
 66
1
 10
0.0000
 20
0.0000
 30
0.0000
 40
0.0381
 41
0.0381
 70
0
  0
VERTEX
  8
25
 10
28.5226
 20
5.3022
 30
0.0000
 42
1.0000
  0
VERTEX
  8
25
 10
28.5226
 20
5.3403
 30
0.0000
  0
SEQEND
  8
0
  0
POLYLINE
  8
25
 66
1
 10
0.0000
 20
0.0000
 30
0.0000
 40
0.0381
 41
0.0381
 70
0
  0
VERTEX
  8
25
 10
28.1133
 20
5.3403
 30
0.0000
 42
1.0000
  0
VERTEX
  8
25
 10
28.1133
 20
5.3022
 30
0.0000
  0
SEQEND
  8
0
  0
POINT
  8
24
 10
17.2720
 20
8.8900
 30
0.0000
  0
INSERT
  8
40
  2
RECT
 10
17.2720
 20
8.8900
 30
0.0000
 41
5.5880
 42
5.5880
 43
1.0000
 50
180.0000
  0
POLYLINE
  8
26
 66
1
 10
0.0000
 20
0.0000
 30
0.0000
 40
0.0762
 41
0.0762
 70
0
  0
VERTEX
  8
26
 10
17.8546
 20
11.7221
 30
0.0000
  0
VERTEX
  8
26
 10
17.8546
 20
12.4587
 30
0.0000
  0
SEQEND
  8
0
  0
POLYLINE
  8
26
 66
1
 10
0.0000
 20
0.0000
 30
0.0000
 40
0.0381
 41
0.0381
 70
0
  0
VERTEX
  8
26
 10
17.8736
 20
12.4587
 30
0.0000
 42
1.0000
  0
VERTEX
  8
26
 10
17.8355
 20
12.4587
 30
0.0000
  0
SEQEND
  8
0
  0
POLYLINE
  8
26
 66
1
 10
0.0000
 20
0.0000
 30
0.0000
 40
0.0381
 41
0.0381
 70
0
  0
VERTEX
  8
26
 10
17.8355
 20
11.7221
 30
0.0000
 42
1.0000
  0
VERTEX
  8
26
 10
17.8736
 20
11.7221
 30
0.0000
  0
SEQEND
  8
0
  0
POLYLINE
  8
26
 66
1
 10
0.0000
 20
0.0000
 30
0.0000
 40
0.0762
 41
0.0762
 70
0
  0
VERTEX
  8
26
 10
17.8546
 20
12.4587
 30
0.0000
  0
VERTEX
  8
26
 10
17.6500
 20
12.4587
 30
0.0000
  0
SEQEND
  8
0
  0
POLYLINE
  8
26
 66
1
 10
0.0000
 20
0.0000
 30
0.0000
 40
0.0381
 41
0.0381
 70
0
  0
VERTEX
  8
26
 10
17.6500
 20
12.4778
 30
0.0000
 42
1.0000
  0
VERTEX
  8
26
 10
17.6500
 20
12.4397
 30
0.0000
  0
SEQEND
  8
0
  0
POLYLINE
  8
26
 66
1
 10
0.0000
 20
0.0000
 30
0.0000
 40
0.0381
 41
0.0381
 70
0
  0
VERTEX
  8
26
 10
17.8546
 20
12.4397
 30
0.0000
 42
1.0000
  0
VERTEX
  8
26
 10
17.8546
 20
12.4778
 30
0.0000
  0
SEQEND
  8
0
  0
POLYLINE
  8
26
 66
1
 10
0.0000
 20
0.0000
 30
0.0000
 40
0.0762
 41
0.0762
 70
0
  0
VERTEX
  8
26
 10
17.6500
 20
12.4587
 30
0.0000
 42
0.4142
  0
VERTEX
  8
26
 10
17.4453
 20
12.2541
 30
0.0000
  0
SEQEND
  8
0
  0
POLYLINE
  8
26
 66
1
 10
0.0000
 20
0.0000
 30
0.0000
 40
0.0381
 41
0.0381
 70
0
  0
VERTEX
  8
26
 10
17.6500
 20
12.4397
 30
0.0000
 42
1.0000
  0
VERTEX
  8
26
 10
17.6500
 20
12.4778
 30
0.0000
  0
SEQEND
  8
0
  0
POLYLINE
  8
26
 66
1
 10
0.0000
 20
0.0000
 30
0.0000
 40
0.0381
 41
0.0381
 70
0
  0
VERTEX
  8
26
 10
17.4263
 20
12.2541
 30
0.0000
 42
1.0000
  0
VERTEX
  8
26
 10
17.4644
 20
12.2541
 30
0.0000
  0
SEQEND
  8
0
  0
POLYLINE
  8
26
 66
1
 10
0.0000
 20
0.0000
 30
0.0000
 40
0.0762
 41
0.0762
 70
0
  0
VERTEX
  8
26
 10
17.4453
 20
12.2541
 30
0.0000
  0
VERTEX
  8
26
 10
17.4453
 20
11.9267
 30
0.0000
  0
SEQEND
  8
0
  0
POLYLINE
  8
26
 66
1
 10
0.0000
 20
0.0000
 30
0.0000
 40
0.0381
 41
0.0381
 70
0
  0
VERTEX
  8
26
 10
17.4263
 20
11.9267
 30
0.0000
 42
1.0000
  0
VERTEX
  8
26
 10
17.4644
 20
11.9267
 30
0.0000
  0
SEQEND
  8
0
  0
POLYLINE
  8
26
 66
1
 10
0.0000
 20
0.0000
 30
0.0000
 40
0.0381
 41
0.0381
 70
0
  0
VERTEX
  8
26
 10
17.4644
 20
12.2541
 30
0.0000
 42
1.0000
  0
VERTEX
  8
26
 10
17.4263
 20
12.2541
 30
0.0000
  0
SEQEND
  8
0
  0
POLYLINE
  8
26
 66
1
 10
0.0000
 20
0.0000
 30
0.0000
 40
0.0762
 41
0.0762
 70
0
  0
VERTEX
  8
26
 10
17.4453
 20
11.9267
 30
0.0000
 42
0.4142
  0
VERTEX
  8
26
 10
17.6500
 20
11.7221
 30
0.0000
  0
SEQEND
  8
0
  0
POLYLINE
  8
26
 66
1
 10
0.0000
 20
0.0000
 30
0.0000
 40
0.0381
 41
0.0381
 70
0
  0
VERTEX
  8
26
 10
17.4644
 20
11.9267
 30
0.0000
 42
1.0000
  0
VERTEX
  8
26
 10
17.4263
 20
11.9267
 30
0.0000
  0
SEQEND
  8
0
  0
POLYLINE
  8
26
 66
1
 10
0.0000
 20
0.0000
 30
0.0000
 40
0.0381
 41
0.0381
 70
0
  0
VERTEX
  8
26
 10
17.6500
 20
11.7030
 30
0.0000
 42
1.0000
  0
VERTEX
  8
26
 10
17.6500
 20
11.7411
 30
0.0000
  0
SEQEND
  8
0
  0
POLYLINE
  8
26
 66
1
 10
0.0000
 20
0.0000
 30
0.0000
 40
0.0762
 41
0.0762
 70
0
  0
VERTEX
  8
26
 10
17.6500
 20
11.7221
 30
0.0000
  0
VERTEX
  8
26
 10
17.8546
 20
11.7221
 30
0.0000
  0
SEQEND
  8
0
  0
POLYLINE
  8
26
 66
1
 10
0.0000
 20
0.0000
 30
0.0000
 40
0.0381
 41
0.0381
 70
0
  0
VERTEX
  8
26
 10
17.8546
 20
11.7031
 30
0.0000
 42
1.0000
  0
VERTEX
  8
26
 10
17.8546
 20
11.7412
 30
0.0000
  0
SEQEND
  8
0
  0
POLYLINE
  8
26
 66
1
 10
0.0000
 20
0.0000
 30
0.0000
 40
0.0381
 41
0.0381
 70
0
  0
VERTEX
  8
26
 10
17.6500
 20
11.7412
 30
0.0000
 42
1.0000
  0
VERTEX
  8
26
 10
17.6500
 20
11.7031
 30
0.0000
  0
SEQEND
  8
0
  0
POLYLINE
  8
26
 66
1
 10
0.0000
 20
0.0000
 30
0.0000
 40
0.0762
 41
0.0762
 70
0
  0
VERTEX
  8
26
 10
16.8736
 20
12.4587
 30
0.0000
 42
0.4142
  0
VERTEX
  8
26
 10
16.6894
 20
12.2746
 30
0.0000
  0
SEQEND
  8
0
  0
POLYLINE
  8
26
 66
1
 10
0.0000
 20
0.0000
 30
0.0000
 40
0.0381
 41
0.0381
 70
0
  0
VERTEX
  8
26
 10
16.8736
 20
12.4397
 30
0.0000
 42
1.0000
  0
VERTEX
  8
26
 10
16.8736
 20
12.4778
 30
0.0000
  0
SEQEND
  8
0
  0
POLYLINE
  8
26
 66
1
 10
0.0000
 20
0.0000
 30
0.0000
 40
0.0381
 41
0.0381
 70
0
  0
VERTEX
  8
26
 10
16.6704
 20
12.2746
 30
0.0000
 42
1.0000
  0
VERTEX
  8
26
 10
16.7085
 20
12.2746
 30
0.0000
  0
SEQEND
  8
0
  0
POLYLINE
  8
26
 66
1
 10
0.0000
 20
0.0000
 30
0.0000
 40
0.0762
 41
0.0762
 70
0
  0
VERTEX
  8
26
 10
17.0987
 20
12.2950
 30
0.0000
 42
0.3252
  0
VERTEX
  8
26
 10
16.8736
 20
12.4587
 30
0.0000
  0
SEQEND
  8
0
  0
POLYLINE
  8
26
 66
1
 10
0.0000
 20
0.0000
 30
0.0000
 40
0.0381
 41
0.0381
 70
0
  0
VERTEX
  8
26
 10
17.0805
 20
12.2891
 30
0.0000
 42
1.0000
  0
VERTEX
  8
26
 10
17.1168
 20
12.3009
 30
0.0000
  0
SEQEND
  8
0
  0
POLYLINE
  8
26
 66
1
 10
0.0000
 20
0.0000
 30
0.0000
 40
0.0381
 41
0.0381
 70
0
  0
VERTEX
  8
26
 10
16.8736
 20
12.4777
 30
0.0000
 42
1.0000
  0
VERTEX
  8
26
 10
16.8736
 20
12.4397
 30
0.0000
  0
SEQEND
  8
0
  0
POLYLINE
  8
26
 66
1
 10
0.0000
 20
0.0000
 30
0.0000
 40
0.0762
 41
0.0762
 70
0
  0
VERTEX
  8
26
 10
16.6894
 20
12.2746
 30
0.0000
 42
0.2053
  0
VERTEX
  8
26
 10
16.7508
 20
12.1313
 30
0.0000
  0
SEQEND
  8
0
  0
POLYLINE
  8
26
 66
1
 10
0.0000
 20
0.0000
 30
0.0000
 40
0.0381
 41
0.0381
 70
0
  0
VERTEX
  8
26
 10
16.7085
 20
12.2746
 30
0.0000
 42
1.0000
  0
VERTEX
  8
26
 10
16.6704
 20
12.2745
 30
0.0000
  0
SEQEND
  8
0
  0
POLYLINE
  8
26
 66
1
 10
0.0000
 20
0.0000
 30
0.0000
 40
0.0381
 41
0.0381
 70
0
  0
VERTEX
  8
26
 10
16.7377
 20
12.1175
 30
0.0000
 42
1.0000
  0
VERTEX
  8
26
 10
16.7640
 20
12.1451
 30
0.0000
  0
SEQEND
  8
0
  0
POLYLINE
  8
26
 66
1
 10
0.0000
 20
0.0000
 30
0.0000
 40
0.0762
 41
0.0762
 70
0
  0
VERTEX
  8
26
 10
16.7508
 20
12.1313
 30
0.0000
  0
VERTEX
  8
26
 10
17.0987
 20
11.7221
 30
0.0000
  0
SEQEND
  8
0
  0
POLYLINE
  8
26
 66
1
 10
0.0000
 20
0.0000
 30
0.0000
 40
0.0381
 41
0.0381
 70
0
  0
VERTEX
  8
26
 10
17.0841
 20
11.7098
 30
0.0000
 42
1.0000
  0
VERTEX
  8
26
 10
17.1132
 20
11.7344
 30
0.0000
  0
SEQEND
  8
0
  0
POLYLINE
  8
26
 66
1
 10
0.0000
 20
0.0000
 30
0.0000
 40
0.0381
 41
0.0381
 70
0
  0
VERTEX
  8
26
 10
16.7653
 20
12.1437
 30
0.0000
 42
1.0000
  0
VERTEX
  8
26
 10
16.7363
 20
12.1190
 30
0.0000
  0
SEQEND
  8
0
  0
POLYLINE
  8
26
 66
1
 10
0.0000
 20
0.0000
 30
0.0000
 40
0.0762
 41
0.0762
 70
0
  0
VERTEX
  8
26
 10
17.0987
 20
11.7221
 30
0.0000
  0
VERTEX
  8
26
 10
16.6894
 20
11.7221
 30
0.0000
  0
SEQEND
  8
0
  0
POLYLINE
  8
26
 66
1
 10
0.0000
 20
0.0000
 30
0.0000
 40
0.0381
 41
0.0381
 70
0
  0
VERTEX
  8
26
 10
16.6894
 20
11.7412
 30
0.0000
 42
1.0000
  0
VERTEX
  8
26
 10
16.6894
 20
11.7031
 30
0.0000
  0
SEQEND
  8
0
  0
POLYLINE
  8
26
 66
1
 10
0.0000
 20
0.0000
 30
0.0000
 40
0.0381
 41
0.0381
 70
0
  0
VERTEX
  8
26
 10
17.0987
 20
11.7031
 30
0.0000
 42
1.0000
  0
VERTEX
  8
26
 10
17.0987
 20
11.7412
 30
0.0000
  0
SEQEND
  8
0
  0
POINT
  8
24
 10
-17.2720
 20
8.8900
 30
0.0000
  0
INSERT
  8
40
  2
RECT
 10
-17.2720
 20
8.8900
 30
0.0000
 41
5.5880
 42
5.5880
 43
1.0000
 50
0.0000
  0
POLYLINE
  8
26
 66
1
 10
0.0000
 20
0.0000
 30
0.0000
 40
0.0762
 41
0.0762
 70
0
  0
VERTEX
  8
26
 10
-16.6894
 20
5.3213
 30
0.0000
  0
VERTEX
  8
26
 10
-16.6894
 20
6.0579
 30
0.0000
  0
SEQEND
  8
0
  0
POLYLINE
  8
26
 66
1
 10
0.0000
 20
0.0000
 30
0.0000
 40
0.0381
 41
0.0381
 70
0
  0
VERTEX
  8
26
 10
-16.6704
 20
6.0579
 30
0.0000
 42
1.0000
  0
VERTEX
  8
26
 10
-16.7085
 20
6.0579
 30
0.0000
  0
SEQEND
  8
0
  0
POLYLINE
  8
26
 66
1
 10
0.0000
 20
0.0000
 30
0.0000
 40
0.0381
 41
0.0381
 70
0
  0
VERTEX
  8
26
 10
-16.7085
 20
5.3213
 30
0.0000
 42
1.0000
  0
VERTEX
  8
26
 10
-16.6704
 20
5.3213
 30
0.0000
  0
SEQEND
  8
0
  0
POLYLINE
  8
26
 66
1
 10
0.0000
 20
0.0000
 30
0.0000
 40
0.0762
 41
0.0762
 70
0
  0
VERTEX
  8
26
 10
-16.6894
 20
6.0579
 30
0.0000
  0
VERTEX
  8
26
 10
-16.8940
 20
6.0579
 30
0.0000
  0
SEQEND
  8
0
  0
POLYLINE
  8
26
 66
1
 10
0.0000
 20
0.0000
 30
0.0000
 40
0.0381
 41
0.0381
 70
0
  0
VERTEX
  8
26
 10
-16.8940
 20
6.0770
 30
0.0000
 42
1.0000
  0
VERTEX
  8
26
 10
-16.8940
 20
6.0389
 30
0.0000
  0
SEQEND
  8
0
  0
POLYLINE
  8
26
 66
1
 10
0.0000
 20
0.0000
 30
0.0000
 40
0.0381
 41
0.0381
 70
0
  0
VERTEX
  8
26
 10
-16.6894
 20
6.0389
 30
0.0000
 42
1.0000
  0
VERTEX
  8
26
 10
-16.6894
 20
6.0770
 30
0.0000
  0
SEQEND
  8
0
  0
POLYLINE
  8
26
 66
1
 10
0.0000
 20
0.0000
 30
0.0000
 40
0.0762
 41
0.0762
 70
0
  0
VERTEX
  8
26
 10
-16.8940
 20
6.0579
 30
0.0000
 42
0.4142
  0
VERTEX
  8
26
 10
-17.0987
 20
5.8533
 30
0.0000
  0
SEQEND
  8
0
  0
POLYLINE
  8
26
 66
1
 10
0.0000
 20
0.0000
 30
0.0000
 40
0.0381
 41
0.0381
 70
0
  0
VERTEX
  8
26
 10
-16.8940
 20
6.0389
 30
0.0000
 42
1.0000
  0
VERTEX
  8
26
 10
-16.8940
 20
6.0770
 30
0.0000
  0
SEQEND
  8
0
  0
POLYLINE
  8
26
 66
1
 10
0.0000
 20
0.0000
 30
0.0000
 40
0.0381
 41
0.0381
 70
0
  0
VERTEX
  8
26
 10
-17.1177
 20
5.8533
 30
0.0000
 42
1.0000
  0
VERTEX
  8
26
 10
-17.0796
 20
5.8533
 30
0.0000
  0
SEQEND
  8
0
  0
POLYLINE
  8
26
 66
1
 10
0.0000
 20
0.0000
 30
0.0000
 40
0.0762
 41
0.0762
 70
0
  0
VERTEX
  8
26
 10
-17.0987
 20
5.8533
 30
0.0000
  0
VERTEX
  8
26
 10
-17.0987
 20
5.5259
 30
0.0000
  0
SEQEND
  8
0
  0
POLYLINE
  8
26
 66
1
 10
0.0000
 20
0.0000
 30
0.0000
 40
0.0381
 41
0.0381
 70
0
  0
VERTEX
  8
26
 10
-17.1177
 20
5.5259
 30
0.0000
 42
1.0000
  0
VERTEX
  8
26
 10
-17.0796
 20
5.5259
 30
0.0000
  0
SEQEND
  8
0
  0
POLYLINE
  8
26
 66
1
 10
0.0000
 20
0.0000
 30
0.0000
 40
0.0381
 41
0.0381
 70
0
  0
VERTEX
  8
26
 10
-17.0796
 20
5.8533
 30
0.0000
 42
1.0000
  0
VERTEX
  8
26
 10
-17.1177
 20
5.8533
 30
0.0000
  0
SEQEND
  8
0
  0
POLYLINE
  8
26
 66
1
 10
0.0000
 20
0.0000
 30
0.0000
 40
0.0762
 41
0.0762
 70
0
  0
VERTEX
  8
26
 10
-17.0987
 20
5.5259
 30
0.0000
 42
0.4142
  0
VERTEX
  8
26
 10
-16.8940
 20
5.3213
 30
0.0000
  0
SEQEND
  8
0
  0
POLYLINE
  8
26
 66
1
 10
0.0000
 20
0.0000
 30
0.0000
 40
0.0381
 41
0.0381
 70
0
  0
VERTEX
  8
26
 10
-17.0796
 20
5.5259
 30
0.0000
 42
1.0000
  0
VERTEX
  8
26
 10
-17.1177
 20
5.5259
 30
0.0000
  0
SEQEND
  8
0
  0
POLYLINE
  8
26
 66
1
 10
0.0000
 20
0.0000
 30
0.0000
 40
0.0381
 41
0.0381
 70
0
  0
VERTEX
  8
26
 10
-16.8940
 20
5.3023
 30
0.0000
 42
1.0000
  0
VERTEX
  8
26
 10
-16.8940
 20
5.3403
 30
0.0000
  0
SEQEND
  8
0
  0
POLYLINE
  8
26
 66
1
 10
0.0000
 20
0.0000
 30
0.0000
 40
0.0762
 41
0.0762
 70
0
  0
VERTEX
  8
26
 10
-16.8940
 20
5.3213
 30
0.0000
  0
VERTEX
  8
26
 10
-16.6894
 20
5.3213
 30
0.0000
  0
SEQEND
  8
0
  0
POLYLINE
  8
26
 66
1
 10
0.0000
 20
0.0000
 30
0.0000
 40
0.0381
 41
0.0381
 70
0
  0
VERTEX
  8
26
 10
-16.6894
 20
5.3022
 30
0.0000
 42
1.0000
  0
VERTEX
  8
26
 10
-16.6894
 20
5.3403
 30
0.0000
  0
SEQEND
  8
0
  0
POLYLINE
  8
26
 66
1
 10
0.0000
 20
0.0000
 30
0.0000
 40
0.0381
 41
0.0381
 70
0
  0
VERTEX
  8
26
 10
-16.8940
 20
5.3403
 30
0.0000
 42
1.0000
  0
VERTEX
  8
26
 10
-16.8940
 20
5.3022
 30
0.0000
  0
SEQEND
  8
0
  0
POLYLINE
  8
26
 66
1
 10
0.0000
 20
0.0000
 30
0.0000
 40
0.0762
 41
0.0762
 70
0
  0
VERTEX
  8
26
 10
-17.4453
 20
5.3213
 30
0.0000
  0
VERTEX
  8
26
 10
-17.6500
 20
5.3213
 30
0.0000
  0
SEQEND
  8
0
  0
POLYLINE
  8
26
 66
1
 10
0.0000
 20
0.0000
 30
0.0000
 40
0.0381
 41
0.0381
 70
0
  0
VERTEX
  8
26
 10
-17.6500
 20
5.3403
 30
0.0000
 42
1.0000
  0
VERTEX
  8
26
 10
-17.6500
 20
5.3022
 30
0.0000
  0
SEQEND
  8
0
  0
POLYLINE
  8
26
 66
1
 10
0.0000
 20
0.0000
 30
0.0000
 40
0.0381
 41
0.0381
 70
0
  0
VERTEX
  8
26
 10
-17.4453
 20
5.3022
 30
0.0000
 42
1.0000
  0
VERTEX
  8
26
 10
-17.4453
 20
5.3403
 30
0.0000
  0
SEQEND
  8
0
  0
POLYLINE
  8
26
 66
1
 10
0.0000
 20
0.0000
 30
0.0000
 40
0.0762
 41
0.0762
 70
0
  0
VERTEX
  8
26
 10
-17.6500
 20
5.7305
 30
0.0000
 42
1.0000
  0
VERTEX
  8
26
 10
-17.6500
 20
5.3213
 30
0.0000
  0
SEQEND
  8
0
  0
POLYLINE
  8
26
 66
1
 10
0.0000
 20
0.0000
 30
0.0000
 40
0.0381
 41
0.0381
 70
0
  0
VERTEX
  8
26
 10
-17.6500
 20
5.7115
 30
0.0000
 42
1.0000
  0
VERTEX
  8
26
 10
-17.6500
 20
5.7496
 30
0.0000
  0
SEQEND
  8
0
  0
POLYLINE
  8
26
 66
1
 10
0.0000
 20
0.0000
 30
0.0000
 40
0.0381
 41
0.0381
 70
0
  0
VERTEX
  8
26
 10
-17.6500
 20
5.3022
 30
0.0000
 42
1.0000
  0
VERTEX
  8
26
 10
-17.6500
 20
5.3403
 30
0.0000
  0
SEQEND
  8
0
  0
POLYLINE
  8
26
 66
1
 10
0.0000
 20
0.0000
 30
0.0000
 40
0.0762
 41
0.0762
 70
0
  0
VERTEX
  8
26
 10
-17.4453
 20
6.0579
 30
0.0000
  0
VERTEX
  8
26
 10
-17.6909
 20
6.0579
 30
0.0000
  0
SEQEND
  8
0
  0
POLYLINE
  8
26
 66
1
 10
0.0000
 20
0.0000
 30
0.0000
 40
0.0381
 41
0.0381
 70
0
  0
VERTEX
  8
26
 10
-17.6909
 20
6.0770
 30
0.0000
 42
1.0000
  0
VERTEX
  8
26
 10
-17.6909
 20
6.0389
 30
0.0000
  0
SEQEND
  8
0
  0
POLYLINE
  8
26
 66
1
 10
0.0000
 20
0.0000
 30
0.0000
 40
0.0381
 41
0.0381
 70
0
  0
VERTEX
  8
26
 10
-17.4453
 20
6.0389
 30
0.0000
 42
1.0000
  0
VERTEX
  8
26
 10
-17.4453
 20
6.0770
 30
0.0000
  0
SEQEND
  8
0
  0
POLYLINE
  8
26
 66
1
 10
0.0000
 20
0.0000
 30
0.0000
 40
0.0762
 41
0.0762
 70
0
  0
VERTEX
  8
26
 10
-17.6909
 20
6.0579
 30
0.0000
 42
1.0000
  0
VERTEX
  8
26
 10
-17.6909
 20
5.7305
 30
0.0000
  0
SEQEND
  8
0
  0
POLYLINE
  8
26
 66
1
 10
0.0000
 20
0.0000
 30
0.0000
 40
0.0381
 41
0.0381
 70
0
  0
VERTEX
  8
26
 10
-17.6909
 20
6.0389
 30
0.0000
 42
1.0000
  0
VERTEX
  8
26
 10
-17.6909
 20
6.0770
 30
0.0000
  0
SEQEND
  8
0
  0
POLYLINE
  8
26
 66
1
 10
0.0000
 20
0.0000
 30
0.0000
 40
0.0381
 41
0.0381
 70
0
  0
VERTEX
  8
26
 10
-17.6909
 20
5.7115
 30
0.0000
 42
1.0000
  0
VERTEX
  8
26
 10
-17.6909
 20
5.7496
 30
0.0000
  0
SEQEND
  8
0
  0
POLYLINE
  8
26
 66
1
 10
0.0000
 20
0.0000
 30
0.0000
 40
0.0762
 41
0.0762
 70
0
  0
VERTEX
  8
26
 10
-17.6909
 20
5.7305
 30
0.0000
  0
VERTEX
  8
26
 10
-17.5272
 20
5.7305
 30
0.0000
  0
SEQEND
  8
0
  0
POLYLINE
  8
26
 66
1
 10
0.0000
 20
0.0000
 30
0.0000
 40
0.0381
 41
0.0381
 70
0
  0
VERTEX
  8
26
 10
-17.5272
 20
5.7115
 30
0.0000
 42
1.0000
  0
VERTEX
  8
26
 10
-17.5272
 20
5.7496
 30
0.0000
  0
SEQEND
  8
0
  0
POLYLINE
  8
26
 66
1
 10
0.0000
 20
0.0000
 30
0.0000
 40
0.0381
 41
0.0381
 70
0
  0
VERTEX
  8
26
 10
-17.6909
 20
5.7496
 30
0.0000
 42
1.0000
  0
VERTEX
  8
26
 10
-17.6909
 20
5.7115
 30
0.0000
  0
SEQEND
  8
0
  0
POINT
  8
23
 10
-27.9400
 20
8.8900
 30
0.0000
  0
INSERT
  8
39
  2
RECT
 10
-27.9400
 20
8.8900
 30
0.0000
 41
5.5880
 42
5.5880
 43
1.0000
 50
0.0000
  0
POLYLINE
  8
25
 66
1
 10
0.0000
 20
0.0000
 30
0.0000
 40
0.0762
 41
0.0762
 70
0
  0
VERTEX
  8
25
 10
-28.5226
 20
11.7221
 30
0.0000
  0
VERTEX
  8
25
 10
-28.5226
 20
12.4587
 30
0.0000
  0
SEQEND
  8
0
  0
POLYLINE
  8
25
 66
1
 10
0.0000
 20
0.0000
 30
0.0000
 40
0.0381
 41
0.0381
 70
0
  0
VERTEX
  8
25
 10
-28.5035
 20
12.4587
 30
0.0000
 42
1.0000
  0
VERTEX
  8
25
 10
-28.5416
 20
12.4587
 30
0.0000
  0
SEQEND
  8
0
  0
POLYLINE
  8
25
 66
1
 10
0.0000
 20
0.0000
 30
0.0000
 40
0.0381
 41
0.0381
 70
0
  0
VERTEX
  8
25
 10
-28.5416
 20
11.7221
 30
0.0000
 42
1.0000
  0
VERTEX
  8
25
 10
-28.5035
 20
11.7221
 30
0.0000
  0
SEQEND
  8
0
  0
POLYLINE
  8
25
 66
1
 10
0.0000
 20
0.0000
 30
0.0000
 40
0.0762
 41
0.0762
 70
0
  0
VERTEX
  8
25
 10
-28.5226
 20
12.4587
 30
0.0000
  0
VERTEX
  8
25
 10
-28.3180
 20
12.4587
 30
0.0000
  0
SEQEND
  8
0
  0
POLYLINE
  8
25
 66
1
 10
0.0000
 20
0.0000
 30
0.0000
 40
0.0381
 41
0.0381
 70
0
  0
VERTEX
  8
25
 10
-28.3180
 20
12.4397
 30
0.0000
 42
1.0000
  0
VERTEX
  8
25
 10
-28.3180
 20
12.4778
 30
0.0000
  0
SEQEND
  8
0
  0
POLYLINE
  8
25
 66
1
 10
0.0000
 20
0.0000
 30
0.0000
 40
0.0381
 41
0.0381
 70
0
  0
VERTEX
  8
25
 10
-28.5226
 20
12.4778
 30
0.0000
 42
1.0000
  0
VERTEX
  8
25
 10
-28.5226
 20
12.4397
 30
0.0000
  0
SEQEND
  8
0
  0
POLYLINE
  8
25
 66
1
 10
0.0000
 20
0.0000
 30
0.0000
 40
0.0762
 41
0.0762
 70
0
  0
VERTEX
  8
25
 10
-28.1133
 20
12.2541
 30
0.0000
 42
0.4142
  0
VERTEX
  8
25
 10
-28.3180
 20
12.4587
 30
0.0000
  0
SEQEND
  8
0
  0
POLYLINE
  8
25
 66
1
 10
0.0000
 20
0.0000
 30
0.0000
 40
0.0381
 41
0.0381
 70
0
  0
VERTEX
  8
25
 10
-28.1324
 20
12.2541
 30
0.0000
 42
1.0000
  0
VERTEX
  8
25
 10
-28.0943
 20
12.2541
 30
0.0000
  0
SEQEND
  8
0
  0
POLYLINE
  8
25
 66
1
 10
0.0000
 20
0.0000
 30
0.0000
 40
0.0381
 41
0.0381
 70
0
  0
VERTEX
  8
25
 10
-28.3180
 20
12.4778
 30
0.0000
 42
1.0000
  0
VERTEX
  8
25
 10
-28.3180
 20
12.4397
 30
0.0000
  0
SEQEND
  8
0
  0
POLYLINE
  8
25
 66
1
 10
0.0000
 20
0.0000
 30
0.0000
 40
0.0762
 41
0.0762
 70
0
  0
VERTEX
  8
25
 10
-28.1133
 20
12.2541
 30
0.0000
  0
VERTEX
  8
25
 10
-28.1133
 20
11.9267
 30
0.0000
  0
SEQEND
  8
0
  0
POLYLINE
  8
25
 66
1
 10
0.0000
 20
0.0000
 30
0.0000
 40
0.0381
 41
0.0381
 70
0
  0
VERTEX
  8
25
 10
-28.1324
 20
11.9267
 30
0.0000
 42
1.0000
  0
VERTEX
  8
25
 10
-28.0943
 20
11.9267
 30
0.0000
  0
SEQEND
  8
0
  0
POLYLINE
  8
25
 66
1
 10
0.0000
 20
0.0000
 30
0.0000
 40
0.0381
 41
0.0381
 70
0
  0
VERTEX
  8
25
 10
-28.0943
 20
12.2541
 30
0.0000
 42
1.0000
  0
VERTEX
  8
25
 10
-28.1324
 20
12.2541
 30
0.0000
  0
SEQEND
  8
0
  0
POLYLINE
  8
25
 66
1
 10
0.0000
 20
0.0000
 30
0.0000
 40
0.0762
 41
0.0762
 70
0
  0
VERTEX
  8
25
 10
-28.3180
 20
11.7221
 30
0.0000
 42
0.4142
  0
VERTEX
  8
25
 10
-28.1133
 20
11.9267
 30
0.0000
  0
SEQEND
  8
0
  0
POLYLINE
  8
25
 66
1
 10
0.0000
 20
0.0000
 30
0.0000
 40
0.0381
 41
0.0381
 70
0
  0
VERTEX
  8
25
 10
-28.3180
 20
11.7411
 30
0.0000
 42
1.0000
  0
VERTEX
  8
25
 10
-28.3180
 20
11.7030
 30
0.0000
  0
SEQEND
  8
0
  0
POLYLINE
  8
25
 66
1
 10
0.0000
 20
0.0000
 30
0.0000
 40
0.0381
 41
0.0381
 70
0
  0
VERTEX
  8
25
 10
-28.0943
 20
11.9267
 30
0.0000
 42
1.0000
  0
VERTEX
  8
25
 10
-28.1324
 20
11.9267
 30
0.0000
  0
SEQEND
  8
0
  0
POLYLINE
  8
25
 66
1
 10
0.0000
 20
0.0000
 30
0.0000
 40
0.0762
 41
0.0762
 70
0
  0
VERTEX
  8
25
 10
-28.3180
 20
11.7221
 30
0.0000
  0
VERTEX
  8
25
 10
-28.5226
 20
11.7221
 30
0.0000
  0
SEQEND
  8
0
  0
POLYLINE
  8
25
 66
1
 10
0.0000
 20
0.0000
 30
0.0000
 40
0.0381
 41
0.0381
 70
0
  0
VERTEX
  8
25
 10
-28.5226
 20
11.7412
 30
0.0000
 42
1.0000
  0
VERTEX
  8
25
 10
-28.5226
 20
11.7031
 30
0.0000
  0
SEQEND
  8
0
  0
POLYLINE
  8
25
 66
1
 10
0.0000
 20
0.0000
 30
0.0000
 40
0.0381
 41
0.0381
 70
0
  0
VERTEX
  8
25
 10
-28.3180
 20
11.7031
 30
0.0000
 42
1.0000
  0
VERTEX
  8
25
 10
-28.3180
 20
11.7412
 30
0.0000
  0
SEQEND
  8
0
  0
POLYLINE
  8
25
 66
1
 10
0.0000
 20
0.0000
 30
0.0000
 40
0.0762
 41
0.0762
 70
0
  0
VERTEX
  8
25
 10
-27.6030
 20
12.4587
 30
0.0000
  0
VERTEX
  8
25
 10
-27.7667
 20
11.8858
 30
0.0000
  0
SEQEND
  8
0
  0
POLYLINE
  8
25
 66
1
 10
0.0000
 20
0.0000
 30
0.0000
 40
0.0381
 41
0.0381
 70
0
  0
VERTEX
  8
25
 10
-27.7850
 20
11.8910
 30
0.0000
 42
1.0000
  0
VERTEX
  8
25
 10
-27.7483
 20
11.8806
 30
0.0000
  0
SEQEND
  8
0
  0
POLYLINE
  8
25
 66
1
 10
0.0000
 20
0.0000
 30
0.0000
 40
0.0381
 41
0.0381
 70
0
  0
VERTEX
  8
25
 10
-27.5847
 20
12.4535
 30
0.0000
 42
1.0000
  0
VERTEX
  8
25
 10
-27.6213
 20
12.4639
 30
0.0000
  0
SEQEND
  8
0
  0
POLYLINE
  8
25
 66
1
 10
0.0000
 20
0.0000
 30
0.0000
 40
0.0762
 41
0.0762
 70
0
  0
VERTEX
  8
25
 10
-27.7667
 20
11.8858
 30
0.0000
  0
VERTEX
  8
25
 10
-27.3574
 20
11.8858
 30
0.0000
  0
SEQEND
  8
0
  0
POLYLINE
  8
25
 66
1
 10
0.0000
 20
0.0000
 30
0.0000
 40
0.0381
 41
0.0381
 70
0
  0
VERTEX
  8
25
 10
-27.3574
 20
11.8667
 30
0.0000
 42
1.0000
  0
VERTEX
  8
25
 10
-27.3574
 20
11.9048
 30
0.0000
  0
SEQEND
  8
0
  0
POLYLINE
  8
25
 66
1
 10
0.0000
 20
0.0000
 30
0.0000
 40
0.0381
 41
0.0381
 70
0
  0
VERTEX
  8
25
 10
-27.7667
 20
11.9048
 30
0.0000
 42
1.0000
  0
VERTEX
  8
25
 10
-27.7667
 20
11.8667
 30
0.0000
  0
SEQEND
  8
0
  0
POLYLINE
  8
25
 66
1
 10
0.0000
 20
0.0000
 30
0.0000
 40
0.0762
 41
0.0762
 70
0
  0
VERTEX
  8
25
 10
-27.4802
 20
12.0495
 30
0.0000
  0
VERTEX
  8
25
 10
-27.4802
 20
11.7221
 30
0.0000
  0
SEQEND
  8
0
  0
POLYLINE
  8
25
 66
1
 10
0.0000
 20
0.0000
 30
0.0000
 40
0.0381
 41
0.0381
 70
0
  0
VERTEX
  8
25
 10
-27.4993
 20
11.7221
 30
0.0000
 42
1.0000
  0
VERTEX
  8
25
 10
-27.4612
 20
11.7221
 30
0.0000
  0
SEQEND
  8
0
  0
POLYLINE
  8
25
 66
1
 10
0.0000
 20
0.0000
 30
0.0000
 40
0.0381
 41
0.0381
 70
0
  0
VERTEX
  8
25
 10
-27.4612
 20
12.0495
 30
0.0000
 42
1.0000
  0
VERTEX
  8
25
 10
-27.4993
 20
12.0495
 30
0.0000
  0
SEQEND
  8
0
  0
POINT
  8
23
 10
12.7000
 20
16.5100
 30
0.0000
  0
POLYLINE
  8
39
 66
1
 10
0.0000
 20
0.0000
 30
0.0000
 40
3.2000
 41
3.2000
 70
0
  0
VERTEX
  8
39
 10
12.7000
 20
14.9100
 30
0.0000
 42
1.0000
  0
VERTEX
  8
39
 10
12.7000
 20
18.1100
 30
0.0000
 42
1.0000
  0
VERTEX
  8
39
 10
12.7000
 20
14.9100
 30
0.0000
  0
SEQEND
  8
0
  0
POLYLINE
  8
40
 66
1
 10
0.0000
 20
0.0000
 30
0.0000
 40
3.2000
 41
3.2000
 70
0
  0
VERTEX
  8
40
 10
12.7000
 20
14.9100
 30
0.0000
 42
1.0000
  0
VERTEX
  8
40
 10
12.7000
 20
18.1100
 30
0.0000
 42
1.0000
  0
VERTEX
  8
40
 10
12.7000
 20
14.9100
 30
0.0000
  0
SEQEND
  8
0
  0
INSERT
  8
17
  2
ROUNDP
 10
12.7000
 20
16.5100
 30
0.0000
 41
6.0000
 42
6.0000
 43
1.0000
 50
0.0000
  0
INSERT
  8
17
  2
ROUNDP
 10
12.7000
 20
16.5100
 30
0.0000
 41
6.0000
 42
6.0000
 43
1.0000
 50
0.0000
  0
POLYLINE
  8
25
 66
1
 10
0.0000
 20
0.0000
 30
0.0000
 40
0.0762
 41
0.0762
 70
0
  0
VERTEX
  8
25
 10
12.1174
 20
20.0481
 30
0.0000
  0
VERTEX
  8
25
 10
12.1174
 20
20.7847
 30
0.0000
  0
SEQEND
  8
0
  0
POLYLINE
  8
25
 66
1
 10
0.0000
 20
0.0000
 30
0.0000
 40
0.0381
 41
0.0381
 70
0
  0
VERTEX
  8
25
 10
12.1365
 20
20.7847
 30
0.0000
 42
1.0000
  0
VERTEX
  8
25
 10
12.0984
 20
20.7847
 30
0.0000
  0
SEQEND
  8
0
  0
POLYLINE
  8
25
 66
1
 10
0.0000
 20
0.0000
 30
0.0000
 40
0.0381
 41
0.0381
 70
0
  0
VERTEX
  8
25
 10
12.0984
 20
20.0481
 30
0.0000
 42
1.0000
  0
VERTEX
  8
25
 10
12.1365
 20
20.0481
 30
0.0000
  0
SEQEND
  8
0
  0
POLYLINE
  8
25
 66
1
 10
0.0000
 20
0.0000
 30
0.0000
 40
0.0762
 41
0.0762
 70
0
  0
VERTEX
  8
25
 10
12.1174
 20
20.4573
 30
0.0000
  0
VERTEX
  8
25
 10
12.5267
 20
20.4573
 30
0.0000
  0
SEQEND
  8
0
  0
POLYLINE
  8
25
 66
1
 10
0.0000
 20
0.0000
 30
0.0000
 40
0.0381
 41
0.0381
 70
0
  0
VERTEX
  8
25
 10
12.5267
 20
20.4383
 30
0.0000
 42
1.0000
  0
VERTEX
  8
25
 10
12.5267
 20
20.4764
 30
0.0000
  0
SEQEND
  8
0
  0
POLYLINE
  8
25
 66
1
 10
0.0000
 20
0.0000
 30
0.0000
 40
0.0381
 41
0.0381
 70
0
  0
VERTEX
  8
25
 10
12.1174
 20
20.4764
 30
0.0000
 42
1.0000
  0
VERTEX
  8
25
 10
12.1174
 20
20.4383
 30
0.0000
  0
SEQEND
  8
0
  0
POLYLINE
  8
25
 66
1
 10
0.0000
 20
0.0000
 30
0.0000
 40
0.0762
 41
0.0762
 70
0
  0
VERTEX
  8
25
 10
12.5267
 20
20.7847
 30
0.0000
  0
VERTEX
  8
25
 10
12.5267
 20
20.0481
 30
0.0000
  0
SEQEND
  8
0
  0
POLYLINE
  8
25
 66
1
 10
0.0000
 20
0.0000
 30
0.0000
 40
0.0381
 41
0.0381
 70
0
  0
VERTEX
  8
25
 10
12.5076
 20
20.0481
 30
0.0000
 42
1.0000
  0
VERTEX
  8
25
 10
12.5457
 20
20.0481
 30
0.0000
  0
SEQEND
  8
0
  0
POLYLINE
  8
25
 66
1
 10
0.0000
 20
0.0000
 30
0.0000
 40
0.0381
 41
0.0381
 70
0
  0
VERTEX
  8
25
 10
12.5457
 20
20.7847
 30
0.0000
 42
1.0000
  0
VERTEX
  8
25
 10
12.5076
 20
20.7847
 30
0.0000
  0
SEQEND
  8
0
  0
POLYLINE
  8
25
 66
1
 10
0.0000
 20
0.0000
 30
0.0000
 40
0.0762
 41
0.0762
 70
0
  0
VERTEX
  8
25
 10
12.8733
 20
20.6210
 30
0.0000
  0
VERTEX
  8
25
 10
13.0780
 20
20.7847
 30
0.0000
  0
SEQEND
  8
0
  0
POLYLINE
  8
25
 66
1
 10
0.0000
 20
0.0000
 30
0.0000
 40
0.0381
 41
0.0381
 70
0
  0
VERTEX
  8
25
 10
13.0899
 20
20.7698
 30
0.0000
 42
1.0000
  0
VERTEX
  8
25
 10
13.0660
 20
20.7996
 30
0.0000
  0
SEQEND
  8
0
  0
POLYLINE
  8
25
 66
1
 10
0.0000
 20
0.0000
 30
0.0000
 40
0.0381
 41
0.0381
 70
0
  0
VERTEX
  8
25
 10
12.8614
 20
20.6359
 30
0.0000
 42
1.0000
  0
VERTEX
  8
25
 10
12.8852
 20
20.6061
 30
0.0000
  0
SEQEND
  8
0
  0
POLYLINE
  8
25
 66
1
 10
0.0000
 20
0.0000
 30
0.0000
 40
0.0762
 41
0.0762
 70
0
  0
VERTEX
  8
25
 10
13.0780
 20
20.7847
 30
0.0000
  0
VERTEX
  8
25
 10
13.0780
 20
20.0481
 30
0.0000
  0
SEQEND
  8
0
  0
POLYLINE
  8
25
 66
1
 10
0.0000
 20
0.0000
 30
0.0000
 40
0.0381
 41
0.0381
 70
0
  0
VERTEX
  8
25
 10
13.0589
 20
20.0481
 30
0.0000
 42
1.0000
  0
VERTEX
  8
25
 10
13.0970
 20
20.0481
 30
0.0000
  0
SEQEND
  8
0
  0
POLYLINE
  8
25
 66
1
 10
0.0000
 20
0.0000
 30
0.0000
 40
0.0381
 41
0.0381
 70
0
  0
VERTEX
  8
25
 10
13.0970
 20
20.7847
 30
0.0000
 42
1.0000
  0
VERTEX
  8
25
 10
13.0589
 20
20.7847
 30
0.0000
  0
SEQEND
  8
0
  0
POLYLINE
  8
25
 66
1
 10
0.0000
 20
0.0000
 30
0.0000
 40
0.0762
 41
0.0762
 70
0
  0
VERTEX
  8
25
 10
12.8733
 20
20.0481
 30
0.0000
  0
VERTEX
  8
25
 10
13.2826
 20
20.0481
 30
0.0000
  0
SEQEND
  8
0
  0
POLYLINE
  8
25
 66
1
 10
0.0000
 20
0.0000
 30
0.0000
 40
0.0381
 41
0.0381
 70
0
  0
VERTEX
  8
25
 10
13.2826
 20
20.0291
 30
0.0000
 42
1.0000
  0
VERTEX
  8
25
 10
13.2826
 20
20.0672
 30
0.0000
  0
SEQEND
  8
0
  0
POLYLINE
  8
25
 66
1
 10
0.0000
 20
0.0000
 30
0.0000
 40
0.0381
 41
0.0381
 70
0
  0
VERTEX
  8
25
 10
12.8733
 20
20.0672
 30
0.0000
 42
1.0000
  0
VERTEX
  8
25
 10
12.8733
 20
20.0291
 30
0.0000
  0
SEQEND
  8
0
  0
POINT
  8
23
 10
-12.7000
 20
16.5100
 30
0.0000
  0
POLYLINE
  8
39
 66
1
 10
0.0000
 20
0.0000
 30
0.0000
 40
3.2000
 41
3.2000
 70
0
  0
VERTEX
  8
39
 10
-12.7000
 20
14.9100
 30
0.0000
 42
1.0000
  0
VERTEX
  8
39
 10
-12.7000
 20
18.1100
 30
0.0000
 42
1.0000
  0
VERTEX
  8
39
 10
-12.7000
 20
14.9100
 30
0.0000
  0
SEQEND
  8
0
  0
POLYLINE
  8
40
 66
1
 10
0.0000
 20
0.0000
 30
0.0000
 40
3.2000
 41
3.2000
 70
0
  0
VERTEX
  8
40
 10
-12.7000
 20
14.9100
 30
0.0000
 42
1.0000
  0
VERTEX
  8
40
 10
-12.7000
 20
18.1100
 30
0.0000
 42
1.0000
  0
VERTEX
  8
40
 10
-12.7000
 20
14.9100
 30
0.0000
  0
SEQEND
  8
0
  0
INSERT
  8
17
  2
ROUNDP
 10
-12.7000
 20
16.5100
 30
0.0000
 41
6.0000
 42
6.0000
 43
1.0000
 50
0.0000
  0
INSERT
  8
17
  2
ROUNDP
 10
-12.7000
 20
16.5100
 30
0.0000
 41
6.0000
 42
6.0000
 43
1.0000
 50
0.0000
  0
POLYLINE
  8
25
 66
1
 10
0.0000
 20
0.0000
 30
0.0000
 40
0.0762
 41
0.0762
 70
0
  0
VERTEX
  8
25
 10
-13.2826
 20
20.0481
 30
0.0000
  0
VERTEX
  8
25
 10
-13.2826
 20
20.7847
 30
0.0000
  0
SEQEND
  8
0
  0
POLYLINE
  8
25
 66
1
 10
0.0000
 20
0.0000
 30
0.0000
 40
0.0381
 41
0.0381
 70
0
  0
VERTEX
  8
25
 10
-13.2635
 20
20.7847
 30
0.0000
 42
1.0000
  0
VERTEX
  8
25
 10
-13.3016
 20
20.7847
 30
0.0000
  0
SEQEND
  8
0
  0
POLYLINE
  8
25
 66
1
 10
0.0000
 20
0.0000
 30
0.0000
 40
0.0381
 41
0.0381
 70
0
  0
VERTEX
  8
25
 10
-13.3016
 20
20.0481
 30
0.0000
 42
1.0000
  0
VERTEX
  8
25
 10
-13.2635
 20
20.0481
 30
0.0000
  0
SEQEND
  8
0
  0
POLYLINE
  8
25
 66
1
 10
0.0000
 20
0.0000
 30
0.0000
 40
0.0762
 41
0.0762
 70
0
  0
VERTEX
  8
25
 10
-13.2826
 20
20.4573
 30
0.0000
  0
VERTEX
  8
25
 10
-12.8733
 20
20.4573
 30
0.0000
  0
SEQEND
  8
0
  0
POLYLINE
  8
25
 66
1
 10
0.0000
 20
0.0000
 30
0.0000
 40
0.0381
 41
0.0381
 70
0
  0
VERTEX
  8
25
 10
-12.8733
 20
20.4383
 30
0.0000
 42
1.0000
  0
VERTEX
  8
25
 10
-12.8733
 20
20.4764
 30
0.0000
  0
SEQEND
  8
0
  0
POLYLINE
  8
25
 66
1
 10
0.0000
 20
0.0000
 30
0.0000
 40
0.0381
 41
0.0381
 70
0
  0
VERTEX
  8
25
 10
-13.2826
 20
20.4764
 30
0.0000
 42
1.0000
  0
VERTEX
  8
25
 10
-13.2826
 20
20.4383
 30
0.0000
  0
SEQEND
  8
0
  0
POLYLINE
  8
25
 66
1
 10
0.0000
 20
0.0000
 30
0.0000
 40
0.0762
 41
0.0762
 70
0
  0
VERTEX
  8
25
 10
-12.8733
 20
20.7847
 30
0.0000
  0
VERTEX
  8
25
 10
-12.8733
 20
20.0481
 30
0.0000
  0
SEQEND
  8
0
  0
POLYLINE
  8
25
 66
1
 10
0.0000
 20
0.0000
 30
0.0000
 40
0.0381
 41
0.0381
 70
0
  0
VERTEX
  8
25
 10
-12.8924
 20
20.0481
 30
0.0000
 42
1.0000
  0
VERTEX
  8
25
 10
-12.8543
 20
20.0481
 30
0.0000
  0
SEQEND
  8
0
  0
POLYLINE
  8
25
 66
1
 10
0.0000
 20
0.0000
 30
0.0000
 40
0.0381
 41
0.0381
 70
0
  0
VERTEX
  8
25
 10
-12.8543
 20
20.7847
 30
0.0000
 42
1.0000
  0
VERTEX
  8
25
 10
-12.8924
 20
20.7847
 30
0.0000
  0
SEQEND
  8
0
  0
POLYLINE
  8
25
 66
1
 10
0.0000
 20
0.0000
 30
0.0000
 40
0.0762
 41
0.0762
 70
0
  0
VERTEX
  8
25
 10
-12.1174
 20
20.6006
 30
0.0000
 42
0.4142
  0
VERTEX
  8
25
 10
-12.3016
 20
20.7847
 30
0.0000
  0
SEQEND
  8
0
  0
POLYLINE
  8
25
 66
1
 10
0.0000
 20
0.0000
 30
0.0000
 40
0.0381
 41
0.0381
 70
0
  0
VERTEX
  8
25
 10
-12.1365
 20
20.6006
 30
0.0000
 42
1.0000
  0
VERTEX
  8
25
 10
-12.0984
 20
20.6006
 30
0.0000
  0
SEQEND
  8
0
  0
POLYLINE
  8
25
 66
1
 10
0.0000
 20
0.0000
 30
0.0000
 40
0.0381
 41
0.0381
 70
0
  0
VERTEX
  8
25
 10
-12.3016
 20
20.8038
 30
0.0000
 42
1.0000
  0
VERTEX
  8
25
 10
-12.3016
 20
20.7657
 30
0.0000
  0
SEQEND
  8
0
  0
POLYLINE
  8
25
 66
1
 10
0.0000
 20
0.0000
 30
0.0000
 40
0.0762
 41
0.0762
 70
0
  0
VERTEX
  8
25
 10
-12.3016
 20
20.7847
 30
0.0000
 42
0.3252
  0
VERTEX
  8
25
 10
-12.5267
 20
20.6210
 30
0.0000
  0
SEQEND
  8
0
  0
POLYLINE
  8
25
 66
1
 10
0.0000
 20
0.0000
 30
0.0000
 40
0.0381
 41
0.0381
 70
0
  0
VERTEX
  8
25
 10
-12.3016
 20
20.7657
 30
0.0000
 42
1.0000
  0
VERTEX
  8
25
 10
-12.3016
 20
20.8037
 30
0.0000
  0
SEQEND
  8
0
  0
POLYLINE
  8
25
 66
1
 10
0.0000
 20
0.0000
 30
0.0000
 40
0.0381
 41
0.0381
 70
0
  0
VERTEX
  8
25
 10
-12.5448
 20
20.6269
 30
0.0000
 42
1.0000
  0
VERTEX
  8
25
 10
-12.5085
 20
20.6151
 30
0.0000
  0
SEQEND
  8
0
  0
POLYLINE
  8
25
 66
1
 10
0.0000
 20
0.0000
 30
0.0000
 40
0.0762
 41
0.0762
 70
0
  0
VERTEX
  8
25
 10
-12.1788
 20
20.4573
 30
0.0000
 42
0.2053
  0
VERTEX
  8
25
 10
-12.1174
 20
20.6006
 30
0.0000
  0
SEQEND
  8
0
  0
POLYLINE
  8
25
 66
1
 10
0.0000
 20
0.0000
 30
0.0000
 40
0.0381
 41
0.0381
 70
0
  0
VERTEX
  8
25
 10
-12.1920
 20
20.4711
 30
0.0000
 42
1.0000
  0
VERTEX
  8
25
 10
-12.1657
 20
20.4435
 30
0.0000
  0
SEQEND
  8
0
  0
POLYLINE
  8
25
 66
1
 10
0.0000
 20
0.0000
 30
0.0000
 40
0.0381
 41
0.0381
 70
0
  0
VERTEX
  8
25
 10
-12.0984
 20
20.6005
 30
0.0000
 42
1.0000
  0
VERTEX
  8
25
 10
-12.1365
 20
20.6006
 30
0.0000
  0
SEQEND
  8
0
  0
POLYLINE
  8
25
 66
1
 10
0.0000
 20
0.0000
 30
0.0000
 40
0.0762
 41
0.0762
 70
0
  0
VERTEX
  8
25
 10
-12.1788
 20
20.4573
 30
0.0000
  0
VERTEX
  8
25
 10
-12.5267
 20
20.0481
 30
0.0000
  0
SEQEND
  8
0
  0
POLYLINE
  8
25
 66
1
 10
0.0000
 20
0.0000
 30
0.0000
 40
0.0381
 41
0.0381
 70
0
  0
VERTEX
  8
25
 10
-12.5412
 20
20.0604
 30
0.0000
 42
1.0000
  0
VERTEX
  8
25
 10
-12.5121
 20
20.0358
 30
0.0000
  0
SEQEND
  8
0
  0
POLYLINE
  8
25
 66
1
 10
0.0000
 20
0.0000
 30
0.0000
 40
0.0381
 41
0.0381
 70
0
  0
VERTEX
  8
25
 10
-12.1643
 20
20.4450
 30
0.0000
 42
1.0000
  0
VERTEX
  8
25
 10
-12.1933
 20
20.4697
 30
0.0000
  0
SEQEND
  8
0
  0
POLYLINE
  8
25
 66
1
 10
0.0000
 20
0.0000
 30
0.0000
 40
0.0762
 41
0.0762
 70
0
  0
VERTEX
  8
25
 10
-12.5267
 20
20.0481
 30
0.0000
  0
VERTEX
  8
25
 10
-12.1174
 20
20.0481
 30
0.0000
  0
SEQEND
  8
0
  0
POLYLINE
  8
25
 66
1
 10
0.0000
 20
0.0000
 30
0.0000
 40
0.0381
 41
0.0381
 70
0
  0
VERTEX
  8
25
 10
-12.1174
 20
20.0291
 30
0.0000
 42
1.0000
  0
VERTEX
  8
25
 10
-12.1174
 20
20.0672
 30
0.0000
  0
SEQEND
  8
0
  0
POLYLINE
  8
25
 66
1
 10
0.0000
 20
0.0000
 30
0.0000
 40
0.0381
 41
0.0381
 70
0
  0
VERTEX
  8
25
 10
-12.5267
 20
20.0672
 30
0.0000
 42
1.0000
  0
VERTEX
  8
25
 10
-12.5267
 20
20.0291
 30
0.0000
  0
SEQEND
  8
0
  0
POINT
  8
24
 10
0.0000
 20
14.4780
 30
0.0000
  0
LINE
  8
20
 10
4.0400
 20
40.0050
 30
0.0000
 11
-4.0400
 21
40.0050
 31
0.0000
  0
LINE
  8
20
 10
-4.0400
 20
40.0050
 30
0.0000
 11
-4.0400
 21
24.5110
 31
0.0000
  0
LINE
  8
20
 10
-4.0400
 20
24.5110
 30
0.0000
 11
4.0400
 21
24.5110
 31
0.0000
  0
LINE
  8
20
 10
4.0400
 20
24.5110
 30
0.0000
 11
4.0400
 21
40.0050
 31
0.0000
  0
POLYLINE
  8
52
 66
1
 10
0.0000
 20
0.0000
 30
0.0000
 40
0.1270
 41
0.1270
 70
0
  0
VERTEX
  8
52
 10
-7.8500
 20
24.5110
 30
0.0000
  0
VERTEX
  8
52
 10
7.8500
 20
24.5110
 30
0.0000
  0
SEQEND
  8
0
  0
POLYLINE
  8
52
 66
1
 10
0.0000
 20
0.0000
 30
0.0000
 40
0.0635
 41
0.0635
 70
0
  0
VERTEX
  8
52
 10
7.8500
 20
24.4793
 30
0.0000
 42
1.0000
  0
VERTEX
  8
52
 10
7.8500
 20
24.5428
 30
0.0000
  0
SEQEND
  8
0
  0
POLYLINE
  8
52
 66
1
 10
0.0000
 20
0.0000
 30
0.0000
 40
0.0635
 41
0.0635
 70
0
  0
VERTEX
  8
52
 10
-7.8500
 20
24.5428
 30
0.0000
 42
1.0000
  0
VERTEX
  8
52
 10
-7.8500
 20
24.4793
 30
0.0000
  0
SEQEND
  8
0
  0
POLYLINE
  8
52
 66
1
 10
0.0000
 20
0.0000
 30
0.0000
 40
0.1270
 41
0.1270
 70
0
  0
VERTEX
  8
52
 10
-7.8500
 20
26.8478
 30
0.0000
  0
VERTEX
  8
52
 10
-6.7625
 20
26.8478
 30
0.0000
  0
SEQEND
  8
0
  0
POLYLINE
  8
52
 66
1
 10
0.0000
 20
0.0000
 30
0.0000
 40
0.0635
 41
0.0635
 70
0
  0
VERTEX
  8
52
 10
-6.7625
 20
26.8161
 30
0.0000
 42
1.0000
  0
VERTEX
  8
52
 10
-6.7625
 20
26.8796
 30
0.0000
  0
SEQEND
  8
0
  0
POLYLINE
  8
52
 66
1
 10
0.0000
 20
0.0000
 30
0.0000
 40
0.0635
 41
0.0635
 70
0
  0
VERTEX
  8
52
 10
-7.8500
 20
26.8796
 30
0.0000
 42
1.0000
  0
VERTEX
  8
52
 10
-7.8500
 20
26.8161
 30
0.0000
  0
SEQEND
  8
0
  0
POLYLINE
  8
52
 66
1
 10
0.0000
 20
0.0000
 30
0.0000
 40
0.1270
 41
0.1270
 70
0
  0
VERTEX
  8
52
 10
-5.7625
 20
26.8478
 30
0.0000
  0
VERTEX
  8
52
 10
-4.6750
 20
26.8478
 30
0.0000
  0
SEQEND
  8
0
  0
POLYLINE
  8
52
 66
1
 10
0.0000
 20
0.0000
 30
0.0000
 40
0.0635
 41
0.0635
 70
0
  0
VERTEX
  8
52
 10
-4.6750
 20
26.8161
 30
0.0000
 42
1.0000
  0
VERTEX
  8
52
 10
-4.6750
 20
26.8796
 30
0.0000
  0
SEQEND
  8
0
  0
POLYLINE
  8
52
 66
1
 10
0.0000
 20
0.0000
 30
0.0000
 40
0.0635
 41
0.0635
 70
0
  0
VERTEX
  8
52
 10
-5.7625
 20
26.8796
 30
0.0000
 42
1.0000
  0
VERTEX
  8
52
 10
-5.7625
 20
26.8161
 30
0.0000
  0
SEQEND
  8
0
  0
POLYLINE
  8
52
 66
1
 10
0.0000
 20
0.0000
 30
0.0000
 40
0.1270
 41
0.1270
 70
0
  0
VERTEX
  8
52
 10
-3.6750
 20
26.8478
 30
0.0000
  0
VERTEX
  8
52
 10
-2.5875
 20
26.8478
 30
0.0000
  0
SEQEND
  8
0
  0
POLYLINE
  8
52
 66
1
 10
0.0000
 20
0.0000
 30
0.0000
 40
0.0635
 41
0.0635
 70
0
  0
VERTEX
  8
52
 10
-2.5875
 20
26.8161
 30
0.0000
 42
1.0000
  0
VERTEX
  8
52
 10
-2.5875
 20
26.8796
 30
0.0000
  0
SEQEND
  8
0
  0
POLYLINE
  8
52
 66
1
 10
0.0000
 20
0.0000
 30
0.0000
 40
0.0635
 41
0.0635
 70
0
  0
VERTEX
  8
52
 10
-3.6750
 20
26.8796
 30
0.0000
 42
1.0000
  0
VERTEX
  8
52
 10
-3.6750
 20
26.8161
 30
0.0000
  0
SEQEND
  8
0
  0
POLYLINE
  8
52
 66
1
 10
0.0000
 20
0.0000
 30
0.0000
 40
0.1270
 41
0.1270
 70
0
  0
VERTEX
  8
52
 10
-1.5875
 20
26.8478
 30
0.0000
  0
VERTEX
  8
52
 10
-0.5000
 20
26.8478
 30
0.0000
  0
SEQEND
  8
0
  0
POLYLINE
  8
52
 66
1
 10
0.0000
 20
0.0000
 30
0.0000
 40
0.0635
 41
0.0635
 70
0
  0
VERTEX
  8
52
 10
-0.5000
 20
26.8161
 30
0.0000
 42
1.0000
  0
VERTEX
  8
52
 10
-0.5000
 20
26.8796
 30
0.0000
  0
SEQEND
  8
0
  0
POLYLINE
  8
52
 66
1
 10
0.0000
 20
0.0000
 30
0.0000
 40
0.0635
 41
0.0635
 70
0
  0
VERTEX
  8
52
 10
-1.5875
 20
26.8796
 30
0.0000
 42
1.0000
  0
VERTEX
  8
52
 10
-1.5875
 20
26.8161
 30
0.0000
  0
SEQEND
  8
0
  0
POLYLINE
  8
52
 66
1
 10
0.0000
 20
0.0000
 30
0.0000
 40
0.1270
 41
0.1270
 70
0
  0
VERTEX
  8
52
 10
0.5000
 20
26.8478
 30
0.0000
  0
VERTEX
  8
52
 10
1.5875
 20
26.8478
 30
0.0000
  0
SEQEND
  8
0
  0
POLYLINE
  8
52
 66
1
 10
0.0000
 20
0.0000
 30
0.0000
 40
0.0635
 41
0.0635
 70
0
  0
VERTEX
  8
52
 10
1.5875
 20
26.8161
 30
0.0000
 42
1.0000
  0
VERTEX
  8
52
 10
1.5875
 20
26.8796
 30
0.0000
  0
SEQEND
  8
0
  0
POLYLINE
  8
52
 66
1
 10
0.0000
 20
0.0000
 30
0.0000
 40
0.0635
 41
0.0635
 70
0
  0
VERTEX
  8
52
 10
0.5000
 20
26.8796
 30
0.0000
 42
1.0000
  0
VERTEX
  8
52
 10
0.5000
 20
26.8161
 30
0.0000
  0
SEQEND
  8
0
  0
POLYLINE
  8
52
 66
1
 10
0.0000
 20
0.0000
 30
0.0000
 40
0.1270
 41
0.1270
 70
0
  0
VERTEX
  8
52
 10
2.5875
 20
26.8478
 30
0.0000
  0
VERTEX
  8
52
 10
3.6750
 20
26.8478
 30
0.0000
  0
SEQEND
  8
0
  0
POLYLINE
  8
52
 66
1
 10
0.0000
 20
0.0000
 30
0.0000
 40
0.0635
 41
0.0635
 70
0
  0
VERTEX
  8
52
 10
3.6750
 20
26.8161
 30
0.0000
 42
1.0000
  0
VERTEX
  8
52
 10
3.6750
 20
26.8796
 30
0.0000
  0
SEQEND
  8
0
  0
POLYLINE
  8
52
 66
1
 10
0.0000
 20
0.0000
 30
0.0000
 40
0.0635
 41
0.0635
 70
0
  0
VERTEX
  8
52
 10
2.5875
 20
26.8796
 30
0.0000
 42
1.0000
  0
VERTEX
  8
52
 10
2.5875
 20
26.8161
 30
0.0000
  0
SEQEND
  8
0
  0
POLYLINE
  8
52
 66
1
 10
0.0000
 20
0.0000
 30
0.0000
 40
0.1270
 41
0.1270
 70
0
  0
VERTEX
  8
52
 10
4.6750
 20
26.8478
 30
0.0000
  0
VERTEX
  8
52
 10
5.7625
 20
26.8478
 30
0.0000
  0
SEQEND
  8
0
  0
POLYLINE
  8
52
 66
1
 10
0.0000
 20
0.0000
 30
0.0000
 40
0.0635
 41
0.0635
 70
0
  0
VERTEX
  8
52
 10
5.7625
 20
26.8161
 30
0.0000
 42
1.0000
  0
VERTEX
  8
52
 10
5.7625
 20
26.8796
 30
0.0000
  0
SEQEND
  8
0
  0
POLYLINE
  8
52
 66
1
 10
0.0000
 20
0.0000
 30
0.0000
 40
0.0635
 41
0.0635
 70
0
  0
VERTEX
  8
52
 10
4.6750
 20
26.8796
 30
0.0000
 42
1.0000
  0
VERTEX
  8
52
 10
4.6750
 20
26.8161
 30
0.0000
  0
SEQEND
  8
0
  0
POLYLINE
  8
52
 66
1
 10
0.0000
 20
0.0000
 30
0.0000
 40
0.1270
 41
0.1270
 70
0
  0
VERTEX
  8
52
 10
6.7625
 20
26.8478
 30
0.0000
  0
VERTEX
  8
52
 10
7.8500
 20
26.8478
 30
0.0000
  0
SEQEND
  8
0
  0
POLYLINE
  8
52
 66
1
 10
0.0000
 20
0.0000
 30
0.0000
 40
0.0635
 41
0.0635
 70
0
  0
VERTEX
  8
52
 10
7.8500
 20
26.8161
 30
0.0000
 42
1.0000
  0
VERTEX
  8
52
 10
7.8500
 20
26.8796
 30
0.0000
  0
SEQEND
  8
0
  0
POLYLINE
  8
52
 66
1
 10
0.0000
 20
0.0000
 30
0.0000
 40
0.0635
 41
0.0635
 70
0
  0
VERTEX
  8
52
 10
6.7625
 20
26.8796
 30
0.0000
 42
1.0000
  0
VERTEX
  8
52
 10
6.7625
 20
26.8161
 30
0.0000
  0
SEQEND
  8
0
  0
INSERT
  8
40
  2
RECT
 10
0.0000
 20
10.6680
 30
0.0000
 41
15.7000
 42
17.7800
 43
1.0000
 50
0.0000
  0
INSERT
  8
42
  2
RECT
 10
-4.8909
 20
11.8745
 30
0.0000
 41
2.4384
 42
1.6002
 43
1.0000
 50
0.0000
  0
INSERT
  8
42
  2
RECT
 10
4.8909
 20
11.8745
 30
0.0000
 41
2.4384
 42
1.6002
 43
1.0000
 50
0.0000
  0
INSERT
  8
41
  2
RECT
 10
0.0000
 20
32.2580
 30
0.0000
 41
8.0800
 42
15.4940
 43
1.0000
 50
0.0000
  0
POLYLINE
  8
26
 66
1
 10
0.0000
 20
0.0000
 30
0.0000
 40
0.0762
 41
0.0762
 70
0
  0
VERTEX
  8
26
 10
0.2536
 20
0.9017
 30
0.0000
  0
VERTEX
  8
26
 10
0.2536
 20
0.3288
 30
0.0000
  0
SEQEND
  8
0
  0
POLYLINE
  8
26
 66
1
 10
0.0000
 20
0.0000
 30
0.0000
 40
0.0381
 41
0.0381
 70
0
  0
VERTEX
  8
26
 10
0.2345
 20
0.3288
 30
0.0000
 42
1.0000
  0
VERTEX
  8
26
 10
0.2726
 20
0.3288
 30
0.0000
  0
SEQEND
  8
0
  0
POLYLINE
  8
26
 66
1
 10
0.0000
 20
0.0000
 30
0.0000
 40
0.0381
 41
0.0381
 70
0
  0
VERTEX
  8
26
 10
0.2726
 20
0.9017
 30
0.0000
 42
1.0000
  0
VERTEX
  8
26
 10
0.2345
 20
0.9017
 30
0.0000
  0
SEQEND
  8
0
  0
POLYLINE
  8
26
 66
1
 10
0.0000
 20
0.0000
 30
0.0000
 40
0.0762
 41
0.0762
 70
0
  0
VERTEX
  8
26
 10
0.2536
 20
0.3288
 30
0.0000
 42
0.4142
  0
VERTEX
  8
26
 10
0.4173
 20
0.1651
 30
0.0000
  0
SEQEND
  8
0
  0
POLYLINE
  8
26
 66
1
 10
0.0000
 20
0.0000
 30
0.0000
 40
0.0381
 41
0.0381
 70
0
  0
VERTEX
  8
26
 10
0.2726
 20
0.3288
 30
0.0000
 42
1.0000
  0
VERTEX
  8
26
 10
0.2345
 20
0.3288
 30
0.0000
  0
SEQEND
  8
0
  0
POLYLINE
  8
26
 66
1
 10
0.0000
 20
0.0000
 30
0.0000
 40
0.0381
 41
0.0381
 70
0
  0
VERTEX
  8
26
 10
0.4173
 20
0.1460
 30
0.0000
 42
1.0000
  0
VERTEX
  8
26
 10
0.4173
 20
0.1842
 30
0.0000
  0
SEQEND
  8
0
  0
POLYLINE
  8
26
 66
1
 10
0.0000
 20
0.0000
 30
0.0000
 40
0.0762
 41
0.0762
 70
0
  0
VERTEX
  8
26
 10
0.4173
 20
0.1651
 30
0.0000
  0
VERTEX
  8
26
 10
0.4991
 20
0.1651
 30
0.0000
  0
SEQEND
  8
0
  0
POLYLINE
  8
26
 66
1
 10
0.0000
 20
0.0000
 30
0.0000
 40
0.0381
 41
0.0381
 70
0
  0
VERTEX
  8
26
 10
0.4991
 20
0.1460
 30
0.0000
 42
1.0000
  0
VERTEX
  8
26
 10
0.4991
 20
0.1842
 30
0.0000
  0
SEQEND
  8
0
  0
POLYLINE
  8
26
 66
1
 10
0.0000
 20
0.0000
 30
0.0000
 40
0.0381
 41
0.0381
 70
0
  0
VERTEX
  8
26
 10
0.4173
 20
0.1842
 30
0.0000
 42
1.0000
  0
VERTEX
  8
26
 10
0.4173
 20
0.1460
 30
0.0000
  0
SEQEND
  8
0
  0
POLYLINE
  8
26
 66
1
 10
0.0000
 20
0.0000
 30
0.0000
 40
0.0762
 41
0.0762
 70
0
  0
VERTEX
  8
26
 10
-0.0899
 20
0.7380
 30
0.0000
  0
VERTEX
  8
26
 10
-0.2945
 20
0.9017
 30
0.0000
  0
SEQEND
  8
0
  0
POLYLINE
  8
26
 66
1
 10
0.0000
 20
0.0000
 30
0.0000
 40
0.0381
 41
0.0381
 70
0
  0
VERTEX
  8
26
 10
-0.2826
 20
0.9166
 30
0.0000
 42
1.0000
  0
VERTEX
  8
26
 10
-0.3064
 20
0.8868
 30
0.0000
  0
SEQEND
  8
0
  0
POLYLINE
  8
26
 66
1
 10
0.0000
 20
0.0000
 30
0.0000
 40
0.0381
 41
0.0381
 70
0
  0
VERTEX
  8
26
 10
-0.1018
 20
0.7231
 30
0.0000
 42
1.0000
  0
VERTEX
  8
26
 10
-0.0780
 20
0.7529
 30
0.0000
  0
SEQEND
  8
0
  0
POLYLINE
  8
26
 66
1
 10
0.0000
 20
0.0000
 30
0.0000
 40
0.0762
 41
0.0762
 70
0
  0
VERTEX
  8
26
 10
-0.2945
 20
0.9017
 30
0.0000
  0
VERTEX
  8
26
 10
-0.2945
 20
0.1651
 30
0.0000
  0
SEQEND
  8
0
  0
POLYLINE
  8
26
 66
1
 10
0.0000
 20
0.0000
 30
0.0000
 40
0.0381
 41
0.0381
 70
0
  0
VERTEX
  8
26
 10
-0.3135
 20
0.1651
 30
0.0000
 42
1.0000
  0
VERTEX
  8
26
 10
-0.2754
 20
0.1651
 30
0.0000
  0
SEQEND
  8
0
  0
POLYLINE
  8
26
 66
1
 10
0.0000
 20
0.0000
 30
0.0000
 40
0.0381
 41
0.0381
 70
0
  0
VERTEX
  8
26
 10
-0.2754
 20
0.9017
 30
0.0000
 42
1.0000
  0
VERTEX
  8
26
 10
-0.3135
 20
0.9017
 30
0.0000
  0
SEQEND
  8
0
  0
POLYLINE
  8
26
 66
1
 10
0.0000
 20
0.0000
 30
0.0000
 40
0.0762
 41
0.0762
 70
0
  0
VERTEX
  8
26
 10
-0.0899
 20
0.1651
 30
0.0000
  0
VERTEX
  8
26
 10
-0.4991
 20
0.1651
 30
0.0000
  0
SEQEND
  8
0
  0
POLYLINE
  8
26
 66
1
 10
0.0000
 20
0.0000
 30
0.0000
 40
0.0381
 41
0.0381
 70
0
  0
VERTEX
  8
26
 10
-0.4991
 20
0.1842
 30
0.0000
 42
1.0000
  0
VERTEX
  8
26
 10
-0.4991
 20
0.1460
 30
0.0000
  0
SEQEND
  8
0
  0
POLYLINE
  8
26
 66
1
 10
0.0000
 20
0.0000
 30
0.0000
 40
0.0381
 41
0.0381
 70
0
  0
VERTEX
  8
26
 10
-0.0899
 20
0.1460
 30
0.0000
 42
1.0000
  0
VERTEX
  8
26
 10
-0.0899
 20
0.1842
 30
0.0000
  0
SEQEND
  8
0
  0
POINT
  8
23
 10
7.6200
 20
2.5400
 30
0.0000
  0
INSERT
  8
39
  2
RECT
 10
7.6200
 20
2.5400
 30
0.0000
 41
3.4000
 42
1.7000
 43
1.0000
 50
270.0000
  0
POLYLINE
  8
25
 66
1
 10
0.0000
 20
0.0000
 30
0.0000
 40
0.0762
 41
0.0762
 70
0
  0
VERTEX
  8
25
 10
9.2447
 20
1.9722
 30
0.0000
  0
VERTEX
  8
25
 10
8.5081
 20
1.9722
 30
0.0000
  0
SEQEND
  8
0
  0
POLYLINE
  8
25
 66
1
 10
0.0000
 20
0.0000
 30
0.0000
 40
0.0381
 41
0.0381
 70
0
  0
VERTEX
  8
25
 10
8.5081
 20
1.9912
 30
0.0000
 42
1.0000
  0
VERTEX
  8
25
 10
8.5081
 20
1.9531
 30
0.0000
  0
SEQEND
  8
0
  0
POLYLINE
  8
25
 66
1
 10
0.0000
 20
0.0000
 30
0.0000
 40
0.0381
 41
0.0381
 70
0
  0
VERTEX
  8
25
 10
9.2447
 20
1.9531
 30
0.0000
 42
1.0000
  0
VERTEX
  8
25
 10
9.2447
 20
1.9912
 30
0.0000
  0
SEQEND
  8
0
  0
POLYLINE
  8
25
 66
1
 10
0.0000
 20
0.0000
 30
0.0000
 40
0.0762
 41
0.0762
 70
0
  0
VERTEX
  8
25
 10
8.5081
 20
1.9722
 30
0.0000
  0
VERTEX
  8
25
 10
8.5081
 20
2.1768
 30
0.0000
  0
SEQEND
  8
0
  0
POLYLINE
  8
25
 66
1
 10
0.0000
 20
0.0000
 30
0.0000
 40
0.0381
 41
0.0381
 70
0
  0
VERTEX
  8
25
 10
8.5272
 20
2.1768
 30
0.0000
 42
1.0000
  0
VERTEX
  8
25
 10
8.4891
 20
2.1768
 30
0.0000
  0
SEQEND
  8
0
  0
POLYLINE
  8
25
 66
1
 10
0.0000
 20
0.0000
 30
0.0000
 40
0.0381
 41
0.0381
 70
0
  0
VERTEX
  8
25
 10
8.4891
 20
1.9722
 30
0.0000
 42
1.0000
  0
VERTEX
  8
25
 10
8.5272
 20
1.9722
 30
0.0000
  0
SEQEND
  8
0
  0
POLYLINE
  8
25
 66
1
 10
0.0000
 20
0.0000
 30
0.0000
 40
0.0762
 41
0.0762
 70
0
  0
VERTEX
  8
25
 10
8.9173
 20
2.1768
 30
0.0000
 42
1.0000
  0
VERTEX
  8
25
 10
8.5081
 20
2.1768
 30
0.0000
  0
SEQEND
  8
0
  0
POLYLINE
  8
25
 66
1
 10
0.0000
 20
0.0000
 30
0.0000
 40
0.0381
 41
0.0381
 70
0
  0
VERTEX
  8
25
 10
8.8983
 20
2.1768
 30
0.0000
 42
1.0000
  0
VERTEX
  8
25
 10
8.9364
 20
2.1768
 30
0.0000
  0
SEQEND
  8
0
  0
POLYLINE
  8
25
 66
1
 10
0.0000
 20
0.0000
 30
0.0000
 40
0.0381
 41
0.0381
 70
0
  0
VERTEX
  8
25
 10
8.4891
 20
2.1768
 30
0.0000
 42
1.0000
  0
VERTEX
  8
25
 10
8.5272
 20
2.1768
 30
0.0000
  0
SEQEND
  8
0
  0
POLYLINE
  8
25
 66
1
 10
0.0000
 20
0.0000
 30
0.0000
 40
0.0762
 41
0.0762
 70
0
  0
VERTEX
  8
25
 10
8.9173
 20
2.1768
 30
0.0000
  0
VERTEX
  8
25
 10
8.9173
 20
1.9722
 30
0.0000
  0
SEQEND
  8
0
  0
POLYLINE
  8
25
 66
1
 10
0.0000
 20
0.0000
 30
0.0000
 40
0.0381
 41
0.0381
 70
0
  0
VERTEX
  8
25
 10
8.8983
 20
1.9722
 30
0.0000
 42
1.0000
  0
VERTEX
  8
25
 10
8.9364
 20
1.9722
 30
0.0000
  0
SEQEND
  8
0
  0
POLYLINE
  8
25
 66
1
 10
0.0000
 20
0.0000
 30
0.0000
 40
0.0381
 41
0.0381
 70
0
  0
VERTEX
  8
25
 10
8.9364
 20
2.1768
 30
0.0000
 42
1.0000
  0
VERTEX
  8
25
 10
8.8983
 20
2.1768
 30
0.0000
  0
SEQEND
  8
0
  0
POLYLINE
  8
25
 66
1
 10
0.0000
 20
0.0000
 30
0.0000
 40
0.0762
 41
0.0762
 70
0
  0
VERTEX
  8
25
 10
9.2447
 20
2.3814
 30
0.0000
  0
VERTEX
  8
25
 10
8.9173
 20
2.2177
 30
0.0000
  0
SEQEND
  8
0
  0
POLYLINE
  8
25
 66
1
 10
0.0000
 20
0.0000
 30
0.0000
 40
0.0381
 41
0.0381
 70
0
  0
VERTEX
  8
25
 10
8.9088
 20
2.2348
 30
0.0000
 42
1.0000
  0
VERTEX
  8
25
 10
8.9258
 20
2.2007
 30
0.0000
  0
SEQEND
  8
0
  0
POLYLINE
  8
25
 66
1
 10
0.0000
 20
0.0000
 30
0.0000
 40
0.0381
 41
0.0381
 70
0
  0
VERTEX
  8
25
 10
9.2532
 20
2.3644
 30
0.0000
 42
1.0000
  0
VERTEX
  8
25
 10
9.2362
 20
2.3984
 30
0.0000
  0
SEQEND
  8
0
  0
POLYLINE
  8
25
 66
1
 10
0.0000
 20
0.0000
 30
0.0000
 40
0.0762
 41
0.0762
 70
0
  0
VERTEX
  8
25
 10
8.6718
 20
2.6986
 30
0.0000
  0
VERTEX
  8
25
 10
8.5081
 20
2.9032
 30
0.0000
  0
SEQEND
  8
0
  0
POLYLINE
  8
25
 66
1
 10
0.0000
 20
0.0000
 30
0.0000
 40
0.0381
 41
0.0381
 70
0
  0
VERTEX
  8
25
 10
8.5230
 20
2.9151
 30
0.0000
 42
1.0000
  0
VERTEX
  8
25
 10
8.4932
 20
2.8913
 30
0.0000
  0
SEQEND
  8
0
  0
POLYLINE
  8
25
 66
1
 10
0.0000
 20
0.0000
 30
0.0000
 40
0.0381
 41
0.0381
 70
0
  0
VERTEX
  8
25
 10
8.6569
 20
2.6867
 30
0.0000
 42
1.0000
  0
VERTEX
  8
25
 10
8.6867
 20
2.7105
 30
0.0000
  0
SEQEND
  8
0
  0
POLYLINE
  8
25
 66
1
 10
0.0000
 20
0.0000
 30
0.0000
 40
0.0762
 41
0.0762
 70
0
  0
VERTEX
  8
25
 10
8.5081
 20
2.9032
 30
0.0000
  0
VERTEX
  8
25
 10
9.2447
 20
2.9032
 30
0.0000
  0
SEQEND
  8
0
  0
POLYLINE
  8
25
 66
1
 10
0.0000
 20
0.0000
 30
0.0000
 40
0.0381
 41
0.0381
 70
0
  0
VERTEX
  8
25
 10
9.2447
 20
2.8841
 30
0.0000
 42
1.0000
  0
VERTEX
  8
25
 10
9.2447
 20
2.9223
 30
0.0000
  0
SEQEND
  8
0
  0
POLYLINE
  8
25
 66
1
 10
0.0000
 20
0.0000
 30
0.0000
 40
0.0381
 41
0.0381
 70
0
  0
VERTEX
  8
25
 10
8.5081
 20
2.9223
 30
0.0000
 42
1.0000
  0
VERTEX
  8
25
 10
8.5081
 20
2.8841
 30
0.0000
  0
SEQEND
  8
0
  0
POLYLINE
  8
25
 66
1
 10
0.0000
 20
0.0000
 30
0.0000
 40
0.0762
 41
0.0762
 70
0
  0
VERTEX
  8
25
 10
9.2447
 20
2.6986
 30
0.0000
  0
VERTEX
  8
25
 10
9.2447
 20
3.1078
 30
0.0000
  0
SEQEND
  8
0
  0
POLYLINE
  8
25
 66
1
 10
0.0000
 20
0.0000
 30
0.0000
 40
0.0381
 41
0.0381
 70
0
  0
VERTEX
  8
25
 10
9.2637
 20
3.1078
 30
0.0000
 42
1.0000
  0
VERTEX
  8
25
 10
9.2256
 20
3.1078
 30
0.0000
  0
SEQEND
  8
0
  0
POLYLINE
  8
25
 66
1
 10
0.0000
 20
0.0000
 30
0.0000
 40
0.0381
 41
0.0381
 70
0
  0
VERTEX
  8
25
 10
9.2256
 20
2.6986
 30
0.0000
 42
1.0000
  0
VERTEX
  8
25
 10
9.2637
 20
2.6986
 30
0.0000
  0
SEQEND
  8
0
  0
POINT
  8
23
 10
12.7000
 20
2.5400
 30
0.0000
  0
INSERT
  8
39
  2
RECT
 10
12.7000
 20
2.5400
 30
0.0000
 41
3.4000
 42
1.7000
 43
1.0000
 50
270.0000
  0
POLYLINE
  8
25
 66
1
 10
0.0000
 20
0.0000
 30
0.0000
 40
0.0762
 41
0.0762
 70
0
  0
VERTEX
  8
25
 10
14.3247
 20
1.9722
 30
0.0000
  0
VERTEX
  8
25
 10
13.5881
 20
1.9722
 30
0.0000
  0
SEQEND
  8
0
  0
POLYLINE
  8
25
 66
1
 10
0.0000
 20
0.0000
 30
0.0000
 40
0.0381
 41
0.0381
 70
0
  0
VERTEX
  8
25
 10
13.5881
 20
1.9912
 30
0.0000
 42
1.0000
  0
VERTEX
  8
25
 10
13.5881
 20
1.9531
 30
0.0000
  0
SEQEND
  8
0
  0
POLYLINE
  8
25
 66
1
 10
0.0000
 20
0.0000
 30
0.0000
 40
0.0381
 41
0.0381
 70
0
  0
VERTEX
  8
25
 10
14.3247
 20
1.9531
 30
0.0000
 42
1.0000
  0
VERTEX
  8
25
 10
14.3247
 20
1.9912
 30
0.0000
  0
SEQEND
  8
0
  0
POLYLINE
  8
25
 66
1
 10
0.0000
 20
0.0000
 30
0.0000
 40
0.0762
 41
0.0762
 70
0
  0
VERTEX
  8
25
 10
13.5881
 20
1.9722
 30
0.0000
  0
VERTEX
  8
25
 10
13.5881
 20
2.1768
 30
0.0000
  0
SEQEND
  8
0
  0
POLYLINE
  8
25
 66
1
 10
0.0000
 20
0.0000
 30
0.0000
 40
0.0381
 41
0.0381
 70
0
  0
VERTEX
  8
25
 10
13.6072
 20
2.1768
 30
0.0000
 42
1.0000
  0
VERTEX
  8
25
 10
13.5691
 20
2.1768
 30
0.0000
  0
SEQEND
  8
0
  0
POLYLINE
  8
25
 66
1
 10
0.0000
 20
0.0000
 30
0.0000
 40
0.0381
 41
0.0381
 70
0
  0
VERTEX
  8
25
 10
13.5691
 20
1.9722
 30
0.0000
 42
1.0000
  0
VERTEX
  8
25
 10
13.6072
 20
1.9722
 30
0.0000
  0
SEQEND
  8
0
  0
POLYLINE
  8
25
 66
1
 10
0.0000
 20
0.0000
 30
0.0000
 40
0.0762
 41
0.0762
 70
0
  0
VERTEX
  8
25
 10
13.9973
 20
2.1768
 30
0.0000
 42
1.0000
  0
VERTEX
  8
25
 10
13.5881
 20
2.1768
 30
0.0000
  0
SEQEND
  8
0
  0
POLYLINE
  8
25
 66
1
 10
0.0000
 20
0.0000
 30
0.0000
 40
0.0381
 41
0.0381
 70
0
  0
VERTEX
  8
25
 10
13.9783
 20
2.1768
 30
0.0000
 42
1.0000
  0
VERTEX
  8
25
 10
14.0164
 20
2.1768
 30
0.0000
  0
SEQEND
  8
0
  0
POLYLINE
  8
25
 66
1
 10
0.0000
 20
0.0000
 30
0.0000
 40
0.0381
 41
0.0381
 70
0
  0
VERTEX
  8
25
 10
13.5691
 20
2.1768
 30
0.0000
 42
1.0000
  0
VERTEX
  8
25
 10
13.6072
 20
2.1768
 30
0.0000
  0
SEQEND
  8
0
  0
POLYLINE
  8
25
 66
1
 10
0.0000
 20
0.0000
 30
0.0000
 40
0.0762
 41
0.0762
 70
0
  0
VERTEX
  8
25
 10
13.9973
 20
2.1768
 30
0.0000
  0
VERTEX
  8
25
 10
13.9973
 20
1.9722
 30
0.0000
  0
SEQEND
  8
0
  0
POLYLINE
  8
25
 66
1
 10
0.0000
 20
0.0000
 30
0.0000
 40
0.0381
 41
0.0381
 70
0
  0
VERTEX
  8
25
 10
13.9783
 20
1.9722
 30
0.0000
 42
1.0000
  0
VERTEX
  8
25
 10
14.0164
 20
1.9722
 30
0.0000
  0
SEQEND
  8
0
  0
POLYLINE
  8
25
 66
1
 10
0.0000
 20
0.0000
 30
0.0000
 40
0.0381
 41
0.0381
 70
0
  0
VERTEX
  8
25
 10
14.0164
 20
2.1768
 30
0.0000
 42
1.0000
  0
VERTEX
  8
25
 10
13.9783
 20
2.1768
 30
0.0000
  0
SEQEND
  8
0
  0
POLYLINE
  8
25
 66
1
 10
0.0000
 20
0.0000
 30
0.0000
 40
0.0762
 41
0.0762
 70
0
  0
VERTEX
  8
25
 10
14.3247
 20
2.3814
 30
0.0000
  0
VERTEX
  8
25
 10
13.9973
 20
2.2177
 30
0.0000
  0
SEQEND
  8
0
  0
POLYLINE
  8
25
 66
1
 10
0.0000
 20
0.0000
 30
0.0000
 40
0.0381
 41
0.0381
 70
0
  0
VERTEX
  8
25
 10
13.9888
 20
2.2348
 30
0.0000
 42
1.0000
  0
VERTEX
  8
25
 10
14.0058
 20
2.2007
 30
0.0000
  0
SEQEND
  8
0
  0
POLYLINE
  8
25
 66
1
 10
0.0000
 20
0.0000
 30
0.0000
 40
0.0381
 41
0.0381
 70
0
  0
VERTEX
  8
25
 10
14.3332
 20
2.3644
 30
0.0000
 42
1.0000
  0
VERTEX
  8
25
 10
14.3162
 20
2.3984
 30
0.0000
  0
SEQEND
  8
0
  0
POLYLINE
  8
25
 66
1
 10
0.0000
 20
0.0000
 30
0.0000
 40
0.0762
 41
0.0762
 70
0
  0
VERTEX
  8
25
 10
13.7723
 20
3.1078
 30
0.0000
 42
0.4142
  0
VERTEX
  8
25
 10
13.5881
 20
2.9237
 30
0.0000
  0
SEQEND
  8
0
  0
POLYLINE
  8
25
 66
1
 10
0.0000
 20
0.0000
 30
0.0000
 40
0.0381
 41
0.0381
 70
0
  0
VERTEX
  8
25
 10
13.7723
 20
3.0888
 30
0.0000
 42
1.0000
  0
VERTEX
  8
25
 10
13.7723
 20
3.1269
 30
0.0000
  0
SEQEND
  8
0
  0
POLYLINE
  8
25
 66
1
 10
0.0000
 20
0.0000
 30
0.0000
 40
0.0381
 41
0.0381
 70
0
  0
VERTEX
  8
25
 10
13.5691
 20
2.9237
 30
0.0000
 42
1.0000
  0
VERTEX
  8
25
 10
13.6072
 20
2.9237
 30
0.0000
  0
SEQEND
  8
0
  0
POLYLINE
  8
25
 66
1
 10
0.0000
 20
0.0000
 30
0.0000
 40
0.0762
 41
0.0762
 70
0
  0
VERTEX
  8
25
 10
13.5881
 20
2.9237
 30
0.0000
 42
0.3252
  0
VERTEX
  8
25
 10
13.7518
 20
2.6986
 30
0.0000
  0
SEQEND
  8
0
  0
POLYLINE
  8
25
 66
1
 10
0.0000
 20
0.0000
 30
0.0000
 40
0.0381
 41
0.0381
 70
0
  0
VERTEX
  8
25
 10
13.6071
 20
2.9237
 30
0.0000
 42
1.0000
  0
VERTEX
  8
25
 10
13.5691
 20
2.9237
 30
0.0000
  0
SEQEND
  8
0
  0
POLYLINE
  8
25
 66
1
 10
0.0000
 20
0.0000
 30
0.0000
 40
0.0381
 41
0.0381
 70
0
  0
VERTEX
  8
25
 10
13.7459
 20
2.6805
 30
0.0000
 42
1.0000
  0
VERTEX
  8
25
 10
13.7577
 20
2.7167
 30
0.0000
  0
SEQEND
  8
0
  0
POLYLINE
  8
25
 66
1
 10
0.0000
 20
0.0000
 30
0.0000
 40
0.0762
 41
0.0762
 70
0
  0
VERTEX
  8
25
 10
13.9155
 20
3.0464
 30
0.0000
 42
0.2053
  0
VERTEX
  8
25
 10
13.7723
 20
3.1078
 30
0.0000
  0
SEQEND
  8
0
  0
POLYLINE
  8
25
 66
1
 10
0.0000
 20
0.0000
 30
0.0000
 40
0.0381
 41
0.0381
 70
0
  0
VERTEX
  8
25
 10
13.9017
 20
3.0333
 30
0.0000
 42
1.0000
  0
VERTEX
  8
25
 10
13.9293
 20
3.0596
 30
0.0000
  0
SEQEND
  8
0
  0
POLYLINE
  8
25
 66
1
 10
0.0000
 20
0.0000
 30
0.0000
 40
0.0381
 41
0.0381
 70
0
  0
VERTEX
  8
25
 10
13.7722
 20
3.1269
 30
0.0000
 42
1.0000
  0
VERTEX
  8
25
 10
13.7723
 20
3.0888
 30
0.0000
  0
SEQEND
  8
0
  0
POLYLINE
  8
25
 66
1
 10
0.0000
 20
0.0000
 30
0.0000
 40
0.0762
 41
0.0762
 70
0
  0
VERTEX
  8
25
 10
13.9155
 20
3.0464
 30
0.0000
  0
VERTEX
  8
25
 10
14.3247
 20
2.6986
 30
0.0000
  0
SEQEND
  8
0
  0
POLYLINE
  8
25
 66
1
 10
0.0000
 20
0.0000
 30
0.0000
 40
0.0381
 41
0.0381
 70
0
  0
VERTEX
  8
25
 10
14.3124
 20
2.6841
 30
0.0000
 42
1.0000
  0
VERTEX
  8
25
 10
14.3370
 20
2.7131
 30
0.0000
  0
SEQEND
  8
0
  0
POLYLINE
  8
25
 66
1
 10
0.0000
 20
0.0000
 30
0.0000
 40
0.0381
 41
0.0381
 70
0
  0
VERTEX
  8
25
 10
13.9278
 20
3.0609
 30
0.0000
 42
1.0000
  0
VERTEX
  8
25
 10
13.9031
 20
3.0319
 30
0.0000
  0
SEQEND
  8
0
  0
POLYLINE
  8
25
 66
1
 10
0.0000
 20
0.0000
 30
0.0000
 40
0.0762
 41
0.0762
 70
0
  0
VERTEX
  8
25
 10
14.3247
 20
2.6986
 30
0.0000
  0
VERTEX
  8
25
 10
14.3247
 20
3.1078
 30
0.0000
  0
SEQEND
  8
0
  0
POLYLINE
  8
25
 66
1
 10
0.0000
 20
0.0000
 30
0.0000
 40
0.0381
 41
0.0381
 70
0
  0
VERTEX
  8
25
 10
14.3438
 20
3.1078
 30
0.0000
 42
1.0000
  0
VERTEX
  8
25
 10
14.3056
 20
3.1078
 30
0.0000
  0
SEQEND
  8
0
  0
POLYLINE
  8
25
 66
1
 10
0.0000
 20
0.0000
 30
0.0000
 40
0.0381
 41
0.0381
 70
0
  0
VERTEX
  8
25
 10
14.3056
 20
2.6986
 30
0.0000
 42
1.0000
  0
VERTEX
  8
25
 10
14.3438
 20
2.6986
 30
0.0000
  0
SEQEND
  8
0
  0
POINT
  8
24
 10
19.0500
 20
2.5400
 30
0.0000
  0
INSERT
  8
40
  2
RECT
 10
19.0500
 20
2.5400
 30
0.0000
 41
2.9000
 42
1.5000
 43
1.0000
 50
0.0000
  0
POLYLINE
  8
26
 66
1
 10
0.0000
 20
0.0000
 30
0.0000
 40
0.0762
 41
0.0762
 70
0
  0
VERTEX
  8
26
 10
19.6178
 20
1.1303
 30
0.0000
  0
VERTEX
  8
26
 10
19.6178
 20
1.8669
 30
0.0000
  0
SEQEND
  8
0
  0
POLYLINE
  8
26
 66
1
 10
0.0000
 20
0.0000
 30
0.0000
 40
0.0381
 41
0.0381
 70
0
  0
VERTEX
  8
26
 10
19.6369
 20
1.8669
 30
0.0000
 42
1.0000
  0
VERTEX
  8
26
 10
19.5988
 20
1.8669
 30
0.0000
  0
SEQEND
  8
0
  0
POLYLINE
  8
26
 66
1
 10
0.0000
 20
0.0000
 30
0.0000
 40
0.0381
 41
0.0381
 70
0
  0
VERTEX
  8
26
 10
19.5988
 20
1.1303
 30
0.0000
 42
1.0000
  0
VERTEX
  8
26
 10
19.6369
 20
1.1303
 30
0.0000
  0
SEQEND
  8
0
  0
POLYLINE
  8
26
 66
1
 10
0.0000
 20
0.0000
 30
0.0000
 40
0.0762
 41
0.0762
 70
0
  0
VERTEX
  8
26
 10
19.6178
 20
1.8669
 30
0.0000
  0
VERTEX
  8
26
 10
19.4132
 20
1.8669
 30
0.0000
  0
SEQEND
  8
0
  0
POLYLINE
  8
26
 66
1
 10
0.0000
 20
0.0000
 30
0.0000
 40
0.0381
 41
0.0381
 70
0
  0
VERTEX
  8
26
 10
19.4132
 20
1.8860
 30
0.0000
 42
1.0000
  0
VERTEX
  8
26
 10
19.4132
 20
1.8478
 30
0.0000
  0
SEQEND
  8
0
  0
POLYLINE
  8
26
 66
1
 10
0.0000
 20
0.0000
 30
0.0000
 40
0.0381
 41
0.0381
 70
0
  0
VERTEX
  8
26
 10
19.6178
 20
1.8478
 30
0.0000
 42
1.0000
  0
VERTEX
  8
26
 10
19.6178
 20
1.8860
 30
0.0000
  0
SEQEND
  8
0
  0
POLYLINE
  8
26
 66
1
 10
0.0000
 20
0.0000
 30
0.0000
 40
0.0762
 41
0.0762
 70
0
  0
VERTEX
  8
26
 10
19.4132
 20
1.8669
 30
0.0000
 42
1.0000
  0
VERTEX
  8
26
 10
19.4132
 20
1.4577
 30
0.0000
  0
SEQEND
  8
0
  0
POLYLINE
  8
26
 66
1
 10
0.0000
 20
0.0000
 30
0.0000
 40
0.0381
 41
0.0381
 70
0
  0
VERTEX
  8
26
 10
19.4132
 20
1.8478
 30
0.0000
 42
1.0000
  0
VERTEX
  8
26
 10
19.4132
 20
1.8860
 30
0.0000
  0
SEQEND
  8
0
  0
POLYLINE
  8
26
 66
1
 10
0.0000
 20
0.0000
 30
0.0000
 40
0.0381
 41
0.0381
 70
0
  0
VERTEX
  8
26
 10
19.4132
 20
1.4386
 30
0.0000
 42
1.0000
  0
VERTEX
  8
26
 10
19.4132
 20
1.4767
 30
0.0000
  0
SEQEND
  8
0
  0
POLYLINE
  8
26
 66
1
 10
0.0000
 20
0.0000
 30
0.0000
 40
0.0762
 41
0.0762
 70
0
  0
VERTEX
  8
26
 10
19.4132
 20
1.4577
 30
0.0000
  0
VERTEX
  8
26
 10
19.6178
 20
1.4577
 30
0.0000
  0
SEQEND
  8
0
  0
POLYLINE
  8
26
 66
1
 10
0.0000
 20
0.0000
 30
0.0000
 40
0.0381
 41
0.0381
 70
0
  0
VERTEX
  8
26
 10
19.6178
 20
1.4386
 30
0.0000
 42
1.0000
  0
VERTEX
  8
26
 10
19.6178
 20
1.4767
 30
0.0000
  0
SEQEND
  8
0
  0
POLYLINE
  8
26
 66
1
 10
0.0000
 20
0.0000
 30
0.0000
 40
0.0381
 41
0.0381
 70
0
  0
VERTEX
  8
26
 10
19.4132
 20
1.4767
 30
0.0000
 42
1.0000
  0
VERTEX
  8
26
 10
19.4132
 20
1.4386
 30
0.0000
  0
SEQEND
  8
0
  0
POLYLINE
  8
26
 66
1
 10
0.0000
 20
0.0000
 30
0.0000
 40
0.0762
 41
0.0762
 70
0
  0
VERTEX
  8
26
 10
19.2086
 20
1.1303
 30
0.0000
  0
VERTEX
  8
26
 10
19.3723
 20
1.4577
 30
0.0000
  0
SEQEND
  8
0
  0
POLYLINE
  8
26
 66
1
 10
0.0000
 20
0.0000
 30
0.0000
 40
0.0381
 41
0.0381
 70
0
  0
VERTEX
  8
26
 10
19.3893
 20
1.4492
 30
0.0000
 42
1.0000
  0
VERTEX
  8
26
 10
19.3552
 20
1.4662
 30
0.0000
  0
SEQEND
  8
0
  0
POLYLINE
  8
26
 66
1
 10
0.0000
 20
0.0000
 30
0.0000
 40
0.0381
 41
0.0381
 70
0
  0
VERTEX
  8
26
 10
19.1916
 20
1.1388
 30
0.0000
 42
1.0000
  0
VERTEX
  8
26
 10
19.2256
 20
1.1218
 30
0.0000
  0
SEQEND
  8
0
  0
POLYLINE
  8
26
 66
1
 10
0.0000
 20
0.0000
 30
0.0000
 40
0.0762
 41
0.0762
 70
0
  0
VERTEX
  8
26
 10
18.8914
 20
1.1303
 30
0.0000
  0
VERTEX
  8
26
 10
18.6868
 20
1.1303
 30
0.0000
  0
SEQEND
  8
0
  0
POLYLINE
  8
26
 66
1
 10
0.0000
 20
0.0000
 30
0.0000
 40
0.0381
 41
0.0381
 70
0
  0
VERTEX
  8
26
 10
18.6868
 20
1.1494
 30
0.0000
 42
1.0000
  0
VERTEX
  8
26
 10
18.6868
 20
1.1113
 30
0.0000
  0
SEQEND
  8
0
  0
POLYLINE
  8
26
 66
1
 10
0.0000
 20
0.0000
 30
0.0000
 40
0.0381
 41
0.0381
 70
0
  0
VERTEX
  8
26
 10
18.8914
 20
1.1113
 30
0.0000
 42
1.0000
  0
VERTEX
  8
26
 10
18.8914
 20
1.1494
 30
0.0000
  0
SEQEND
  8
0
  0
POLYLINE
  8
26
 66
1
 10
0.0000
 20
0.0000
 30
0.0000
 40
0.0762
 41
0.0762
 70
0
  0
VERTEX
  8
26
 10
18.6868
 20
1.5395
 30
0.0000
 42
1.0000
  0
VERTEX
  8
26
 10
18.6868
 20
1.1303
 30
0.0000
  0
SEQEND
  8
0
  0
POLYLINE
  8
26
 66
1
 10
0.0000
 20
0.0000
 30
0.0000
 40
0.0381
 41
0.0381
 70
0
  0
VERTEX
  8
26
 10
18.6868
 20
1.5205
 30
0.0000
 42
1.0000
  0
VERTEX
  8
26
 10
18.6868
 20
1.5586
 30
0.0000
  0
SEQEND
  8
0
  0
POLYLINE
  8
26
 66
1
 10
0.0000
 20
0.0000
 30
0.0000
 40
0.0381
 41
0.0381
 70
0
  0
VERTEX
  8
26
 10
18.6868
 20
1.1113
 30
0.0000
 42
1.0000
  0
VERTEX
  8
26
 10
18.6868
 20
1.1494
 30
0.0000
  0
SEQEND
  8
0
  0
POLYLINE
  8
26
 66
1
 10
0.0000
 20
0.0000
 30
0.0000
 40
0.0762
 41
0.0762
 70
0
  0
VERTEX
  8
26
 10
18.8914
 20
1.8669
 30
0.0000
  0
VERTEX
  8
26
 10
18.6459
 20
1.8669
 30
0.0000
  0
SEQEND
  8
0
  0
POLYLINE
  8
26
 66
1
 10
0.0000
 20
0.0000
 30
0.0000
 40
0.0381
 41
0.0381
 70
0
  0
VERTEX
  8
26
 10
18.6459
 20
1.8860
 30
0.0000
 42
1.0000
  0
VERTEX
  8
26
 10
18.6459
 20
1.8478
 30
0.0000
  0
SEQEND
  8
0
  0
POLYLINE
  8
26
 66
1
 10
0.0000
 20
0.0000
 30
0.0000
 40
0.0381
 41
0.0381
 70
0
  0
VERTEX
  8
26
 10
18.8914
 20
1.8478
 30
0.0000
 42
1.0000
  0
VERTEX
  8
26
 10
18.8914
 20
1.8860
 30
0.0000
  0
SEQEND
  8
0
  0
POLYLINE
  8
26
 66
1
 10
0.0000
 20
0.0000
 30
0.0000
 40
0.0762
 41
0.0762
 70
0
  0
VERTEX
  8
26
 10
18.6459
 20
1.8669
 30
0.0000
 42
1.0000
  0
VERTEX
  8
26
 10
18.6459
 20
1.5395
 30
0.0000
  0
SEQEND
  8
0
  0
POLYLINE
  8
26
 66
1
 10
0.0000
 20
0.0000
 30
0.0000
 40
0.0381
 41
0.0381
 70
0
  0
VERTEX
  8
26
 10
18.6459
 20
1.8478
 30
0.0000
 42
1.0000
  0
VERTEX
  8
26
 10
18.6459
 20
1.8860
 30
0.0000
  0
SEQEND
  8
0
  0
POLYLINE
  8
26
 66
1
 10
0.0000
 20
0.0000
 30
0.0000
 40
0.0381
 41
0.0381
 70
0
  0
VERTEX
  8
26
 10
18.6459
 20
1.5205
 30
0.0000
 42
1.0000
  0
VERTEX
  8
26
 10
18.6459
 20
1.5586
 30
0.0000
  0
SEQEND
  8
0
  0
POLYLINE
  8
26
 66
1
 10
0.0000
 20
0.0000
 30
0.0000
 40
0.0762
 41
0.0762
 70
0
  0
VERTEX
  8
26
 10
18.6459
 20
1.5395
 30
0.0000
  0
VERTEX
  8
26
 10
18.8096
 20
1.5395
 30
0.0000
  0
SEQEND
  8
0
  0
POLYLINE
  8
26
 66
1
 10
0.0000
 20
0.0000
 30
0.0000
 40
0.0381
 41
0.0381
 70
0
  0
VERTEX
  8
26
 10
18.8096
 20
1.5205
 30
0.0000
 42
1.0000
  0
VERTEX
  8
26
 10
18.8096
 20
1.5586
 30
0.0000
  0
SEQEND
  8
0
  0
POLYLINE
  8
26
 66
1
 10
0.0000
 20
0.0000
 30
0.0000
 40
0.0381
 41
0.0381
 70
0
  0
VERTEX
  8
26
 10
18.6459
 20
1.5586
 30
0.0000
 42
1.0000
  0
VERTEX
  8
26
 10
18.6459
 20
1.5205
 30
0.0000
  0
SEQEND
  8
0
  0
POINT
  8
24
 10
-25.4000
 20
7.6200
 30
0.0000
  0
POINT
  8
23
 10
-12.7000
 20
6.3500
 30
0.0000
  0
POINT
  8
24
 10
26.6700
 20
7.6200
 30
0.0000
  0
ENDSEC
  0
EOF
