  0
SECTION
  2
HEADER
  9
$ACADVER
  1
AC1009
  9
$FILLMODE
 70
1
  9
$EXTMIN
 10
-0.6071
 20
-86.1080
 30
0.0000
  9
$EXTMAX
 10
274.8280
 20
8.5090
 30
0.0000
  0
ENDSEC
  0
SECTION
  2
TABLES
  0
TABLE
  2
LTYPE
 70
1
  0
LTYPE
  2
CONTINUOUS
 70
64
  3
Solid line
 72
65
 73
0
 40
0
  0
ENDTAB
  0
TABLE
  2
LAYER
 70
255
  0
LAYER
  2
16
 70
64
 62
132
  6
CONTINUOUS
  0
LAYER
  2
20
 70
64
 62
31
  6
CONTINUOUS
  0
ENDTAB
  0
ENDSEC
  0
SECTION
  2
BLOCKS
  0
BLOCK
  8
0
  2
RECT
 70
64
 10
0.0000
 20
0.0000
 30
0.0000
  3
RECT
  0
SOLID
  8
0
 10
-0.5000
 20
-0.5000
 30
0.0000
 11
0.5000
 21
-0.5000
 31
0.0000
 12
-0.5000
 22
0.5000
 32
0.0000
 13
0.5000
 23
0.5000
 33
0.0000
  0
ENDBLK
  8
0
  0
BLOCK
  8
0
  2
PIE
 70
64
 10
0.0000
 20
0.0000
 30
0.0000
  3
PIE
  0
POLYLINE
  8
0
 66
1
 10
0.0000
 20
0.0000
 30
0.0000
 40
0.5000
 41
0.5000
 70
0
  0
VERTEX
  8
0
 10
0.0000
 20
-0.2500
 30
0.0000
 42
1.0000
  0
VERTEX
  8
0
 10
0.0000
 20
0.2500
 30
0.0000
 42
1.0000
  0
VERTEX
  8
0
 10
0.0000
 20
-0.2500
 30
0.0000
  0
SEQEND
  8
0
  0
ENDBLK
  8
0
  0
BLOCK
  8
0
  2
OCTAGONP
 70
64
 10
0.0000
 20
0.0000
 30
0.0000
  3
OCTAGONP
  0
POLYLINE
  8
0
 66
1
 10
0.0000
 20
0.0000
 30
0.0000
 40
0.5000
 41
0.5000
 70
0
  0
VERTEX
  8
0
 10
-0.2500
 20
-0.1036
 30
0.0000
  0
VERTEX
  8
0
 10
-0.2500
 20
0.1036
 30
0.0000
  0
VERTEX
  8
0
 10
-0.1036
 20
0.2500
 30
0.0000
  0
VERTEX
  8
0
 10
0.1036
 20
0.2500
 30
0.0000
  0
VERTEX
  8
0
 10
0.2500
 20
0.1036
 30
0.0000
  0
VERTEX
  8
0
 10
0.2500
 20
-0.1036
 30
0.0000
  0
VERTEX
  8
0
 10
0.1036
 20
-0.2500
 30
0.0000
  0
VERTEX
  8
0
 10
-0.1036
 20
-0.2500
 30
0.0000
  0
VERTEX
  8
0
 10
-0.2500
 20
-0.1036
 30
0.0000
  0
VERTEX
  8
0
 10
-0.2500
 20
0.1036
 30
0.0000
  0
SEQEND
  8
0
  0
ENDBLK
  8
0
  0
BLOCK
  8
0
  2
SQUAREP
 70
64
 10
0.0000
 20
0.0000
 30
0.0000
  3
SQUAREP
  0
SOLID
  8
0
 10
-0.5000
 20
-0.5000
 30
0.0000
 11
0.5000
 21
-0.5000
 31
0.0000
 12
-0.5000
 22
0.5000
 32
0.0000
 13
0.5000
 23
0.5000
 33
0.0000
  0
ENDBLK
  8
0
  0
BLOCK
  8
0
  2
ROUNDP
 70
64
 10
0.0000
 20
0.0000
 30
0.0000
  3
ROUNDP
  0
POLYLINE
  8
0
 66
1
 10
0.0000
 20
0.0000
 30
0.0000
 40
0.5000
 41
0.5000
 70
0
  0
VERTEX
  8
0
 10
0.0000
 20
-0.2500
 30
0.0000
 42
1.0000
  0
VERTEX
  8
0
 10
0.0000
 20
0.2500
 30
0.0000
 42
1.0000
  0
VERTEX
  8
0
 10
0.0000
 20
-0.2500
 30
0.0000
  0
SEQEND
  8
0
  0
ENDBLK
  8
0
  0
BLOCK
  8
0
  2
ANNULUSP
 70
64
 10
0.0000
 20
0.0000
 30
0.0000
  3
ANNULUSP
  0
POLYLINE
  8
0
 66
1
 10
0.0000
 20
0.0000
 30
0.0000
 40
0.5000
 41
0.5000
 70
0
  0
VERTEX
  8
0
 10
0.0000
 20
-0.2500
 30
0.0000
 42
1.0000
  0
VERTEX
  8
0
 10
0.0000
 20
0.2500
 30
0.0000
 42
1.0000
  0
VERTEX
  8
0
 10
0.0000
 20
-0.2500
 30
0.0000
  0
SEQEND
  8
0
  0
ENDBLK
  8
0
  0
BLOCK
  8
0
  2
THERMALP
 70
64
 10
0.0000
 20
0.0000
 30
0.0000
  3
THERMALP
  0
POLYLINE
  8
0
 66
1
 10
0.0000
 20
0.0000
 30
0.0000
 40
0.1000
 41
0.1000
 70
0
  0
VERTEX
  8
0
 10
-0.2379
 20
0.4500
 30
0.0000
  0
VERTEX
  8
0
 10
0.2379
 20
0.4500
 30
0.0000
  0
SEQEND
  8
0
  0
POLYLINE
  8
0
 66
1
 10
0.0000
 20
0.0000
 30
0.0000
 40
0.0500
 41
0.0500
 70
0
  0
VERTEX
  8
0
 10
0.2379
 20
0.4250
 30
0.0000
 42
1.0000
  0
VERTEX
  8
0
 10
0.2379
 20
0.4750
 30
0.0000
  0
SEQEND
  8
0
  0
POLYLINE
  8
0
 66
1
 10
0.0000
 20
0.0000
 30
0.0000
 40
0.0500
 41
0.0500
 70
0
  0
VERTEX
  8
0
 10
-0.2379
 20
0.4750
 30
0.0000
 42
1.0000
  0
VERTEX
  8
0
 10
-0.2379
 20
0.4250
 30
0.0000
  0
SEQEND
  8
0
  0
POLYLINE
  8
0
 66
1
 10
0.0000
 20
0.0000
 30
0.0000
 40
0.1000
 41
0.1000
 70
0
  0
VERTEX
  8
0
 10
0.4500
 20
0.2379
 30
0.0000
  0
VERTEX
  8
0
 10
0.4500
 20
-0.2379
 30
0.0000
  0
SEQEND
  8
0
  0
POLYLINE
  8
0
 66
1
 10
0.0000
 20
0.0000
 30
0.0000
 40
0.0500
 41
0.0500
 70
0
  0
VERTEX
  8
0
 10
0.4250
 20
-0.2379
 30
0.0000
 42
1.0000
  0
VERTEX
  8
0
 10
0.4750
 20
-0.2379
 30
0.0000
  0
SEQEND
  8
0
  0
POLYLINE
  8
0
 66
1
 10
0.0000
 20
0.0000
 30
0.0000
 40
0.0500
 41
0.0500
 70
0
  0
VERTEX
  8
0
 10
0.4750
 20
0.2379
 30
0.0000
 42
1.0000
  0
VERTEX
  8
0
 10
0.4250
 20
0.2379
 30
0.0000
  0
SEQEND
  8
0
  0
POLYLINE
  8
0
 66
1
 10
0.0000
 20
0.0000
 30
0.0000
 40
0.1000
 41
0.1000
 70
0
  0
VERTEX
  8
0
 10
0.2379
 20
-0.4500
 30
0.0000
  0
VERTEX
  8
0
 10
-0.2379
 20
-0.4500
 30
0.0000
  0
SEQEND
  8
0
  0
POLYLINE
  8
0
 66
1
 10
0.0000
 20
0.0000
 30
0.0000
 40
0.0500
 41
0.0500
 70
0
  0
VERTEX
  8
0
 10
-0.2379
 20
-0.4250
 30
0.0000
 42
1.0000
  0
VERTEX
  8
0
 10
-0.2379
 20
-0.4750
 30
0.0000
  0
SEQEND
  8
0
  0
POLYLINE
  8
0
 66
1
 10
0.0000
 20
0.0000
 30
0.0000
 40
0.0500
 41
0.0500
 70
0
  0
VERTEX
  8
0
 10
0.2379
 20
-0.4750
 30
0.0000
 42
1.0000
  0
VERTEX
  8
0
 10
0.2379
 20
-0.4250
 30
0.0000
  0
SEQEND
  8
0
  0
POLYLINE
  8
0
 66
1
 10
0.0000
 20
0.0000
 30
0.0000
 40
0.1000
 41
0.1000
 70
0
  0
VERTEX
  8
0
 10
-0.4500
 20
-0.2379
 30
0.0000
  0
VERTEX
  8
0
 10
-0.4500
 20
0.2379
 30
0.0000
  0
SEQEND
  8
0
  0
POLYLINE
  8
0
 66
1
 10
0.0000
 20
0.0000
 30
0.0000
 40
0.0500
 41
0.0500
 70
0
  0
VERTEX
  8
0
 10
-0.4250
 20
0.2379
 30
0.0000
 42
1.0000
  0
VERTEX
  8
0
 10
-0.4750
 20
0.2379
 30
0.0000
  0
SEQEND
  8
0
  0
POLYLINE
  8
0
 66
1
 10
0.0000
 20
0.0000
 30
0.0000
 40
0.0500
 41
0.0500
 70
0
  0
VERTEX
  8
0
 10
-0.4750
 20
-0.2379
 30
0.0000
 42
1.0000
  0
VERTEX
  8
0
 10
-0.4250
 20
-0.2379
 30
0.0000
  0
SEQEND
  8
0
  0
ENDBLK
  8
0
  0
BLOCK
  8
0
  2
OCTAGONV
 70
64
 10
0.0000
 20
0.0000
 30
0.0000
  3
OCTAGONV
  0
POLYLINE
  8
0
 66
1
 10
0.0000
 20
0.0000
 30
0.0000
 40
0.5000
 41
0.5000
 70
0
  0
VERTEX
  8
0
 10
-0.2500
 20
-0.1036
 30
0.0000
  0
VERTEX
  8
0
 10
-0.2500
 20
0.1036
 30
0.0000
  0
VERTEX
  8
0
 10
-0.1036
 20
0.2500
 30
0.0000
  0
VERTEX
  8
0
 10
0.1036
 20
0.2500
 30
0.0000
  0
VERTEX
  8
0
 10
0.2500
 20
0.1036
 30
0.0000
  0
VERTEX
  8
0
 10
0.2500
 20
-0.1036
 30
0.0000
  0
VERTEX
  8
0
 10
0.1036
 20
-0.2500
 30
0.0000
  0
VERTEX
  8
0
 10
-0.1036
 20
-0.2500
 30
0.0000
  0
VERTEX
  8
0
 10
-0.2500
 20
-0.1036
 30
0.0000
  0
VERTEX
  8
0
 10
-0.2500
 20
0.1036
 30
0.0000
  0
SEQEND
  8
0
  0
ENDBLK
  8
0
  0
BLOCK
  8
0
  2
SQUAREV
 70
64
 10
0.0000
 20
0.0000
 30
0.0000
  3
SQUAREV
  0
SOLID
  8
0
 10
-0.5000
 20
-0.5000
 30
0.0000
 11
0.5000
 21
-0.5000
 31
0.0000
 12
-0.5000
 22
0.5000
 32
0.0000
 13
0.5000
 23
0.5000
 33
0.0000
  0
ENDBLK
  8
0
  0
BLOCK
  8
0
  2
ROUNDV
 70
64
 10
0.0000
 20
0.0000
 30
0.0000
  3
ROUNDV
  0
POLYLINE
  8
0
 66
1
 10
0.0000
 20
0.0000
 30
0.0000
 40
0.5000
 41
0.5000
 70
0
  0
VERTEX
  8
0
 10
0.0000
 20
-0.2500
 30
0.0000
 42
1.0000
  0
VERTEX
  8
0
 10
0.0000
 20
0.2500
 30
0.0000
 42
1.0000
  0
VERTEX
  8
0
 10
0.0000
 20
-0.2500
 30
0.0000
  0
SEQEND
  8
0
  0
ENDBLK
  8
0
  0
BLOCK
  8
0
  2
ANNULUSV
 70
64
 10
0.0000
 20
0.0000
 30
0.0000
  3
ANNULUSV
  0
POLYLINE
  8
0
 66
1
 10
0.0000
 20
0.0000
 30
0.0000
 40
0.5000
 41
0.5000
 70
0
  0
VERTEX
  8
0
 10
0.0000
 20
-0.2500
 30
0.0000
 42
1.0000
  0
VERTEX
  8
0
 10
0.0000
 20
0.2500
 30
0.0000
 42
1.0000
  0
VERTEX
  8
0
 10
0.0000
 20
-0.2500
 30
0.0000
  0
SEQEND
  8
0
  0
ENDBLK
  8
0
  0
BLOCK
  8
0
  2
THERMALV
 70
64
 10
0.0000
 20
0.0000
 30
0.0000
  3
THERMALV
  0
POLYLINE
  8
0
 66
1
 10
0.0000
 20
0.0000
 30
0.0000
 40
0.1000
 41
0.1000
 70
0
  0
VERTEX
  8
0
 10
-0.2379
 20
0.4500
 30
0.0000
  0
VERTEX
  8
0
 10
0.2379
 20
0.4500
 30
0.0000
  0
SEQEND
  8
0
  0
POLYLINE
  8
0
 66
1
 10
0.0000
 20
0.0000
 30
0.0000
 40
0.0500
 41
0.0500
 70
0
  0
VERTEX
  8
0
 10
0.2379
 20
0.4250
 30
0.0000
 42
1.0000
  0
VERTEX
  8
0
 10
0.2379
 20
0.4750
 30
0.0000
  0
SEQEND
  8
0
  0
POLYLINE
  8
0
 66
1
 10
0.0000
 20
0.0000
 30
0.0000
 40
0.0500
 41
0.0500
 70
0
  0
VERTEX
  8
0
 10
-0.2379
 20
0.4750
 30
0.0000
 42
1.0000
  0
VERTEX
  8
0
 10
-0.2379
 20
0.4250
 30
0.0000
  0
SEQEND
  8
0
  0
POLYLINE
  8
0
 66
1
 10
0.0000
 20
0.0000
 30
0.0000
 40
0.1000
 41
0.1000
 70
0
  0
VERTEX
  8
0
 10
0.4500
 20
0.2379
 30
0.0000
  0
VERTEX
  8
0
 10
0.4500
 20
-0.2379
 30
0.0000
  0
SEQEND
  8
0
  0
POLYLINE
  8
0
 66
1
 10
0.0000
 20
0.0000
 30
0.0000
 40
0.0500
 41
0.0500
 70
0
  0
VERTEX
  8
0
 10
0.4250
 20
-0.2379
 30
0.0000
 42
1.0000
  0
VERTEX
  8
0
 10
0.4750
 20
-0.2379
 30
0.0000
  0
SEQEND
  8
0
  0
POLYLINE
  8
0
 66
1
 10
0.0000
 20
0.0000
 30
0.0000
 40
0.0500
 41
0.0500
 70
0
  0
VERTEX
  8
0
 10
0.4750
 20
0.2379
 30
0.0000
 42
1.0000
  0
VERTEX
  8
0
 10
0.4250
 20
0.2379
 30
0.0000
  0
SEQEND
  8
0
  0
POLYLINE
  8
0
 66
1
 10
0.0000
 20
0.0000
 30
0.0000
 40
0.1000
 41
0.1000
 70
0
  0
VERTEX
  8
0
 10
0.2379
 20
-0.4500
 30
0.0000
  0
VERTEX
  8
0
 10
-0.2379
 20
-0.4500
 30
0.0000
  0
SEQEND
  8
0
  0
POLYLINE
  8
0
 66
1
 10
0.0000
 20
0.0000
 30
0.0000
 40
0.0500
 41
0.0500
 70
0
  0
VERTEX
  8
0
 10
-0.2379
 20
-0.4250
 30
0.0000
 42
1.0000
  0
VERTEX
  8
0
 10
-0.2379
 20
-0.4750
 30
0.0000
  0
SEQEND
  8
0
  0
POLYLINE
  8
0
 66
1
 10
0.0000
 20
0.0000
 30
0.0000
 40
0.0500
 41
0.0500
 70
0
  0
VERTEX
  8
0
 10
0.2379
 20
-0.4750
 30
0.0000
 42
1.0000
  0
VERTEX
  8
0
 10
0.2379
 20
-0.4250
 30
0.0000
  0
SEQEND
  8
0
  0
POLYLINE
  8
0
 66
1
 10
0.0000
 20
0.0000
 30
0.0000
 40
0.1000
 41
0.1000
 70
0
  0
VERTEX
  8
0
 10
-0.4500
 20
-0.2379
 30
0.0000
  0
VERTEX
  8
0
 10
-0.4500
 20
0.2379
 30
0.0000
  0
SEQEND
  8
0
  0
POLYLINE
  8
0
 66
1
 10
0.0000
 20
0.0000
 30
0.0000
 40
0.0500
 41
0.0500
 70
0
  0
VERTEX
  8
0
 10
-0.4250
 20
0.2379
 30
0.0000
 42
1.0000
  0
VERTEX
  8
0
 10
-0.4750
 20
0.2379
 30
0.0000
  0
SEQEND
  8
0
  0
POLYLINE
  8
0
 66
1
 10
0.0000
 20
0.0000
 30
0.0000
 40
0.0500
 41
0.0500
 70
0
  0
VERTEX
  8
0
 10
-0.4750
 20
-0.2379
 30
0.0000
 42
1.0000
  0
VERTEX
  8
0
 10
-0.4250
 20
-0.2379
 30
0.0000
  0
SEQEND
  8
0
  0
ENDBLK
  8
0
  0
ENDSEC
  0
SECTION
  2
ENTITIES
  0
POLYLINE
  8
20
 66
1
 10
0.0000
 20
0.0000
 30
0.0000
 40
0.1524
 41
0.1524
 70
0
  0
VERTEX
  8
20
 10
16.6370
 20
-85.9790
 30
0.0000
  0
VERTEX
  8
20
 10
16.6370
 20
-58.3946
 30
0.0000
  0
SEQEND
  8
0
  0
POLYLINE
  8
20
 66
1
 10
0.0000
 20
0.0000
 30
0.0000
 40
0.0762
 41
0.0762
 70
0
  0
VERTEX
  8
20
 10
16.6751
 20
-58.3946
 30
0.0000
 42
1.0000
  0
VERTEX
  8
20
 10
16.5989
 20
-58.3946
 30
0.0000
  0
SEQEND
  8
0
  0
POLYLINE
  8
20
 66
1
 10
0.0000
 20
0.0000
 30
0.0000
 40
0.0762
 41
0.0762
 70
0
  0
VERTEX
  8
20
 10
16.5989
 20
-85.9790
 30
0.0000
 42
1.0000
  0
VERTEX
  8
20
 10
16.6751
 20
-85.9790
 30
0.0000
  0
SEQEND
  8
0
  0
POLYLINE
  8
20
 66
1
 10
0.0000
 20
0.0000
 30
0.0000
 40
0.1524
 41
0.1524
 70
0
  0
VERTEX
  8
20
 10
16.6370
 20
-58.3946
 30
0.0000
  0
VERTEX
  8
20
 10
17.9324
 20
-57.0992
 30
0.0000
  0
SEQEND
  8
0
  0
POLYLINE
  8
20
 66
1
 10
0.0000
 20
0.0000
 30
0.0000
 40
0.0762
 41
0.0762
 70
0
  0
VERTEX
  8
20
 10
17.9593
 20
-57.1261
 30
0.0000
 42
1.0000
  0
VERTEX
  8
20
 10
17.9055
 20
-57.0723
 30
0.0000
  0
SEQEND
  8
0
  0
POLYLINE
  8
20
 66
1
 10
0.0000
 20
0.0000
 30
0.0000
 40
0.0762
 41
0.0762
 70
0
  0
VERTEX
  8
20
 10
16.6101
 20
-58.3677
 30
0.0000
 42
1.0000
  0
VERTEX
  8
20
 10
16.6639
 20
-58.4215
 30
0.0000
  0
SEQEND
  8
0
  0
POLYLINE
  8
20
 66
1
 10
0.0000
 20
0.0000
 30
0.0000
 40
0.1524
 41
0.1524
 70
0
  0
VERTEX
  8
20
 10
17.9324
 20
-57.0992
 30
0.0000
  0
VERTEX
  8
20
 10
17.9324
 20
-46.7106
 30
0.0000
  0
SEQEND
  8
0
  0
POLYLINE
  8
20
 66
1
 10
0.0000
 20
0.0000
 30
0.0000
 40
0.0762
 41
0.0762
 70
0
  0
VERTEX
  8
20
 10
17.9705
 20
-46.7106
 30
0.0000
 42
1.0000
  0
VERTEX
  8
20
 10
17.8943
 20
-46.7106
 30
0.0000
  0
SEQEND
  8
0
  0
POLYLINE
  8
20
 66
1
 10
0.0000
 20
0.0000
 30
0.0000
 40
0.0762
 41
0.0762
 70
0
  0
VERTEX
  8
20
 10
17.8943
 20
-57.0992
 30
0.0000
 42
1.0000
  0
VERTEX
  8
20
 10
17.9705
 20
-57.0992
 30
0.0000
  0
SEQEND
  8
0
  0
POLYLINE
  8
20
 66
1
 10
0.0000
 20
0.0000
 30
0.0000
 40
0.1524
 41
0.1524
 70
0
  0
VERTEX
  8
20
 10
13.2334
 20
-41.9862
 30
0.0000
  0
VERTEX
  8
20
 10
-0.5080
 20
-41.9862
 30
0.0000
  0
SEQEND
  8
0
  0
POLYLINE
  8
20
 66
1
 10
0.0000
 20
0.0000
 30
0.0000
 40
0.0762
 41
0.0762
 70
0
  0
VERTEX
  8
20
 10
-0.5080
 20
-41.9481
 30
0.0000
 42
1.0000
  0
VERTEX
  8
20
 10
-0.5080
 20
-42.0243
 30
0.0000
  0
SEQEND
  8
0
  0
POLYLINE
  8
20
 66
1
 10
0.0000
 20
0.0000
 30
0.0000
 40
0.0762
 41
0.0762
 70
0
  0
VERTEX
  8
20
 10
13.2334
 20
-42.0243
 30
0.0000
 42
1.0000
  0
VERTEX
  8
20
 10
13.2334
 20
-41.9481
 30
0.0000
  0
SEQEND
  8
0
  0
POLYLINE
  8
20
 66
1
 10
0.0000
 20
0.0000
 30
0.0000
 40
0.1524
 41
0.1524
 70
0
  0
VERTEX
  8
20
 10
-0.5080
 20
-41.9862
 30
0.0000
  0
VERTEX
  8
20
 10
-0.5080
 20
0.0000
 30
0.0000
  0
SEQEND
  8
0
  0
POLYLINE
  8
20
 66
1
 10
0.0000
 20
0.0000
 30
0.0000
 40
0.0762
 41
0.0762
 70
0
  0
VERTEX
  8
20
 10
-0.4699
 20
0.0000
 30
0.0000
 42
1.0000
  0
VERTEX
  8
20
 10
-0.5461
 20
0.0000
 30
0.0000
  0
SEQEND
  8
0
  0
POLYLINE
  8
20
 66
1
 10
0.0000
 20
0.0000
 30
0.0000
 40
0.0762
 41
0.0762
 70
0
  0
VERTEX
  8
20
 10
-0.5461
 20
-41.9862
 30
0.0000
 42
1.0000
  0
VERTEX
  8
20
 10
-0.4699
 20
-41.9862
 30
0.0000
  0
SEQEND
  8
0
  0
POLYLINE
  8
20
 66
1
 10
0.0000
 20
0.0000
 30
0.0000
 40
0.1524
 41
0.1524
 70
0
  0
VERTEX
  8
20
 10
-0.5080
 20
0.0000
 30
0.0000
  0
VERTEX
  8
20
 10
274.7264
 20
0.0000
 30
0.0000
  0
SEQEND
  8
0
  0
POLYLINE
  8
20
 66
1
 10
0.0000
 20
0.0000
 30
0.0000
 40
0.0762
 41
0.0762
 70
0
  0
VERTEX
  8
20
 10
274.7264
 20
-0.0381
 30
0.0000
 42
1.0000
  0
VERTEX
  8
20
 10
274.7264
 20
0.0381
 30
0.0000
  0
SEQEND
  8
0
  0
POLYLINE
  8
20
 66
1
 10
0.0000
 20
0.0000
 30
0.0000
 40
0.0762
 41
0.0762
 70
0
  0
VERTEX
  8
20
 10
-0.5080
 20
0.0381
 30
0.0000
 42
1.0000
  0
VERTEX
  8
20
 10
-0.5080
 20
-0.0381
 30
0.0000
  0
SEQEND
  8
0
  0
POLYLINE
  8
20
 66
1
 10
0.0000
 20
0.0000
 30
0.0000
 40
0.1524
 41
0.1524
 70
0
  0
VERTEX
  8
20
 10
274.7264
 20
0.0000
 30
0.0000
  0
VERTEX
  8
20
 10
274.7264
 20
-41.9862
 30
0.0000
  0
SEQEND
  8
0
  0
POLYLINE
  8
20
 66
1
 10
0.0000
 20
0.0000
 30
0.0000
 40
0.0762
 41
0.0762
 70
0
  0
VERTEX
  8
20
 10
274.6883
 20
-41.9862
 30
0.0000
 42
1.0000
  0
VERTEX
  8
20
 10
274.7645
 20
-41.9862
 30
0.0000
  0
SEQEND
  8
0
  0
POLYLINE
  8
20
 66
1
 10
0.0000
 20
0.0000
 30
0.0000
 40
0.0762
 41
0.0762
 70
0
  0
VERTEX
  8
20
 10
274.7645
 20
0.0000
 30
0.0000
 42
1.0000
  0
VERTEX
  8
20
 10
274.6883
 20
0.0000
 30
0.0000
  0
SEQEND
  8
0
  0
POLYLINE
  8
20
 66
1
 10
0.0000
 20
0.0000
 30
0.0000
 40
0.1524
 41
0.1524
 70
0
  0
VERTEX
  8
20
 10
274.7264
 20
-41.9862
 30
0.0000
  0
VERTEX
  8
20
 10
260.7564
 20
-41.9862
 30
0.0000
  0
SEQEND
  8
0
  0
POLYLINE
  8
20
 66
1
 10
0.0000
 20
0.0000
 30
0.0000
 40
0.0762
 41
0.0762
 70
0
  0
VERTEX
  8
20
 10
260.7564
 20
-41.9481
 30
0.0000
 42
1.0000
  0
VERTEX
  8
20
 10
260.7564
 20
-42.0243
 30
0.0000
  0
SEQEND
  8
0
  0
POLYLINE
  8
20
 66
1
 10
0.0000
 20
0.0000
 30
0.0000
 40
0.0762
 41
0.0762
 70
0
  0
VERTEX
  8
20
 10
274.7264
 20
-42.0243
 30
0.0000
 42
1.0000
  0
VERTEX
  8
20
 10
274.7264
 20
-41.9481
 30
0.0000
  0
SEQEND
  8
0
  0
POLYLINE
  8
20
 66
1
 10
0.0000
 20
0.0000
 30
0.0000
 40
0.1524
 41
0.1524
 70
0
  0
VERTEX
  8
20
 10
256.3368
 20
-46.4566
 30
0.0000
  0
VERTEX
  8
20
 10
256.3368
 20
-57.0992
 30
0.0000
  0
SEQEND
  8
0
  0
POLYLINE
  8
20
 66
1
 10
0.0000
 20
0.0000
 30
0.0000
 40
0.0762
 41
0.0762
 70
0
  0
VERTEX
  8
20
 10
256.2987
 20
-57.0992
 30
0.0000
 42
1.0000
  0
VERTEX
  8
20
 10
256.3749
 20
-57.0992
 30
0.0000
  0
SEQEND
  8
0
  0
POLYLINE
  8
20
 66
1
 10
0.0000
 20
0.0000
 30
0.0000
 40
0.0762
 41
0.0762
 70
0
  0
VERTEX
  8
20
 10
256.3749
 20
-46.4566
 30
0.0000
 42
1.0000
  0
VERTEX
  8
20
 10
256.2987
 20
-46.4566
 30
0.0000
  0
SEQEND
  8
0
  0
POLYLINE
  8
20
 66
1
 10
0.0000
 20
0.0000
 30
0.0000
 40
0.1524
 41
0.1524
 70
0
  0
VERTEX
  8
20
 10
256.3368
 20
-57.0992
 30
0.0000
  0
VERTEX
  8
20
 10
257.6322
 20
-58.3946
 30
0.0000
  0
SEQEND
  8
0
  0
POLYLINE
  8
20
 66
1
 10
0.0000
 20
0.0000
 30
0.0000
 40
0.0762
 41
0.0762
 70
0
  0
VERTEX
  8
20
 10
257.6053
 20
-58.4215
 30
0.0000
 42
1.0000
  0
VERTEX
  8
20
 10
257.6591
 20
-58.3677
 30
0.0000
  0
SEQEND
  8
0
  0
POLYLINE
  8
20
 66
1
 10
0.0000
 20
0.0000
 30
0.0000
 40
0.0762
 41
0.0762
 70
0
  0
VERTEX
  8
20
 10
256.3637
 20
-57.0723
 30
0.0000
 42
1.0000
  0
VERTEX
  8
20
 10
256.3099
 20
-57.1261
 30
0.0000
  0
SEQEND
  8
0
  0
POLYLINE
  8
20
 66
1
 10
0.0000
 20
0.0000
 30
0.0000
 40
0.1524
 41
0.1524
 70
0
  0
VERTEX
  8
20
 10
257.6322
 20
-58.3946
 30
0.0000
  0
VERTEX
  8
20
 10
257.6322
 20
-85.9790
 30
0.0000
  0
SEQEND
  8
0
  0
POLYLINE
  8
20
 66
1
 10
0.0000
 20
0.0000
 30
0.0000
 40
0.0762
 41
0.0762
 70
0
  0
VERTEX
  8
20
 10
257.5941
 20
-85.9790
 30
0.0000
 42
1.0000
  0
VERTEX
  8
20
 10
257.6703
 20
-85.9790
 30
0.0000
  0
SEQEND
  8
0
  0
POLYLINE
  8
20
 66
1
 10
0.0000
 20
0.0000
 30
0.0000
 40
0.0762
 41
0.0762
 70
0
  0
VERTEX
  8
20
 10
257.6703
 20
-58.3946
 30
0.0000
 42
1.0000
  0
VERTEX
  8
20
 10
257.5941
 20
-58.3946
 30
0.0000
  0
SEQEND
  8
0
  0
POLYLINE
  8
20
 66
1
 10
0.0000
 20
0.0000
 30
0.0000
 40
0.1524
 41
0.1524
 70
0
  0
VERTEX
  8
20
 10
257.6322
 20
-85.9790
 30
0.0000
  0
VERTEX
  8
20
 10
16.6370
 20
-85.9790
 30
0.0000
  0
SEQEND
  8
0
  0
POLYLINE
  8
20
 66
1
 10
0.0000
 20
0.0000
 30
0.0000
 40
0.0762
 41
0.0762
 70
0
  0
VERTEX
  8
20
 10
16.6370
 20
-85.9409
 30
0.0000
 42
1.0000
  0
VERTEX
  8
20
 10
16.6370
 20
-86.0171
 30
0.0000
  0
SEQEND
  8
0
  0
POLYLINE
  8
20
 66
1
 10
0.0000
 20
0.0000
 30
0.0000
 40
0.0762
 41
0.0762
 70
0
  0
VERTEX
  8
20
 10
257.6322
 20
-86.0171
 30
0.0000
 42
1.0000
  0
VERTEX
  8
20
 10
257.6322
 20
-85.9409
 30
0.0000
  0
SEQEND
  8
0
  0
POLYLINE
  8
20
 66
1
 10
0.0000
 20
0.0000
 30
0.0000
 40
0.1524
 41
0.1524
 70
0
  0
VERTEX
  8
20
 10
17.9324
 20
-46.7106
 30
0.0000
  0
VERTEX
  8
20
 10
13.2334
 20
-41.9862
 30
0.0000
  0
SEQEND
  8
0
  0
POLYLINE
  8
20
 66
1
 10
0.0000
 20
0.0000
 30
0.0000
 40
0.0762
 41
0.0762
 70
0
  0
VERTEX
  8
20
 10
13.2604
 20
-41.9593
 30
0.0000
 42
1.0000
  0
VERTEX
  8
20
 10
13.2064
 20
-42.0131
 30
0.0000
  0
SEQEND
  8
0
  0
POLYLINE
  8
20
 66
1
 10
0.0000
 20
0.0000
 30
0.0000
 40
0.0762
 41
0.0762
 70
0
  0
VERTEX
  8
20
 10
17.9054
 20
-46.7375
 30
0.0000
 42
1.0000
  0
VERTEX
  8
20
 10
17.9594
 20
-46.6837
 30
0.0000
  0
SEQEND
  8
0
  0
POLYLINE
  8
20
 66
1
 10
0.0000
 20
0.0000
 30
0.0000
 40
0.1524
 41
0.1524
 70
0
  0
VERTEX
  8
20
 10
256.3368
 20
-46.4566
 30
0.0000
  0
VERTEX
  8
20
 10
260.7564
 20
-41.9862
 30
0.0000
  0
SEQEND
  8
0
  0
POLYLINE
  8
20
 66
1
 10
0.0000
 20
0.0000
 30
0.0000
 40
0.0762
 41
0.0762
 70
0
  0
VERTEX
  8
20
 10
260.7835
 20
-42.0130
 30
0.0000
 42
1.0000
  0
VERTEX
  8
20
 10
260.7293
 20
-41.9594
 30
0.0000
  0
SEQEND
  8
0
  0
POLYLINE
  8
20
 66
1
 10
0.0000
 20
0.0000
 30
0.0000
 40
0.0762
 41
0.0762
 70
0
  0
VERTEX
  8
20
 10
256.3097
 20
-46.4298
 30
0.0000
 42
1.0000
  0
VERTEX
  8
20
 10
256.3639
 20
-46.4834
 30
0.0000
  0
SEQEND
  8
0
  0
INSERT
  8
16
  2
RECT
 10
268.4780
 20
-22.8600
 30
0.0000
 41
11.3030
 42
13.2080
 43
1.0000
 50
180.0000
  0
INSERT
  8
16
  2
RECT
 10
254.2540
 20
-22.8600
 30
0.0000
 41
11.3030
 42
13.2080
 43
1.0000
 50
180.0000
  0
INSERT
  8
16
  2
RECT
 10
249.1740
 20
-63.2460
 30
0.0000
 41
11.3030
 42
13.2080
 43
1.0000
 50
180.0000
  0
INSERT
  8
16
  2
RECT
 10
229.6160
 20
-22.8600
 30
0.0000
 41
11.3030
 42
13.2080
 43
1.0000
 50
180.0000
  0
INSERT
  8
16
  2
RECT
 10
225.5520
 20
-63.2460
 30
0.0000
 41
11.3030
 42
13.2080
 43
1.0000
 50
180.0000
  0
INSERT
  8
16
  2
RECT
 10
204.9780
 20
-22.8600
 30
0.0000
 41
11.3030
 42
13.2080
 43
1.0000
 50
180.0000
  0
INSERT
  8
16
  2
RECT
 10
200.9140
 20
-63.2460
 30
0.0000
 41
11.3030
 42
13.2080
 43
1.0000
 50
180.0000
  0
INSERT
  8
16
  2
RECT
 10
180.3400
 20
-22.8600
 30
0.0000
 41
11.3030
 42
13.2080
 43
1.0000
 50
180.0000
  0
INSERT
  8
16
  2
RECT
 10
176.2760
 20
-63.2460
 30
0.0000
 41
11.3030
 42
13.2080
 43
1.0000
 50
180.0000
  0
INSERT
  8
16
  2
RECT
 10
155.7020
 20
-22.8600
 30
0.0000
 41
11.3030
 42
13.2080
 43
1.0000
 50
180.0000
  0
INSERT
  8
16
  2
RECT
 10
151.6380
 20
-63.2460
 30
0.0000
 41
11.3030
 42
13.2080
 43
1.0000
 50
180.0000
  0
INSERT
  8
16
  2
RECT
 10
131.0640
 20
-22.8600
 30
0.0000
 41
11.3030
 42
13.2080
 43
1.0000
 50
180.0000
  0
INSERT
  8
16
  2
RECT
 10
127.0000
 20
-63.2460
 30
0.0000
 41
11.3030
 42
13.2080
 43
1.0000
 50
180.0000
  0
INSERT
  8
16
  2
RECT
 10
106.1720
 20
-22.8600
 30
0.0000
 41
11.3030
 42
13.2080
 43
1.0000
 50
180.0000
  0
INSERT
  8
16
  2
RECT
 10
102.3620
 20
-63.2460
 30
0.0000
 41
11.3030
 42
13.2080
 43
1.0000
 50
180.0000
  0
INSERT
  8
16
  2
RECT
 10
81.5340
 20
-22.8600
 30
0.0000
 41
11.3030
 42
13.2080
 43
1.0000
 50
180.0000
  0
INSERT
  8
16
  2
RECT
 10
77.7240
 20
-63.2460
 30
0.0000
 41
11.3030
 42
13.2080
 43
1.0000
 50
180.0000
  0
INSERT
  8
16
  2
RECT
 10
56.8960
 20
-22.8600
 30
0.0000
 41
11.3030
 42
13.2080
 43
1.0000
 50
180.0000
  0
INSERT
  8
16
  2
RECT
 10
53.0860
 20
-63.2460
 30
0.0000
 41
11.3030
 42
13.2080
 43
1.0000
 50
180.0000
  0
INSERT
  8
16
  2
RECT
 10
32.2580
 20
-22.8600
 30
0.0000
 41
11.3030
 42
13.2080
 43
1.0000
 50
180.0000
  0
INSERT
  8
16
  2
RECT
 10
28.4480
 20
-63.2460
 30
0.0000
 41
11.3030
 42
13.2080
 43
1.0000
 50
180.0000
  0
INSERT
  8
16
  2
RECT
 10
5.8420
 20
-22.8600
 30
0.0000
 41
11.3030
 42
13.2080
 43
1.0000
 50
180.0000
  0
CIRCLE
  8
20
 10
92.5830
 20
-3.9370
 30
0.0000
 40
2.2500
  0
CIRCLE
  8
20
 10
193.8020
 20
-3.9370
 30
0.0000
 40
2.2500
  0
CIRCLE
  8
20
 10
263.4488
 20
-3.9370
 30
0.0000
 40
2.2500
  0
CIRCLE
  8
20
 10
41.4020
 20
-42.9260
 30
0.0000
 40
2.2500
  0
CIRCLE
  8
20
 10
20.4978
 20
-3.9370
 30
0.0000
 40
2.2500
  0
CIRCLE
  8
20
 10
140.0810
 20
-42.9260
 30
0.0000
 40
2.2500
  0
CIRCLE
  8
20
 10
238.6330
 20
-42.9260
 30
0.0000
 40
2.2500
  0
CIRCLE
  8
20
 10
235.2040
 20
-81.9150
 30
0.0000
 40
2.2500
  0
CIRCLE
  8
20
 10
136.9060
 20
-81.9150
 30
0.0000
 40
2.2500
  0
CIRCLE
  8
20
 10
38.9890
 20
-81.9150
 30
0.0000
 40
2.2500
  0
POLYLINE
  8
16
 66
1
 10
0.0000
 20
0.0000
 30
0.0000
 40
0.6096
 41
0.6096
 70
0
  0
VERTEX
  8
16
 10
273.5580
 20
-10.7950
 30
0.0000
  0
VERTEX
  8
16
 10
273.5580
 20
-17.7800
 30
0.0000
  0
SEQEND
  8
0
  0
POLYLINE
  8
16
 66
1
 10
0.0000
 20
0.0000
 30
0.0000
 40
0.3048
 41
0.3048
 70
0
  0
VERTEX
  8
16
 10
273.4056
 20
-17.7800
 30
0.0000
 42
1.0000
  0
VERTEX
  8
16
 10
273.7104
 20
-17.7800
 30
0.0000
  0
SEQEND
  8
0
  0
POLYLINE
  8
16
 66
1
 10
0.0000
 20
0.0000
 30
0.0000
 40
0.3048
 41
0.3048
 70
0
  0
VERTEX
  8
16
 10
273.7104
 20
-10.7950
 30
0.0000
 42
1.0000
  0
VERTEX
  8
16
 10
273.4056
 20
-10.7950
 30
0.0000
  0
SEQEND
  8
0
  0
POLYLINE
  8
16
 66
1
 10
0.0000
 20
0.0000
 30
0.0000
 40
0.6096
 41
0.6096
 70
0
  0
VERTEX
  8
16
 10
273.5580
 20
-17.7800
 30
0.0000
  0
VERTEX
  8
16
 10
268.4780
 20
-22.8600
 30
0.0000
  0
SEQEND
  8
0
  0
POLYLINE
  8
16
 66
1
 10
0.0000
 20
0.0000
 30
0.0000
 40
0.3048
 41
0.3048
 70
0
  0
VERTEX
  8
16
 10
268.3702
 20
-22.7522
 30
0.0000
 42
1.0000
  0
VERTEX
  8
16
 10
268.5858
 20
-22.9678
 30
0.0000
  0
SEQEND
  8
0
  0
POLYLINE
  8
16
 66
1
 10
0.0000
 20
0.0000
 30
0.0000
 40
0.3048
 41
0.3048
 70
0
  0
VERTEX
  8
16
 10
273.6658
 20
-17.8878
 30
0.0000
 42
1.0000
  0
VERTEX
  8
16
 10
273.4502
 20
-17.6722
 30
0.0000
  0
SEQEND
  8
0
  0
POLYLINE
  8
16
 66
1
 10
0.0000
 20
0.0000
 30
0.0000
 40
0.6096
 41
0.6096
 70
0
  0
VERTEX
  8
16
 10
246.6340
 20
-1.1303
 30
0.0000
  0
VERTEX
  8
16
 10
249.5550
 20
-4.0513
 30
0.0000
  0
SEQEND
  8
0
  0
POLYLINE
  8
16
 66
1
 10
0.0000
 20
0.0000
 30
0.0000
 40
0.3048
 41
0.3048
 70
0
  0
VERTEX
  8
16
 10
249.4472
 20
-4.1591
 30
0.0000
 42
1.0000
  0
VERTEX
  8
16
 10
249.6628
 20
-3.9435
 30
0.0000
  0
SEQEND
  8
0
  0
POLYLINE
  8
16
 66
1
 10
0.0000
 20
0.0000
 30
0.0000
 40
0.3048
 41
0.3048
 70
0
  0
VERTEX
  8
16
 10
246.7418
 20
-1.0225
 30
0.0000
 42
1.0000
  0
VERTEX
  8
16
 10
246.5262
 20
-1.2381
 30
0.0000
  0
SEQEND
  8
0
  0
POLYLINE
  8
16
 66
1
 10
0.0000
 20
0.0000
 30
0.0000
 40
0.6096
 41
0.6096
 70
0
  0
VERTEX
  8
16
 10
249.5550
 20
-4.0513
 30
0.0000
  0
VERTEX
  8
16
 10
249.5550
 20
-17.9070
 30
0.0000
  0
SEQEND
  8
0
  0
POLYLINE
  8
16
 66
1
 10
0.0000
 20
0.0000
 30
0.0000
 40
0.3048
 41
0.3048
 70
0
  0
VERTEX
  8
16
 10
249.4026
 20
-17.9070
 30
0.0000
 42
1.0000
  0
VERTEX
  8
16
 10
249.7074
 20
-17.9070
 30
0.0000
  0
SEQEND
  8
0
  0
POLYLINE
  8
16
 66
1
 10
0.0000
 20
0.0000
 30
0.0000
 40
0.3048
 41
0.3048
 70
0
  0
VERTEX
  8
16
 10
249.7074
 20
-4.0513
 30
0.0000
 42
1.0000
  0
VERTEX
  8
16
 10
249.4026
 20
-4.0513
 30
0.0000
  0
SEQEND
  8
0
  0
POLYLINE
  8
16
 66
1
 10
0.0000
 20
0.0000
 30
0.0000
 40
0.5080
 41
0.5080
 70
0
  0
VERTEX
  8
16
 10
249.5550
 20
-17.9070
 30
0.0000
  0
VERTEX
  8
16
 10
249.5550
 20
-18.1610
 30
0.0000
  0
SEQEND
  8
0
  0
POLYLINE
  8
16
 66
1
 10
0.0000
 20
0.0000
 30
0.0000
 40
0.2540
 41
0.2540
 70
0
  0
VERTEX
  8
16
 10
249.4280
 20
-18.1610
 30
0.0000
 42
1.0000
  0
VERTEX
  8
16
 10
249.6820
 20
-18.1610
 30
0.0000
  0
SEQEND
  8
0
  0
POLYLINE
  8
16
 66
1
 10
0.0000
 20
0.0000
 30
0.0000
 40
0.2540
 41
0.2540
 70
0
  0
VERTEX
  8
16
 10
249.6820
 20
-17.9070
 30
0.0000
 42
1.0000
  0
VERTEX
  8
16
 10
249.4280
 20
-17.9070
 30
0.0000
  0
SEQEND
  8
0
  0
POLYLINE
  8
16
 66
1
 10
0.0000
 20
0.0000
 30
0.0000
 40
0.5080
 41
0.5080
 70
0
  0
VERTEX
  8
16
 10
249.5550
 20
-18.1610
 30
0.0000
  0
VERTEX
  8
16
 10
254.2540
 20
-22.8600
 30
0.0000
  0
SEQEND
  8
0
  0
POLYLINE
  8
16
 66
1
 10
0.0000
 20
0.0000
 30
0.0000
 40
0.2540
 41
0.2540
 70
0
  0
VERTEX
  8
16
 10
254.1642
 20
-22.9498
 30
0.0000
 42
1.0000
  0
VERTEX
  8
16
 10
254.3438
 20
-22.7702
 30
0.0000
  0
SEQEND
  8
0
  0
POLYLINE
  8
16
 66
1
 10
0.0000
 20
0.0000
 30
0.0000
 40
0.2540
 41
0.2540
 70
0
  0
VERTEX
  8
16
 10
249.6448
 20
-18.0712
 30
0.0000
 42
1.0000
  0
VERTEX
  8
16
 10
249.4652
 20
-18.2508
 30
0.0000
  0
SEQEND
  8
0
  0
POLYLINE
  8
16
 66
1
 10
0.0000
 20
0.0000
 30
0.0000
 40
0.6096
 41
0.6096
 70
0
  0
VERTEX
  8
16
 10
252.7300
 20
-84.8487
 30
0.0000
  0
VERTEX
  8
16
 10
252.7300
 20
-66.8020
 30
0.0000
  0
SEQEND
  8
0
  0
POLYLINE
  8
16
 66
1
 10
0.0000
 20
0.0000
 30
0.0000
 40
0.3048
 41
0.3048
 70
0
  0
VERTEX
  8
16
 10
252.8824
 20
-66.8020
 30
0.0000
 42
1.0000
  0
VERTEX
  8
16
 10
252.5776
 20
-66.8020
 30
0.0000
  0
SEQEND
  8
0
  0
POLYLINE
  8
16
 66
1
 10
0.0000
 20
0.0000
 30
0.0000
 40
0.3048
 41
0.3048
 70
0
  0
VERTEX
  8
16
 10
252.5776
 20
-84.8487
 30
0.0000
 42
1.0000
  0
VERTEX
  8
16
 10
252.8824
 20
-84.8487
 30
0.0000
  0
SEQEND
  8
0
  0
POLYLINE
  8
16
 66
1
 10
0.0000
 20
0.0000
 30
0.0000
 40
0.6096
 41
0.6096
 70
0
  0
VERTEX
  8
16
 10
252.7300
 20
-66.8020
 30
0.0000
  0
VERTEX
  8
16
 10
249.1740
 20
-63.2460
 30
0.0000
  0
SEQEND
  8
0
  0
POLYLINE
  8
16
 66
1
 10
0.0000
 20
0.0000
 30
0.0000
 40
0.3048
 41
0.3048
 70
0
  0
VERTEX
  8
16
 10
249.2818
 20
-63.1382
 30
0.0000
 42
1.0000
  0
VERTEX
  8
16
 10
249.0662
 20
-63.3538
 30
0.0000
  0
SEQEND
  8
0
  0
POLYLINE
  8
16
 66
1
 10
0.0000
 20
0.0000
 30
0.0000
 40
0.3048
 41
0.3048
 70
0
  0
VERTEX
  8
16
 10
252.6222
 20
-66.9098
 30
0.0000
 42
1.0000
  0
VERTEX
  8
16
 10
252.8378
 20
-66.6942
 30
0.0000
  0
SEQEND
  8
0
  0
POLYLINE
  8
16
 66
1
 10
0.0000
 20
0.0000
 30
0.0000
 40
0.6096
 41
0.6096
 70
0
  0
VERTEX
  8
16
 10
228.4730
 20
-1.1303
 30
0.0000
  0
VERTEX
  8
16
 10
228.4730
 20
-21.7170
 30
0.0000
  0
SEQEND
  8
0
  0
POLYLINE
  8
16
 66
1
 10
0.0000
 20
0.0000
 30
0.0000
 40
0.3048
 41
0.3048
 70
0
  0
VERTEX
  8
16
 10
228.3206
 20
-21.7170
 30
0.0000
 42
1.0000
  0
VERTEX
  8
16
 10
228.6254
 20
-21.7170
 30
0.0000
  0
SEQEND
  8
0
  0
POLYLINE
  8
16
 66
1
 10
0.0000
 20
0.0000
 30
0.0000
 40
0.3048
 41
0.3048
 70
0
  0
VERTEX
  8
16
 10
228.6254
 20
-1.1303
 30
0.0000
 42
1.0000
  0
VERTEX
  8
16
 10
228.3206
 20
-1.1303
 30
0.0000
  0
SEQEND
  8
0
  0
POLYLINE
  8
16
 66
1
 10
0.0000
 20
0.0000
 30
0.0000
 40
0.6096
 41
0.6096
 70
0
  0
VERTEX
  8
16
 10
228.4730
 20
-21.7170
 30
0.0000
  0
VERTEX
  8
16
 10
229.6160
 20
-22.8600
 30
0.0000
  0
SEQEND
  8
0
  0
POLYLINE
  8
16
 66
1
 10
0.0000
 20
0.0000
 30
0.0000
 40
0.3048
 41
0.3048
 70
0
  0
VERTEX
  8
16
 10
229.5082
 20
-22.9678
 30
0.0000
 42
1.0000
  0
VERTEX
  8
16
 10
229.7238
 20
-22.7522
 30
0.0000
  0
SEQEND
  8
0
  0
POLYLINE
  8
16
 66
1
 10
0.0000
 20
0.0000
 30
0.0000
 40
0.3048
 41
0.3048
 70
0
  0
VERTEX
  8
16
 10
228.5808
 20
-21.6092
 30
0.0000
 42
1.0000
  0
VERTEX
  8
16
 10
228.3652
 20
-21.8248
 30
0.0000
  0
SEQEND
  8
0
  0
POLYLINE
  8
16
 66
1
 10
0.0000
 20
0.0000
 30
0.0000
 40
0.6096
 41
0.6096
 70
0
  0
VERTEX
  8
16
 10
243.4590
 20
-84.8487
 30
0.0000
  0
VERTEX
  8
16
 10
243.4590
 20
-74.5490
 30
0.0000
  0
SEQEND
  8
0
  0
POLYLINE
  8
16
 66
1
 10
0.0000
 20
0.0000
 30
0.0000
 40
0.3048
 41
0.3048
 70
0
  0
VERTEX
  8
16
 10
243.6114
 20
-74.5490
 30
0.0000
 42
1.0000
  0
VERTEX
  8
16
 10
243.3066
 20
-74.5490
 30
0.0000
  0
SEQEND
  8
0
  0
POLYLINE
  8
16
 66
1
 10
0.0000
 20
0.0000
 30
0.0000
 40
0.3048
 41
0.3048
 70
0
  0
VERTEX
  8
16
 10
243.3066
 20
-84.8487
 30
0.0000
 42
1.0000
  0
VERTEX
  8
16
 10
243.6114
 20
-84.8487
 30
0.0000
  0
SEQEND
  8
0
  0
POLYLINE
  8
16
 66
1
 10
0.0000
 20
0.0000
 30
0.0000
 40
0.6096
 41
0.6096
 70
0
  0
VERTEX
  8
16
 10
243.4590
 20
-74.5490
 30
0.0000
  0
VERTEX
  8
16
 10
232.1560
 20
-63.2460
 30
0.0000
  0
SEQEND
  8
0
  0
POLYLINE
  8
16
 66
1
 10
0.0000
 20
0.0000
 30
0.0000
 40
0.3048
 41
0.3048
 70
0
  0
VERTEX
  8
16
 10
232.2638
 20
-63.1382
 30
0.0000
 42
1.0000
  0
VERTEX
  8
16
 10
232.0482
 20
-63.3538
 30
0.0000
  0
SEQEND
  8
0
  0
POLYLINE
  8
16
 66
1
 10
0.0000
 20
0.0000
 30
0.0000
 40
0.3048
 41
0.3048
 70
0
  0
VERTEX
  8
16
 10
243.3512
 20
-74.6568
 30
0.0000
 42
1.0000
  0
VERTEX
  8
16
 10
243.5668
 20
-74.4412
 30
0.0000
  0
SEQEND
  8
0
  0
POLYLINE
  8
16
 66
1
 10
0.0000
 20
0.0000
 30
0.0000
 40
0.6096
 41
0.6096
 70
0
  0
VERTEX
  8
16
 10
232.1560
 20
-63.2460
 30
0.0000
  0
VERTEX
  8
16
 10
225.5520
 20
-63.2460
 30
0.0000
  0
SEQEND
  8
0
  0
POLYLINE
  8
16
 66
1
 10
0.0000
 20
0.0000
 30
0.0000
 40
0.3048
 41
0.3048
 70
0
  0
VERTEX
  8
16
 10
225.5520
 20
-63.0936
 30
0.0000
 42
1.0000
  0
VERTEX
  8
16
 10
225.5520
 20
-63.3984
 30
0.0000
  0
SEQEND
  8
0
  0
POLYLINE
  8
16
 66
1
 10
0.0000
 20
0.0000
 30
0.0000
 40
0.3048
 41
0.3048
 70
0
  0
VERTEX
  8
16
 10
232.1560
 20
-63.3984
 30
0.0000
 42
1.0000
  0
VERTEX
  8
16
 10
232.1560
 20
-63.0936
 30
0.0000
  0
SEQEND
  8
0
  0
POLYLINE
  8
16
 66
1
 10
0.0000
 20
0.0000
 30
0.0000
 40
0.6096
 41
0.6096
 70
0
  0
VERTEX
  8
16
 10
208.7880
 20
-1.1303
 30
0.0000
  0
VERTEX
  8
16
 10
208.7880
 20
-19.0500
 30
0.0000
  0
SEQEND
  8
0
  0
POLYLINE
  8
16
 66
1
 10
0.0000
 20
0.0000
 30
0.0000
 40
0.3048
 41
0.3048
 70
0
  0
VERTEX
  8
16
 10
208.6356
 20
-19.0500
 30
0.0000
 42
1.0000
  0
VERTEX
  8
16
 10
208.9404
 20
-19.0500
 30
0.0000
  0
SEQEND
  8
0
  0
POLYLINE
  8
16
 66
1
 10
0.0000
 20
0.0000
 30
0.0000
 40
0.3048
 41
0.3048
 70
0
  0
VERTEX
  8
16
 10
208.9404
 20
-1.1303
 30
0.0000
 42
1.0000
  0
VERTEX
  8
16
 10
208.6356
 20
-1.1303
 30
0.0000
  0
SEQEND
  8
0
  0
POLYLINE
  8
16
 66
1
 10
0.0000
 20
0.0000
 30
0.0000
 40
0.6096
 41
0.6096
 70
0
  0
VERTEX
  8
16
 10
208.7880
 20
-19.0500
 30
0.0000
  0
VERTEX
  8
16
 10
204.9780
 20
-22.8600
 30
0.0000
  0
SEQEND
  8
0
  0
POLYLINE
  8
16
 66
1
 10
0.0000
 20
0.0000
 30
0.0000
 40
0.3048
 41
0.3048
 70
0
  0
VERTEX
  8
16
 10
204.8702
 20
-22.7522
 30
0.0000
 42
1.0000
  0
VERTEX
  8
16
 10
205.0858
 20
-22.9678
 30
0.0000
  0
SEQEND
  8
0
  0
POLYLINE
  8
16
 66
1
 10
0.0000
 20
0.0000
 30
0.0000
 40
0.3048
 41
0.3048
 70
0
  0
VERTEX
  8
16
 10
208.8958
 20
-19.1578
 30
0.0000
 42
1.0000
  0
VERTEX
  8
16
 10
208.6802
 20
-18.9422
 30
0.0000
  0
SEQEND
  8
0
  0
POLYLINE
  8
16
 66
1
 10
0.0000
 20
0.0000
 30
0.0000
 40
0.6096
 41
0.6096
 70
0
  0
VERTEX
  8
16
 10
226.6950
 20
-84.8487
 30
0.0000
  0
VERTEX
  8
16
 10
226.6950
 20
-80.7720
 30
0.0000
  0
SEQEND
  8
0
  0
POLYLINE
  8
16
 66
1
 10
0.0000
 20
0.0000
 30
0.0000
 40
0.3048
 41
0.3048
 70
0
  0
VERTEX
  8
16
 10
226.8474
 20
-80.7720
 30
0.0000
 42
1.0000
  0
VERTEX
  8
16
 10
226.5426
 20
-80.7720
 30
0.0000
  0
SEQEND
  8
0
  0
POLYLINE
  8
16
 66
1
 10
0.0000
 20
0.0000
 30
0.0000
 40
0.3048
 41
0.3048
 70
0
  0
VERTEX
  8
16
 10
226.5426
 20
-84.8487
 30
0.0000
 42
1.0000
  0
VERTEX
  8
16
 10
226.8474
 20
-84.8487
 30
0.0000
  0
SEQEND
  8
0
  0
POLYLINE
  8
16
 66
1
 10
0.0000
 20
0.0000
 30
0.0000
 40
0.6096
 41
0.6096
 70
0
  0
VERTEX
  8
16
 10
209.1690
 20
-63.2460
 30
0.0000
  0
VERTEX
  8
16
 10
226.6950
 20
-80.7720
 30
0.0000
  0
SEQEND
  8
0
  0
POLYLINE
  8
16
 66
1
 10
0.0000
 20
0.0000
 30
0.0000
 40
0.3048
 41
0.3048
 70
0
  0
VERTEX
  8
16
 10
226.5872
 20
-80.8798
 30
0.0000
 42
1.0000
  0
VERTEX
  8
16
 10
226.8028
 20
-80.6642
 30
0.0000
  0
SEQEND
  8
0
  0
POLYLINE
  8
16
 66
1
 10
0.0000
 20
0.0000
 30
0.0000
 40
0.3048
 41
0.3048
 70
0
  0
VERTEX
  8
16
 10
209.2768
 20
-63.1382
 30
0.0000
 42
1.0000
  0
VERTEX
  8
16
 10
209.0612
 20
-63.3538
 30
0.0000
  0
SEQEND
  8
0
  0
POLYLINE
  8
16
 66
1
 10
0.0000
 20
0.0000
 30
0.0000
 40
0.6096
 41
0.6096
 70
0
  0
VERTEX
  8
16
 10
200.9140
 20
-63.2460
 30
0.0000
  0
VERTEX
  8
16
 10
209.1690
 20
-63.2460
 30
0.0000
  0
SEQEND
  8
0
  0
POLYLINE
  8
16
 66
1
 10
0.0000
 20
0.0000
 30
0.0000
 40
0.3048
 41
0.3048
 70
0
  0
VERTEX
  8
16
 10
209.1690
 20
-63.3984
 30
0.0000
 42
1.0000
  0
VERTEX
  8
16
 10
209.1690
 20
-63.0936
 30
0.0000
  0
SEQEND
  8
0
  0
POLYLINE
  8
16
 66
1
 10
0.0000
 20
0.0000
 30
0.0000
 40
0.3048
 41
0.3048
 70
0
  0
VERTEX
  8
16
 10
200.9140
 20
-63.0936
 30
0.0000
 42
1.0000
  0
VERTEX
  8
16
 10
200.9140
 20
-63.3984
 30
0.0000
  0
SEQEND
  8
0
  0
POLYLINE
  8
16
 66
1
 10
0.0000
 20
0.0000
 30
0.0000
 40
0.6096
 41
0.6096
 70
0
  0
VERTEX
  8
16
 10
176.9110
 20
-1.1303
 30
0.0000
  0
VERTEX
  8
16
 10
176.9110
 20
-19.4310
 30
0.0000
  0
SEQEND
  8
0
  0
POLYLINE
  8
16
 66
1
 10
0.0000
 20
0.0000
 30
0.0000
 40
0.3048
 41
0.3048
 70
0
  0
VERTEX
  8
16
 10
176.7586
 20
-19.4310
 30
0.0000
 42
1.0000
  0
VERTEX
  8
16
 10
177.0634
 20
-19.4310
 30
0.0000
  0
SEQEND
  8
0
  0
POLYLINE
  8
16
 66
1
 10
0.0000
 20
0.0000
 30
0.0000
 40
0.3048
 41
0.3048
 70
0
  0
VERTEX
  8
16
 10
177.0634
 20
-1.1303
 30
0.0000
 42
1.0000
  0
VERTEX
  8
16
 10
176.7586
 20
-1.1303
 30
0.0000
  0
SEQEND
  8
0
  0
POLYLINE
  8
16
 66
1
 10
0.0000
 20
0.0000
 30
0.0000
 40
0.6096
 41
0.6096
 70
0
  0
VERTEX
  8
16
 10
176.9110
 20
-19.4310
 30
0.0000
  0
VERTEX
  8
16
 10
180.3400
 20
-22.8600
 30
0.0000
  0
SEQEND
  8
0
  0
POLYLINE
  8
16
 66
1
 10
0.0000
 20
0.0000
 30
0.0000
 40
0.3048
 41
0.3048
 70
0
  0
VERTEX
  8
16
 10
180.2322
 20
-22.9678
 30
0.0000
 42
1.0000
  0
VERTEX
  8
16
 10
180.4478
 20
-22.7522
 30
0.0000
  0
SEQEND
  8
0
  0
POLYLINE
  8
16
 66
1
 10
0.0000
 20
0.0000
 30
0.0000
 40
0.3048
 41
0.3048
 70
0
  0
VERTEX
  8
16
 10
177.0188
 20
-19.3232
 30
0.0000
 42
1.0000
  0
VERTEX
  8
16
 10
176.8032
 20
-19.5388
 30
0.0000
  0
SEQEND
  8
0
  0
POLYLINE
  8
16
 66
1
 10
0.0000
 20
0.0000
 30
0.0000
 40
0.6096
 41
0.6096
 70
0
  0
VERTEX
  8
16
 10
217.5510
 20
-84.8487
 30
0.0000
  0
VERTEX
  8
16
 10
204.4571
 20
-71.7548
 30
0.0000
  0
SEQEND
  8
0
  0
POLYLINE
  8
16
 66
1
 10
0.0000
 20
0.0000
 30
0.0000
 40
0.3048
 41
0.3048
 70
0
  0
VERTEX
  8
16
 10
204.5649
 20
-71.6470
 30
0.0000
 42
1.0000
  0
VERTEX
  8
16
 10
204.3493
 20
-71.8626
 30
0.0000
  0
SEQEND
  8
0
  0
POLYLINE
  8
16
 66
1
 10
0.0000
 20
0.0000
 30
0.0000
 40
0.3048
 41
0.3048
 70
0
  0
VERTEX
  8
16
 10
217.4432
 20
-84.9565
 30
0.0000
 42
1.0000
  0
VERTEX
  8
16
 10
217.6588
 20
-84.7409
 30
0.0000
  0
SEQEND
  8
0
  0
POLYLINE
  8
16
 66
1
 10
0.0000
 20
0.0000
 30
0.0000
 40
0.6096
 41
0.6096
 70
0
  0
VERTEX
  8
16
 10
194.4735
 20
-71.7548
 30
0.0000
  0
VERTEX
  8
16
 10
204.4571
 20
-71.7548
 30
0.0000
  0
SEQEND
  8
0
  0
POLYLINE
  8
16
 66
1
 10
0.0000
 20
0.0000
 30
0.0000
 40
0.3048
 41
0.3048
 70
0
  0
VERTEX
  8
16
 10
204.4571
 20
-71.9072
 30
0.0000
 42
1.0000
  0
VERTEX
  8
16
 10
204.4571
 20
-71.6024
 30
0.0000
  0
SEQEND
  8
0
  0
POLYLINE
  8
16
 66
1
 10
0.0000
 20
0.0000
 30
0.0000
 40
0.3048
 41
0.3048
 70
0
  0
VERTEX
  8
16
 10
194.4735
 20
-71.6024
 30
0.0000
 42
1.0000
  0
VERTEX
  8
16
 10
194.4735
 20
-71.9072
 30
0.0000
  0
SEQEND
  8
0
  0
POLYLINE
  8
16
 66
1
 10
0.0000
 20
0.0000
 30
0.0000
 40
0.6096
 41
0.6096
 70
0
  0
VERTEX
  8
16
 10
185.9647
 20
-63.2460
 30
0.0000
  0
VERTEX
  8
16
 10
194.4735
 20
-71.7548
 30
0.0000
  0
SEQEND
  8
0
  0
POLYLINE
  8
16
 66
1
 10
0.0000
 20
0.0000
 30
0.0000
 40
0.3048
 41
0.3048
 70
0
  0
VERTEX
  8
16
 10
194.3657
 20
-71.8626
 30
0.0000
 42
1.0000
  0
VERTEX
  8
16
 10
194.5813
 20
-71.6470
 30
0.0000
  0
SEQEND
  8
0
  0
POLYLINE
  8
16
 66
1
 10
0.0000
 20
0.0000
 30
0.0000
 40
0.3048
 41
0.3048
 70
0
  0
VERTEX
  8
16
 10
186.0725
 20
-63.1382
 30
0.0000
 42
1.0000
  0
VERTEX
  8
16
 10
185.8569
 20
-63.3538
 30
0.0000
  0
SEQEND
  8
0
  0
POLYLINE
  8
16
 66
1
 10
0.0000
 20
0.0000
 30
0.0000
 40
0.6096
 41
0.6096
 70
0
  0
VERTEX
  8
16
 10
176.2760
 20
-63.2460
 30
0.0000
  0
VERTEX
  8
16
 10
185.9647
 20
-63.2460
 30
0.0000
  0
SEQEND
  8
0
  0
POLYLINE
  8
16
 66
1
 10
0.0000
 20
0.0000
 30
0.0000
 40
0.3048
 41
0.3048
 70
0
  0
VERTEX
  8
16
 10
185.9647
 20
-63.3984
 30
0.0000
 42
1.0000
  0
VERTEX
  8
16
 10
185.9647
 20
-63.0936
 30
0.0000
  0
SEQEND
  8
0
  0
POLYLINE
  8
16
 66
1
 10
0.0000
 20
0.0000
 30
0.0000
 40
0.3048
 41
0.3048
 70
0
  0
VERTEX
  8
16
 10
176.2760
 20
-63.0936
 30
0.0000
 42
1.0000
  0
VERTEX
  8
16
 10
176.2760
 20
-63.3984
 30
0.0000
  0
SEQEND
  8
0
  0
POLYLINE
  8
16
 66
1
 10
0.0000
 20
0.0000
 30
0.0000
 40
0.6096
 41
0.6096
 70
0
  0
VERTEX
  8
16
 10
155.7020
 20
-22.8600
 30
0.0000
  0
VERTEX
  8
16
 10
152.1460
 20
-19.3040
 30
0.0000
  0
SEQEND
  8
0
  0
POLYLINE
  8
16
 66
1
 10
0.0000
 20
0.0000
 30
0.0000
 40
0.3048
 41
0.3048
 70
0
  0
VERTEX
  8
16
 10
152.2538
 20
-19.1962
 30
0.0000
 42
1.0000
  0
VERTEX
  8
16
 10
152.0382
 20
-19.4118
 30
0.0000
  0
SEQEND
  8
0
  0
POLYLINE
  8
16
 66
1
 10
0.0000
 20
0.0000
 30
0.0000
 40
0.3048
 41
0.3048
 70
0
  0
VERTEX
  8
16
 10
155.5942
 20
-22.9678
 30
0.0000
 42
1.0000
  0
VERTEX
  8
16
 10
155.8098
 20
-22.7522
 30
0.0000
  0
SEQEND
  8
0
  0
POLYLINE
  8
16
 66
1
 10
0.0000
 20
0.0000
 30
0.0000
 40
0.6096
 41
0.6096
 70
0
  0
VERTEX
  8
16
 10
152.1460
 20
-19.3040
 30
0.0000
  0
VERTEX
  8
16
 10
152.1460
 20
-1.1303
 30
0.0000
  0
SEQEND
  8
0
  0
POLYLINE
  8
16
 66
1
 10
0.0000
 20
0.0000
 30
0.0000
 40
0.3048
 41
0.3048
 70
0
  0
VERTEX
  8
16
 10
152.2984
 20
-1.1303
 30
0.0000
 42
1.0000
  0
VERTEX
  8
16
 10
151.9936
 20
-1.1303
 30
0.0000
  0
SEQEND
  8
0
  0
POLYLINE
  8
16
 66
1
 10
0.0000
 20
0.0000
 30
0.0000
 40
0.3048
 41
0.3048
 70
0
  0
VERTEX
  8
16
 10
151.9936
 20
-19.3040
 30
0.0000
 42
1.0000
  0
VERTEX
  8
16
 10
152.2984
 20
-19.3040
 30
0.0000
  0
SEQEND
  8
0
  0
POLYLINE
  8
16
 66
1
 10
0.0000
 20
0.0000
 30
0.0000
 40
0.6096
 41
0.6096
 70
0
  0
VERTEX
  8
16
 10
208.2800
 20
-84.8487
 30
0.0000
  0
VERTEX
  8
16
 10
197.3957
 20
-73.9644
 30
0.0000
  0
SEQEND
  8
0
  0
POLYLINE
  8
16
 66
1
 10
0.0000
 20
0.0000
 30
0.0000
 40
0.3048
 41
0.3048
 70
0
  0
VERTEX
  8
16
 10
197.5035
 20
-73.8566
 30
0.0000
 42
1.0000
  0
VERTEX
  8
16
 10
197.2879
 20
-74.0722
 30
0.0000
  0
SEQEND
  8
0
  0
POLYLINE
  8
16
 66
1
 10
0.0000
 20
0.0000
 30
0.0000
 40
0.3048
 41
0.3048
 70
0
  0
VERTEX
  8
16
 10
208.1722
 20
-84.9565
 30
0.0000
 42
1.0000
  0
VERTEX
  8
16
 10
208.3878
 20
-84.7409
 30
0.0000
  0
SEQEND
  8
0
  0
POLYLINE
  8
16
 66
1
 10
0.0000
 20
0.0000
 30
0.0000
 40
0.6096
 41
0.6096
 70
0
  0
VERTEX
  8
16
 10
197.3957
 20
-73.9644
 30
0.0000
  0
VERTEX
  8
16
 10
193.5583
 20
-73.9644
 30
0.0000
  0
SEQEND
  8
0
  0
POLYLINE
  8
16
 66
1
 10
0.0000
 20
0.0000
 30
0.0000
 40
0.3048
 41
0.3048
 70
0
  0
VERTEX
  8
16
 10
193.5583
 20
-73.8120
 30
0.0000
 42
1.0000
  0
VERTEX
  8
16
 10
193.5583
 20
-74.1168
 30
0.0000
  0
SEQEND
  8
0
  0
POLYLINE
  8
16
 66
1
 10
0.0000
 20
0.0000
 30
0.0000
 40
0.3048
 41
0.3048
 70
0
  0
VERTEX
  8
16
 10
197.3957
 20
-74.1168
 30
0.0000
 42
1.0000
  0
VERTEX
  8
16
 10
197.3957
 20
-73.8120
 30
0.0000
  0
SEQEND
  8
0
  0
POLYLINE
  8
16
 66
1
 10
0.0000
 20
0.0000
 30
0.0000
 40
0.6096
 41
0.6096
 70
0
  0
VERTEX
  8
16
 10
161.3267
 20
-63.2460
 30
0.0000
  0
VERTEX
  8
16
 10
169.8355
 20
-71.7548
 30
0.0000
  0
SEQEND
  8
0
  0
POLYLINE
  8
16
 66
1
 10
0.0000
 20
0.0000
 30
0.0000
 40
0.3048
 41
0.3048
 70
0
  0
VERTEX
  8
16
 10
169.7277
 20
-71.8626
 30
0.0000
 42
1.0000
  0
VERTEX
  8
16
 10
169.9433
 20
-71.6470
 30
0.0000
  0
SEQEND
  8
0
  0
POLYLINE
  8
16
 66
1
 10
0.0000
 20
0.0000
 30
0.0000
 40
0.3048
 41
0.3048
 70
0
  0
VERTEX
  8
16
 10
161.4345
 20
-63.1382
 30
0.0000
 42
1.0000
  0
VERTEX
  8
16
 10
161.2189
 20
-63.3538
 30
0.0000
  0
SEQEND
  8
0
  0
POLYLINE
  8
16
 66
1
 10
0.0000
 20
0.0000
 30
0.0000
 40
0.6096
 41
0.6096
 70
0
  0
VERTEX
  8
16
 10
193.5583
 20
-73.9644
 30
0.0000
  0
VERTEX
  8
16
 10
191.3487
 20
-71.7548
 30
0.0000
  0
SEQEND
  8
0
  0
POLYLINE
  8
16
 66
1
 10
0.0000
 20
0.0000
 30
0.0000
 40
0.3048
 41
0.3048
 70
0
  0
VERTEX
  8
16
 10
191.4564
 20
-71.6470
 30
0.0000
 42
1.0000
  0
VERTEX
  8
16
 10
191.2409
 20
-71.8626
 30
0.0000
  0
SEQEND
  8
0
  0
POLYLINE
  8
16
 66
1
 10
0.0000
 20
0.0000
 30
0.0000
 40
0.3048
 41
0.3048
 70
0
  0
VERTEX
  8
16
 10
193.4505
 20
-74.0722
 30
0.0000
 42
1.0000
  0
VERTEX
  8
16
 10
193.6660
 20
-73.8566
 30
0.0000
  0
SEQEND
  8
0
  0
POLYLINE
  8
16
 66
1
 10
0.0000
 20
0.0000
 30
0.0000
 40
0.6096
 41
0.6096
 70
0
  0
VERTEX
  8
16
 10
191.3487
 20
-71.7548
 30
0.0000
  0
VERTEX
  8
16
 10
169.8355
 20
-71.7548
 30
0.0000
  0
SEQEND
  8
0
  0
POLYLINE
  8
16
 66
1
 10
0.0000
 20
0.0000
 30
0.0000
 40
0.3048
 41
0.3048
 70
0
  0
VERTEX
  8
16
 10
169.8355
 20
-71.6024
 30
0.0000
 42
1.0000
  0
VERTEX
  8
16
 10
169.8355
 20
-71.9072
 30
0.0000
  0
SEQEND
  8
0
  0
POLYLINE
  8
16
 66
1
 10
0.0000
 20
0.0000
 30
0.0000
 40
0.3048
 41
0.3048
 70
0
  0
VERTEX
  8
16
 10
191.3487
 20
-71.9072
 30
0.0000
 42
1.0000
  0
VERTEX
  8
16
 10
191.3487
 20
-71.6024
 30
0.0000
  0
SEQEND
  8
0
  0
POLYLINE
  8
16
 66
1
 10
0.0000
 20
0.0000
 30
0.0000
 40
0.6096
 41
0.6096
 70
0
  0
VERTEX
  8
16
 10
154.0510
 20
-63.2460
 30
0.0000
  0
VERTEX
  8
16
 10
161.3267
 20
-63.2460
 30
0.0000
  0
SEQEND
  8
0
  0
POLYLINE
  8
16
 66
1
 10
0.0000
 20
0.0000
 30
0.0000
 40
0.3048
 41
0.3048
 70
0
  0
VERTEX
  8
16
 10
161.3267
 20
-63.3984
 30
0.0000
 42
1.0000
  0
VERTEX
  8
16
 10
161.3267
 20
-63.0936
 30
0.0000
  0
SEQEND
  8
0
  0
POLYLINE
  8
16
 66
1
 10
0.0000
 20
0.0000
 30
0.0000
 40
0.3048
 41
0.3048
 70
0
  0
VERTEX
  8
16
 10
154.0510
 20
-63.0936
 30
0.0000
 42
1.0000
  0
VERTEX
  8
16
 10
154.0510
 20
-63.3984
 30
0.0000
  0
SEQEND
  8
0
  0
POLYLINE
  8
16
 66
1
 10
0.0000
 20
0.0000
 30
0.0000
 40
0.6096
 41
0.6096
 70
0
  0
VERTEX
  8
16
 10
151.6380
 20
-63.2460
 30
0.0000
  0
VERTEX
  8
16
 10
154.0510
 20
-63.2460
 30
0.0000
  0
SEQEND
  8
0
  0
POLYLINE
  8
16
 66
1
 10
0.0000
 20
0.0000
 30
0.0000
 40
0.3048
 41
0.3048
 70
0
  0
VERTEX
  8
16
 10
154.0510
 20
-63.3984
 30
0.0000
 42
1.0000
  0
VERTEX
  8
16
 10
154.0510
 20
-63.0936
 30
0.0000
  0
SEQEND
  8
0
  0
POLYLINE
  8
16
 66
1
 10
0.0000
 20
0.0000
 30
0.0000
 40
0.3048
 41
0.3048
 70
0
  0
VERTEX
  8
16
 10
151.6380
 20
-63.0936
 30
0.0000
 42
1.0000
  0
VERTEX
  8
16
 10
151.6380
 20
-63.3984
 30
0.0000
  0
SEQEND
  8
0
  0
POLYLINE
  8
16
 66
1
 10
0.0000
 20
0.0000
 30
0.0000
 40
0.6096
 41
0.6096
 70
0
  0
VERTEX
  8
16
 10
131.0640
 20
-22.8600
 30
0.0000
  0
VERTEX
  8
16
 10
134.2390
 20
-19.6850
 30
0.0000
  0
SEQEND
  8
0
  0
POLYLINE
  8
16
 66
1
 10
0.0000
 20
0.0000
 30
0.0000
 40
0.3048
 41
0.3048
 70
0
  0
VERTEX
  8
16
 10
134.3468
 20
-19.7928
 30
0.0000
 42
1.0000
  0
VERTEX
  8
16
 10
134.1312
 20
-19.5772
 30
0.0000
  0
SEQEND
  8
0
  0
POLYLINE
  8
16
 66
1
 10
0.0000
 20
0.0000
 30
0.0000
 40
0.3048
 41
0.3048
 70
0
  0
VERTEX
  8
16
 10
130.9562
 20
-22.7522
 30
0.0000
 42
1.0000
  0
VERTEX
  8
16
 10
131.1718
 20
-22.9678
 30
0.0000
  0
SEQEND
  8
0
  0
POLYLINE
  8
16
 66
1
 10
0.0000
 20
0.0000
 30
0.0000
 40
0.6096
 41
0.6096
 70
0
  0
VERTEX
  8
16
 10
134.2390
 20
-19.6850
 30
0.0000
  0
VERTEX
  8
16
 10
134.2390
 20
-1.1303
 30
0.0000
  0
SEQEND
  8
0
  0
POLYLINE
  8
16
 66
1
 10
0.0000
 20
0.0000
 30
0.0000
 40
0.3048
 41
0.3048
 70
0
  0
VERTEX
  8
16
 10
134.3914
 20
-1.1303
 30
0.0000
 42
1.0000
  0
VERTEX
  8
16
 10
134.0866
 20
-1.1303
 30
0.0000
  0
SEQEND
  8
0
  0
POLYLINE
  8
16
 66
1
 10
0.0000
 20
0.0000
 30
0.0000
 40
0.3048
 41
0.3048
 70
0
  0
VERTEX
  8
16
 10
134.0866
 20
-19.6850
 30
0.0000
 42
1.0000
  0
VERTEX
  8
16
 10
134.3914
 20
-19.6850
 30
0.0000
  0
SEQEND
  8
0
  0
POLYLINE
  8
16
 66
1
 10
0.0000
 20
0.0000
 30
0.0000
 40
0.6096
 41
0.6096
 70
0
  0
VERTEX
  8
16
 10
108.8025
 20
-71.7548
 30
0.0000
  0
VERTEX
  8
16
 10
117.1843
 20
-63.3730
 30
0.0000
  0
SEQEND
  8
0
  0
POLYLINE
  8
16
 66
1
 10
0.0000
 20
0.0000
 30
0.0000
 40
0.3048
 41
0.3048
 70
0
  0
VERTEX
  8
16
 10
117.2921
 20
-63.4808
 30
0.0000
 42
1.0000
  0
VERTEX
  8
16
 10
117.0765
 20
-63.2652
 30
0.0000
  0
SEQEND
  8
0
  0
POLYLINE
  8
16
 66
1
 10
0.0000
 20
0.0000
 30
0.0000
 40
0.3048
 41
0.3048
 70
0
  0
VERTEX
  8
16
 10
108.6947
 20
-71.6470
 30
0.0000
 42
1.0000
  0
VERTEX
  8
16
 10
108.9103
 20
-71.8626
 30
0.0000
  0
SEQEND
  8
0
  0
POLYLINE
  8
16
 66
1
 10
0.0000
 20
0.0000
 30
0.0000
 40
0.6096
 41
0.6096
 70
0
  0
VERTEX
  8
16
 10
126.8730
 20
-63.3730
 30
0.0000
  0
VERTEX
  8
16
 10
127.0000
 20
-63.2460
 30
0.0000
  0
SEQEND
  8
0
  0
POLYLINE
  8
16
 66
1
 10
0.0000
 20
0.0000
 30
0.0000
 40
0.3048
 41
0.3048
 70
0
  0
VERTEX
  8
16
 10
127.1078
 20
-63.3538
 30
0.0000
 42
1.0000
  0
VERTEX
  8
16
 10
126.8922
 20
-63.1382
 30
0.0000
  0
SEQEND
  8
0
  0
POLYLINE
  8
16
 66
1
 10
0.0000
 20
0.0000
 30
0.0000
 40
0.3048
 41
0.3048
 70
0
  0
VERTEX
  8
16
 10
126.7652
 20
-63.2652
 30
0.0000
 42
1.0000
  0
VERTEX
  8
16
 10
126.9808
 20
-63.4808
 30
0.0000
  0
SEQEND
  8
0
  0
POLYLINE
  8
16
 66
1
 10
0.0000
 20
0.0000
 30
0.0000
 40
0.6096
 41
0.6096
 70
0
  0
VERTEX
  8
16
 10
117.1843
 20
-63.3730
 30
0.0000
  0
VERTEX
  8
16
 10
126.8730
 20
-63.3730
 30
0.0000
  0
SEQEND
  8
0
  0
POLYLINE
  8
16
 66
1
 10
0.0000
 20
0.0000
 30
0.0000
 40
0.3048
 41
0.3048
 70
0
  0
VERTEX
  8
16
 10
126.8730
 20
-63.5254
 30
0.0000
 42
1.0000
  0
VERTEX
  8
16
 10
126.8730
 20
-63.2206
 30
0.0000
  0
SEQEND
  8
0
  0
POLYLINE
  8
16
 66
1
 10
0.0000
 20
0.0000
 30
0.0000
 40
0.3048
 41
0.3048
 70
0
  0
VERTEX
  8
16
 10
117.1843
 20
-63.2206
 30
0.0000
 42
1.0000
  0
VERTEX
  8
16
 10
117.1843
 20
-63.5254
 30
0.0000
  0
SEQEND
  8
0
  0
POLYLINE
  8
16
 66
1
 10
0.0000
 20
0.0000
 30
0.0000
 40
0.5080
 41
0.5080
 70
0
  0
VERTEX
  8
16
 10
131.6990
 20
-37.4650
 30
0.0000
  0
VERTEX
  8
16
 10
131.6990
 20
-45.6455
 30
0.0000
  0
SEQEND
  8
0
  0
POLYLINE
  8
16
 66
1
 10
0.0000
 20
0.0000
 30
0.0000
 40
0.2540
 41
0.2540
 70
0
  0
VERTEX
  8
16
 10
131.5720
 20
-45.6455
 30
0.0000
 42
1.0000
  0
VERTEX
  8
16
 10
131.8260
 20
-45.6455
 30
0.0000
  0
SEQEND
  8
0
  0
POLYLINE
  8
16
 66
1
 10
0.0000
 20
0.0000
 30
0.0000
 40
0.2540
 41
0.2540
 70
0
  0
VERTEX
  8
16
 10
131.8260
 20
-37.4650
 30
0.0000
 42
1.0000
  0
VERTEX
  8
16
 10
131.5720
 20
-37.4650
 30
0.0000
  0
SEQEND
  8
0
  0
POLYLINE
  8
16
 66
1
 10
0.0000
 20
0.0000
 30
0.0000
 40
0.5080
 41
0.5080
 70
0
  0
VERTEX
  8
16
 10
131.6990
 20
-45.6455
 30
0.0000
  0
VERTEX
  8
16
 10
127.0000
 20
-50.3445
 30
0.0000
  0
SEQEND
  8
0
  0
POLYLINE
  8
16
 66
1
 10
0.0000
 20
0.0000
 30
0.0000
 40
0.2540
 41
0.2540
 70
0
  0
VERTEX
  8
16
 10
126.9102
 20
-50.2547
 30
0.0000
 42
1.0000
  0
VERTEX
  8
16
 10
127.0898
 20
-50.4343
 30
0.0000
  0
SEQEND
  8
0
  0
POLYLINE
  8
16
 66
1
 10
0.0000
 20
0.0000
 30
0.0000
 40
0.2540
 41
0.2540
 70
0
  0
VERTEX
  8
16
 10
131.7888
 20
-45.7353
 30
0.0000
 42
1.0000
  0
VERTEX
  8
16
 10
131.6092
 20
-45.5557
 30
0.0000
  0
SEQEND
  8
0
  0
POLYLINE
  8
16
 66
1
 10
0.0000
 20
0.0000
 30
0.0000
 40
0.5080
 41
0.5080
 70
0
  0
VERTEX
  8
16
 10
127.0000
 20
-63.2460
 30
0.0000
  0
VERTEX
  8
16
 10
127.0000
 20
-50.3445
 30
0.0000
  0
SEQEND
  8
0
  0
POLYLINE
  8
16
 66
1
 10
0.0000
 20
0.0000
 30
0.0000
 40
0.2540
 41
0.2540
 70
0
  0
VERTEX
  8
16
 10
127.1270
 20
-50.3445
 30
0.0000
 42
1.0000
  0
VERTEX
  8
16
 10
126.8730
 20
-50.3445
 30
0.0000
  0
SEQEND
  8
0
  0
POLYLINE
  8
16
 66
1
 10
0.0000
 20
0.0000
 30
0.0000
 40
0.2540
 41
0.2540
 70
0
  0
VERTEX
  8
16
 10
126.8730
 20
-63.2460
 30
0.0000
 42
1.0000
  0
VERTEX
  8
16
 10
127.1270
 20
-63.2460
 30
0.0000
  0
SEQEND
  8
0
  0
POLYLINE
  8
16
 66
1
 10
0.0000
 20
0.0000
 30
0.0000
 40
0.6096
 41
0.6096
 70
0
  0
VERTEX
  8
16
 10
90.8050
 20
-84.8487
 30
0.0000
  0
VERTEX
  8
16
 10
95.3963
 20
-80.2575
 30
0.0000
  0
SEQEND
  8
0
  0
POLYLINE
  8
16
 66
1
 10
0.0000
 20
0.0000
 30
0.0000
 40
0.3048
 41
0.3048
 70
0
  0
VERTEX
  8
16
 10
95.5040
 20
-80.3652
 30
0.0000
 42
1.0000
  0
VERTEX
  8
16
 10
95.2885
 20
-80.1497
 30
0.0000
  0
SEQEND
  8
0
  0
POLYLINE
  8
16
 66
1
 10
0.0000
 20
0.0000
 30
0.0000
 40
0.3048
 41
0.3048
 70
0
  0
VERTEX
  8
16
 10
90.6972
 20
-84.7409
 30
0.0000
 42
1.0000
  0
VERTEX
  8
16
 10
90.9128
 20
-84.9565
 30
0.0000
  0
SEQEND
  8
0
  0
POLYLINE
  8
16
 66
1
 10
0.0000
 20
0.0000
 30
0.0000
 40
0.6096
 41
0.6096
 70
0
  0
VERTEX
  8
16
 10
95.3963
 20
-80.2575
 30
0.0000
  0
VERTEX
  8
16
 10
95.3963
 20
-73.3545
 30
0.0000
  0
SEQEND
  8
0
  0
POLYLINE
  8
16
 66
1
 10
0.0000
 20
0.0000
 30
0.0000
 40
0.3048
 41
0.3048
 70
0
  0
VERTEX
  8
16
 10
95.5487
 20
-73.3545
 30
0.0000
 42
1.0000
  0
VERTEX
  8
16
 10
95.2439
 20
-73.3545
 30
0.0000
  0
SEQEND
  8
0
  0
POLYLINE
  8
16
 66
1
 10
0.0000
 20
0.0000
 30
0.0000
 40
0.3048
 41
0.3048
 70
0
  0
VERTEX
  8
16
 10
95.2439
 20
-80.2575
 30
0.0000
 42
1.0000
  0
VERTEX
  8
16
 10
95.5487
 20
-80.2575
 30
0.0000
  0
SEQEND
  8
0
  0
POLYLINE
  8
16
 66
1
 10
0.0000
 20
0.0000
 30
0.0000
 40
0.6096
 41
0.6096
 70
0
  0
VERTEX
  8
16
 10
95.3963
 20
-73.3545
 30
0.0000
  0
VERTEX
  8
16
 10
96.9960
 20
-71.7548
 30
0.0000
  0
SEQEND
  8
0
  0
POLYLINE
  8
16
 66
1
 10
0.0000
 20
0.0000
 30
0.0000
 40
0.3048
 41
0.3048
 70
0
  0
VERTEX
  8
16
 10
97.1038
 20
-71.8626
 30
0.0000
 42
1.0000
  0
VERTEX
  8
16
 10
96.8882
 20
-71.6470
 30
0.0000
  0
SEQEND
  8
0
  0
POLYLINE
  8
16
 66
1
 10
0.0000
 20
0.0000
 30
0.0000
 40
0.3048
 41
0.3048
 70
0
  0
VERTEX
  8
16
 10
95.2885
 20
-73.2468
 30
0.0000
 42
1.0000
  0
VERTEX
  8
16
 10
95.5040
 20
-73.4623
 30
0.0000
  0
SEQEND
  8
0
  0
POLYLINE
  8
16
 66
1
 10
0.0000
 20
0.0000
 30
0.0000
 40
0.6096
 41
0.6096
 70
0
  0
VERTEX
  8
16
 10
96.9960
 20
-71.7548
 30
0.0000
  0
VERTEX
  8
16
 10
108.8025
 20
-71.7548
 30
0.0000
  0
SEQEND
  8
0
  0
POLYLINE
  8
16
 66
1
 10
0.0000
 20
0.0000
 30
0.0000
 40
0.3048
 41
0.3048
 70
0
  0
VERTEX
  8
16
 10
108.8025
 20
-71.9072
 30
0.0000
 42
1.0000
  0
VERTEX
  8
16
 10
108.8025
 20
-71.6024
 30
0.0000
  0
SEQEND
  8
0
  0
POLYLINE
  8
16
 66
1
 10
0.0000
 20
0.0000
 30
0.0000
 40
0.3048
 41
0.3048
 70
0
  0
VERTEX
  8
16
 10
96.9960
 20
-71.6024
 30
0.0000
 42
1.0000
  0
VERTEX
  8
16
 10
96.9960
 20
-71.9072
 30
0.0000
  0
SEQEND
  8
0
  0
POLYLINE
  8
16
 66
1
 10
0.0000
 20
0.0000
 30
0.0000
 40
0.6096
 41
0.6096
 70
0
  0
VERTEX
  8
16
 10
106.1720
 20
-22.8600
 30
0.0000
  0
VERTEX
  8
16
 10
109.6010
 20
-19.4310
 30
0.0000
  0
SEQEND
  8
0
  0
POLYLINE
  8
16
 66
1
 10
0.0000
 20
0.0000
 30
0.0000
 40
0.3048
 41
0.3048
 70
0
  0
VERTEX
  8
16
 10
109.7088
 20
-19.5388
 30
0.0000
 42
1.0000
  0
VERTEX
  8
16
 10
109.4932
 20
-19.3232
 30
0.0000
  0
SEQEND
  8
0
  0
POLYLINE
  8
16
 66
1
 10
0.0000
 20
0.0000
 30
0.0000
 40
0.3048
 41
0.3048
 70
0
  0
VERTEX
  8
16
 10
106.0642
 20
-22.7522
 30
0.0000
 42
1.0000
  0
VERTEX
  8
16
 10
106.2798
 20
-22.9678
 30
0.0000
  0
SEQEND
  8
0
  0
POLYLINE
  8
16
 66
1
 10
0.0000
 20
0.0000
 30
0.0000
 40
0.6096
 41
0.6096
 70
0
  0
VERTEX
  8
16
 10
109.6010
 20
-19.4310
 30
0.0000
  0
VERTEX
  8
16
 10
109.6010
 20
-1.1303
 30
0.0000
  0
SEQEND
  8
0
  0
POLYLINE
  8
16
 66
1
 10
0.0000
 20
0.0000
 30
0.0000
 40
0.3048
 41
0.3048
 70
0
  0
VERTEX
  8
16
 10
109.7534
 20
-1.1303
 30
0.0000
 42
1.0000
  0
VERTEX
  8
16
 10
109.4486
 20
-1.1303
 30
0.0000
  0
SEQEND
  8
0
  0
POLYLINE
  8
16
 66
1
 10
0.0000
 20
0.0000
 30
0.0000
 40
0.3048
 41
0.3048
 70
0
  0
VERTEX
  8
16
 10
109.4486
 20
-19.4310
 30
0.0000
 42
1.0000
  0
VERTEX
  8
16
 10
109.7534
 20
-19.4310
 30
0.0000
  0
SEQEND
  8
0
  0
POLYLINE
  8
16
 66
1
 10
0.0000
 20
0.0000
 30
0.0000
 40
0.6096
 41
0.6096
 70
0
  0
VERTEX
  8
16
 10
69.3547
 20
-72.0090
 30
0.0000
  0
VERTEX
  8
16
 10
56.5150
 20
-84.8487
 30
0.0000
  0
SEQEND
  8
0
  0
POLYLINE
  8
16
 66
1
 10
0.0000
 20
0.0000
 30
0.0000
 40
0.3048
 41
0.3048
 70
0
  0
VERTEX
  8
16
 10
56.4072
 20
-84.7409
 30
0.0000
 42
1.0000
  0
VERTEX
  8
16
 10
56.6228
 20
-84.9565
 30
0.0000
  0
SEQEND
  8
0
  0
POLYLINE
  8
16
 66
1
 10
0.0000
 20
0.0000
 30
0.0000
 40
0.3048
 41
0.3048
 70
0
  0
VERTEX
  8
16
 10
69.4625
 20
-72.1168
 30
0.0000
 42
1.0000
  0
VERTEX
  8
16
 10
69.2469
 20
-71.9012
 30
0.0000
  0
SEQEND
  8
0
  0
POLYLINE
  8
16
 66
1
 10
0.0000
 20
0.0000
 30
0.0000
 40
0.6096
 41
0.6096
 70
0
  0
VERTEX
  8
16
 10
69.3547
 20
-72.0090
 30
0.0000
  0
VERTEX
  8
16
 10
86.9950
 20
-72.0090
 30
0.0000
  0
SEQEND
  8
0
  0
POLYLINE
  8
16
 66
1
 10
0.0000
 20
0.0000
 30
0.0000
 40
0.3048
 41
0.3048
 70
0
  0
VERTEX
  8
16
 10
86.9950
 20
-72.1614
 30
0.0000
 42
1.0000
  0
VERTEX
  8
16
 10
86.9950
 20
-71.8566
 30
0.0000
  0
SEQEND
  8
0
  0
POLYLINE
  8
16
 66
1
 10
0.0000
 20
0.0000
 30
0.0000
 40
0.3048
 41
0.3048
 70
0
  0
VERTEX
  8
16
 10
69.3547
 20
-71.8566
 30
0.0000
 42
1.0000
  0
VERTEX
  8
16
 10
69.3547
 20
-72.1614
 30
0.0000
  0
SEQEND
  8
0
  0
POLYLINE
  8
16
 66
1
 10
0.0000
 20
0.0000
 30
0.0000
 40
0.6096
 41
0.6096
 70
0
  0
VERTEX
  8
16
 10
86.9950
 20
-72.0090
 30
0.0000
  0
VERTEX
  8
16
 10
95.7580
 20
-63.2460
 30
0.0000
  0
SEQEND
  8
0
  0
POLYLINE
  8
16
 66
1
 10
0.0000
 20
0.0000
 30
0.0000
 40
0.3048
 41
0.3048
 70
0
  0
VERTEX
  8
16
 10
95.8658
 20
-63.3538
 30
0.0000
 42
1.0000
  0
VERTEX
  8
16
 10
95.6502
 20
-63.1382
 30
0.0000
  0
SEQEND
  8
0
  0
POLYLINE
  8
16
 66
1
 10
0.0000
 20
0.0000
 30
0.0000
 40
0.3048
 41
0.3048
 70
0
  0
VERTEX
  8
16
 10
86.8872
 20
-71.9012
 30
0.0000
 42
1.0000
  0
VERTEX
  8
16
 10
87.1028
 20
-72.1168
 30
0.0000
  0
SEQEND
  8
0
  0
POLYLINE
  8
16
 66
1
 10
0.0000
 20
0.0000
 30
0.0000
 40
0.6096
 41
0.6096
 70
0
  0
VERTEX
  8
16
 10
95.7580
 20
-63.2460
 30
0.0000
  0
VERTEX
  8
16
 10
102.3620
 20
-63.2460
 30
0.0000
  0
SEQEND
  8
0
  0
POLYLINE
  8
16
 66
1
 10
0.0000
 20
0.0000
 30
0.0000
 40
0.3048
 41
0.3048
 70
0
  0
VERTEX
  8
16
 10
102.3620
 20
-63.3984
 30
0.0000
 42
1.0000
  0
VERTEX
  8
16
 10
102.3620
 20
-63.0936
 30
0.0000
  0
SEQEND
  8
0
  0
POLYLINE
  8
16
 66
1
 10
0.0000
 20
0.0000
 30
0.0000
 40
0.3048
 41
0.3048
 70
0
  0
VERTEX
  8
16
 10
95.7580
 20
-63.0936
 30
0.0000
 42
1.0000
  0
VERTEX
  8
16
 10
95.7580
 20
-63.3984
 30
0.0000
  0
SEQEND
  8
0
  0
POLYLINE
  8
16
 66
1
 10
0.0000
 20
0.0000
 30
0.0000
 40
0.6096
 41
0.6096
 70
0
  0
VERTEX
  8
16
 10
77.4700
 20
-1.1303
 30
0.0000
  0
VERTEX
  8
16
 10
77.4700
 20
-18.7960
 30
0.0000
  0
SEQEND
  8
0
  0
POLYLINE
  8
16
 66
1
 10
0.0000
 20
0.0000
 30
0.0000
 40
0.3048
 41
0.3048
 70
0
  0
VERTEX
  8
16
 10
77.3176
 20
-18.7960
 30
0.0000
 42
1.0000
  0
VERTEX
  8
16
 10
77.6224
 20
-18.7960
 30
0.0000
  0
SEQEND
  8
0
  0
POLYLINE
  8
16
 66
1
 10
0.0000
 20
0.0000
 30
0.0000
 40
0.3048
 41
0.3048
 70
0
  0
VERTEX
  8
16
 10
77.6224
 20
-1.1303
 30
0.0000
 42
1.0000
  0
VERTEX
  8
16
 10
77.3176
 20
-1.1303
 30
0.0000
  0
SEQEND
  8
0
  0
POLYLINE
  8
16
 66
1
 10
0.0000
 20
0.0000
 30
0.0000
 40
0.6096
 41
0.6096
 70
0
  0
VERTEX
  8
16
 10
77.4700
 20
-18.7960
 30
0.0000
  0
VERTEX
  8
16
 10
81.5340
 20
-22.8600
 30
0.0000
  0
SEQEND
  8
0
  0
POLYLINE
  8
16
 66
1
 10
0.0000
 20
0.0000
 30
0.0000
 40
0.3048
 41
0.3048
 70
0
  0
VERTEX
  8
16
 10
81.4262
 20
-22.9678
 30
0.0000
 42
1.0000
  0
VERTEX
  8
16
 10
81.6418
 20
-22.7522
 30
0.0000
  0
SEQEND
  8
0
  0
POLYLINE
  8
16
 66
1
 10
0.0000
 20
0.0000
 30
0.0000
 40
0.3048
 41
0.3048
 70
0
  0
VERTEX
  8
16
 10
77.5778
 20
-18.6882
 30
0.0000
 42
1.0000
  0
VERTEX
  8
16
 10
77.3622
 20
-18.9038
 30
0.0000
  0
SEQEND
  8
0
  0
POLYLINE
  8
16
 66
1
 10
0.0000
 20
0.0000
 30
0.0000
 40
0.6096
 41
0.6096
 70
0
  0
VERTEX
  8
16
 10
47.2440
 20
-84.8487
 30
0.0000
  0
VERTEX
  8
16
 10
47.2440
 20
-84.7993
 30
0.0000
  0
SEQEND
  8
0
  0
POLYLINE
  8
16
 66
1
 10
0.0000
 20
0.0000
 30
0.0000
 40
0.3048
 41
0.3048
 70
0
  0
VERTEX
  8
16
 10
47.3964
 20
-84.7993
 30
0.0000
 42
1.0000
  0
VERTEX
  8
16
 10
47.0916
 20
-84.7993
 30
0.0000
  0
SEQEND
  8
0
  0
POLYLINE
  8
16
 66
1
 10
0.0000
 20
0.0000
 30
0.0000
 40
0.3048
 41
0.3048
 70
0
  0
VERTEX
  8
16
 10
47.0916
 20
-84.8487
 30
0.0000
 42
1.0000
  0
VERTEX
  8
16
 10
47.3964
 20
-84.8487
 30
0.0000
  0
SEQEND
  8
0
  0
POLYLINE
  8
16
 66
1
 10
0.0000
 20
0.0000
 30
0.0000
 40
0.6096
 41
0.6096
 70
0
  0
VERTEX
  8
16
 10
47.2440
 20
-84.7993
 30
0.0000
  0
VERTEX
  8
16
 10
68.7973
 20
-63.2460
 30
0.0000
  0
SEQEND
  8
0
  0
POLYLINE
  8
16
 66
1
 10
0.0000
 20
0.0000
 30
0.0000
 40
0.3048
 41
0.3048
 70
0
  0
VERTEX
  8
16
 10
68.9051
 20
-63.3538
 30
0.0000
 42
1.0000
  0
VERTEX
  8
16
 10
68.6895
 20
-63.1382
 30
0.0000
  0
SEQEND
  8
0
  0
POLYLINE
  8
16
 66
1
 10
0.0000
 20
0.0000
 30
0.0000
 40
0.3048
 41
0.3048
 70
0
  0
VERTEX
  8
16
 10
47.1362
 20
-84.6915
 30
0.0000
 42
1.0000
  0
VERTEX
  8
16
 10
47.3518
 20
-84.9071
 30
0.0000
  0
SEQEND
  8
0
  0
POLYLINE
  8
16
 66
1
 10
0.0000
 20
0.0000
 30
0.0000
 40
0.5080
 41
0.5080
 70
0
  0
VERTEX
  8
16
 10
68.7973
 20
-63.2460
 30
0.0000
  0
VERTEX
  8
16
 10
68.8483
 20
-63.1950
 30
0.0000
  0
SEQEND
  8
0
  0
POLYLINE
  8
16
 66
1
 10
0.0000
 20
0.0000
 30
0.0000
 40
0.2540
 41
0.2540
 70
0
  0
VERTEX
  8
16
 10
68.9381
 20
-63.2848
 30
0.0000
 42
1.0000
  0
VERTEX
  8
16
 10
68.7585
 20
-63.1052
 30
0.0000
  0
SEQEND
  8
0
  0
POLYLINE
  8
16
 66
1
 10
0.0000
 20
0.0000
 30
0.0000
 40
0.2540
 41
0.2540
 70
0
  0
VERTEX
  8
16
 10
68.7075
 20
-63.1562
 30
0.0000
 42
1.0000
  0
VERTEX
  8
16
 10
68.8871
 20
-63.3358
 30
0.0000
  0
SEQEND
  8
0
  0
POLYLINE
  8
16
 66
1
 10
0.0000
 20
0.0000
 30
0.0000
 40
0.5080
 41
0.5080
 70
0
  0
VERTEX
  8
16
 10
77.6730
 20
-63.1950
 30
0.0000
  0
VERTEX
  8
16
 10
77.7240
 20
-63.2460
 30
0.0000
  0
SEQEND
  8
0
  0
POLYLINE
  8
16
 66
1
 10
0.0000
 20
0.0000
 30
0.0000
 40
0.2540
 41
0.2540
 70
0
  0
VERTEX
  8
16
 10
77.6342
 20
-63.3358
 30
0.0000
 42
1.0000
  0
VERTEX
  8
16
 10
77.8138
 20
-63.1562
 30
0.0000
  0
SEQEND
  8
0
  0
POLYLINE
  8
16
 66
1
 10
0.0000
 20
0.0000
 30
0.0000
 40
0.2540
 41
0.2540
 70
0
  0
VERTEX
  8
16
 10
77.7628
 20
-63.1052
 30
0.0000
 42
1.0000
  0
VERTEX
  8
16
 10
77.5832
 20
-63.2848
 30
0.0000
  0
SEQEND
  8
0
  0
POLYLINE
  8
16
 66
1
 10
0.0000
 20
0.0000
 30
0.0000
 40
0.5080
 41
0.5080
 70
0
  0
VERTEX
  8
16
 10
68.8483
 20
-63.1950
 30
0.0000
  0
VERTEX
  8
16
 10
77.6730
 20
-63.1950
 30
0.0000
  0
SEQEND
  8
0
  0
POLYLINE
  8
16
 66
1
 10
0.0000
 20
0.0000
 30
0.0000
 40
0.2540
 41
0.2540
 70
0
  0
VERTEX
  8
16
 10
77.6730
 20
-63.3220
 30
0.0000
 42
1.0000
  0
VERTEX
  8
16
 10
77.6730
 20
-63.0680
 30
0.0000
  0
SEQEND
  8
0
  0
POLYLINE
  8
16
 66
1
 10
0.0000
 20
0.0000
 30
0.0000
 40
0.2540
 41
0.2540
 70
0
  0
VERTEX
  8
16
 10
68.8483
 20
-63.0680
 30
0.0000
 42
1.0000
  0
VERTEX
  8
16
 10
68.8483
 20
-63.3220
 30
0.0000
  0
SEQEND
  8
0
  0
POLYLINE
  8
16
 66
1
 10
0.0000
 20
0.0000
 30
0.0000
 40
0.5080
 41
0.5080
 70
0
  0
VERTEX
  8
16
 10
56.8960
 20
-22.8600
 30
0.0000
  0
VERTEX
  8
16
 10
56.8960
 20
-2.2733
 30
0.0000
  0
SEQEND
  8
0
  0
POLYLINE
  8
16
 66
1
 10
0.0000
 20
0.0000
 30
0.0000
 40
0.2540
 41
0.2540
 70
0
  0
VERTEX
  8
16
 10
57.0230
 20
-2.2733
 30
0.0000
 42
1.0000
  0
VERTEX
  8
16
 10
56.7690
 20
-2.2733
 30
0.0000
  0
SEQEND
  8
0
  0
POLYLINE
  8
16
 66
1
 10
0.0000
 20
0.0000
 30
0.0000
 40
0.2540
 41
0.2540
 70
0
  0
VERTEX
  8
16
 10
56.7690
 20
-22.8600
 30
0.0000
 42
1.0000
  0
VERTEX
  8
16
 10
57.0230
 20
-22.8600
 30
0.0000
  0
SEQEND
  8
0
  0
POLYLINE
  8
16
 66
1
 10
0.0000
 20
0.0000
 30
0.0000
 40
0.5080
 41
0.5080
 70
0
  0
VERTEX
  8
16
 10
56.8960
 20
-2.2733
 30
0.0000
  0
VERTEX
  8
16
 10
55.7530
 20
-1.1303
 30
0.0000
  0
SEQEND
  8
0
  0
POLYLINE
  8
16
 66
1
 10
0.0000
 20
0.0000
 30
0.0000
 40
0.2540
 41
0.2540
 70
0
  0
VERTEX
  8
16
 10
55.8428
 20
-1.0405
 30
0.0000
 42
1.0000
  0
VERTEX
  8
16
 10
55.6632
 20
-1.2201
 30
0.0000
  0
SEQEND
  8
0
  0
POLYLINE
  8
16
 66
1
 10
0.0000
 20
0.0000
 30
0.0000
 40
0.2540
 41
0.2540
 70
0
  0
VERTEX
  8
16
 10
56.8062
 20
-2.3631
 30
0.0000
 42
1.0000
  0
VERTEX
  8
16
 10
56.9858
 20
-2.1835
 30
0.0000
  0
SEQEND
  8
0
  0
POLYLINE
  8
16
 66
1
 10
0.0000
 20
0.0000
 30
0.0000
 40
0.6096
 41
0.6096
 70
0
  0
VERTEX
  8
16
 10
47.0027
 20
-63.6270
 30
0.0000
  0
VERTEX
  8
16
 10
30.7340
 20
-79.8957
 30
0.0000
  0
SEQEND
  8
0
  0
POLYLINE
  8
16
 66
1
 10
0.0000
 20
0.0000
 30
0.0000
 40
0.3048
 41
0.3048
 70
0
  0
VERTEX
  8
16
 10
30.6262
 20
-79.7879
 30
0.0000
 42
1.0000
  0
VERTEX
  8
16
 10
30.8418
 20
-80.0035
 30
0.0000
  0
SEQEND
  8
0
  0
POLYLINE
  8
16
 66
1
 10
0.0000
 20
0.0000
 30
0.0000
 40
0.3048
 41
0.3048
 70
0
  0
VERTEX
  8
16
 10
47.1105
 20
-63.7348
 30
0.0000
 42
1.0000
  0
VERTEX
  8
16
 10
46.8949
 20
-63.5192
 30
0.0000
  0
SEQEND
  8
0
  0
POLYLINE
  8
16
 66
1
 10
0.0000
 20
0.0000
 30
0.0000
 40
0.6096
 41
0.6096
 70
0
  0
VERTEX
  8
16
 10
30.7340
 20
-79.8957
 30
0.0000
  0
VERTEX
  8
16
 10
30.7340
 20
-84.8487
 30
0.0000
  0
SEQEND
  8
0
  0
POLYLINE
  8
16
 66
1
 10
0.0000
 20
0.0000
 30
0.0000
 40
0.3048
 41
0.3048
 70
0
  0
VERTEX
  8
16
 10
30.5816
 20
-84.8487
 30
0.0000
 42
1.0000
  0
VERTEX
  8
16
 10
30.8864
 20
-84.8487
 30
0.0000
  0
SEQEND
  8
0
  0
POLYLINE
  8
16
 66
1
 10
0.0000
 20
0.0000
 30
0.0000
 40
0.3048
 41
0.3048
 70
0
  0
VERTEX
  8
16
 10
30.8864
 20
-79.8957
 30
0.0000
 42
1.0000
  0
VERTEX
  8
16
 10
30.5816
 20
-79.8957
 30
0.0000
  0
SEQEND
  8
0
  0
POLYLINE
  8
16
 66
1
 10
0.0000
 20
0.0000
 30
0.0000
 40
0.6096
 41
0.6096
 70
0
  0
VERTEX
  8
16
 10
53.0860
 20
-63.2460
 30
0.0000
  0
VERTEX
  8
16
 10
52.7050
 20
-63.6270
 30
0.0000
  0
SEQEND
  8
0
  0
POLYLINE
  8
16
 66
1
 10
0.0000
 20
0.0000
 30
0.0000
 40
0.3048
 41
0.3048
 70
0
  0
VERTEX
  8
16
 10
52.5972
 20
-63.5192
 30
0.0000
 42
1.0000
  0
VERTEX
  8
16
 10
52.8128
 20
-63.7348
 30
0.0000
  0
SEQEND
  8
0
  0
POLYLINE
  8
16
 66
1
 10
0.0000
 20
0.0000
 30
0.0000
 40
0.3048
 41
0.3048
 70
0
  0
VERTEX
  8
16
 10
53.1938
 20
-63.3538
 30
0.0000
 42
1.0000
  0
VERTEX
  8
16
 10
52.9782
 20
-63.1382
 30
0.0000
  0
SEQEND
  8
0
  0
POLYLINE
  8
16
 66
1
 10
0.0000
 20
0.0000
 30
0.0000
 40
0.6096
 41
0.6096
 70
0
  0
VERTEX
  8
16
 10
52.7050
 20
-63.6270
 30
0.0000
  0
VERTEX
  8
16
 10
47.0027
 20
-63.6270
 30
0.0000
  0
SEQEND
  8
0
  0
POLYLINE
  8
16
 66
1
 10
0.0000
 20
0.0000
 30
0.0000
 40
0.3048
 41
0.3048
 70
0
  0
VERTEX
  8
16
 10
47.0027
 20
-63.4746
 30
0.0000
 42
1.0000
  0
VERTEX
  8
16
 10
47.0027
 20
-63.7794
 30
0.0000
  0
SEQEND
  8
0
  0
POLYLINE
  8
16
 66
1
 10
0.0000
 20
0.0000
 30
0.0000
 40
0.3048
 41
0.3048
 70
0
  0
VERTEX
  8
16
 10
52.7050
 20
-63.7794
 30
0.0000
 42
1.0000
  0
VERTEX
  8
16
 10
52.7050
 20
-63.4746
 30
0.0000
  0
SEQEND
  8
0
  0
POLYLINE
  8
16
 66
1
 10
0.0000
 20
0.0000
 30
0.0000
 40
0.6096
 41
0.6096
 70
0
  0
VERTEX
  8
16
 10
37.9730
 20
-1.1303
 30
0.0000
  0
VERTEX
  8
16
 10
34.5440
 20
-4.5593
 30
0.0000
  0
SEQEND
  8
0
  0
POLYLINE
  8
16
 66
1
 10
0.0000
 20
0.0000
 30
0.0000
 40
0.3048
 41
0.3048
 70
0
  0
VERTEX
  8
16
 10
34.4362
 20
-4.4515
 30
0.0000
 42
1.0000
  0
VERTEX
  8
16
 10
34.6518
 20
-4.6671
 30
0.0000
  0
SEQEND
  8
0
  0
POLYLINE
  8
16
 66
1
 10
0.0000
 20
0.0000
 30
0.0000
 40
0.3048
 41
0.3048
 70
0
  0
VERTEX
  8
16
 10
38.0808
 20
-1.2381
 30
0.0000
 42
1.0000
  0
VERTEX
  8
16
 10
37.8652
 20
-1.0225
 30
0.0000
  0
SEQEND
  8
0
  0
POLYLINE
  8
16
 66
1
 10
0.0000
 20
0.0000
 30
0.0000
 40
0.6096
 41
0.6096
 70
0
  0
VERTEX
  8
16
 10
34.5440
 20
-19.6850
 30
0.0000
  0
VERTEX
  8
16
 10
34.5440
 20
-4.5593
 30
0.0000
  0
SEQEND
  8
0
  0
POLYLINE
  8
16
 66
1
 10
0.0000
 20
0.0000
 30
0.0000
 40
0.3048
 41
0.3048
 70
0
  0
VERTEX
  8
16
 10
34.6964
 20
-4.5593
 30
0.0000
 42
1.0000
  0
VERTEX
  8
16
 10
34.3916
 20
-4.5593
 30
0.0000
  0
SEQEND
  8
0
  0
POLYLINE
  8
16
 66
1
 10
0.0000
 20
0.0000
 30
0.0000
 40
0.3048
 41
0.3048
 70
0
  0
VERTEX
  8
16
 10
34.3916
 20
-19.6850
 30
0.0000
 42
1.0000
  0
VERTEX
  8
16
 10
34.6964
 20
-19.6850
 30
0.0000
  0
SEQEND
  8
0
  0
POLYLINE
  8
16
 66
1
 10
0.0000
 20
0.0000
 30
0.0000
 40
0.5080
 41
0.5080
 70
0
  0
VERTEX
  8
16
 10
32.2580
 20
-22.8600
 30
0.0000
  0
VERTEX
  8
16
 10
34.5440
 20
-20.5740
 30
0.0000
  0
SEQEND
  8
0
  0
POLYLINE
  8
16
 66
1
 10
0.0000
 20
0.0000
 30
0.0000
 40
0.2540
 41
0.2540
 70
0
  0
VERTEX
  8
16
 10
34.6338
 20
-20.6638
 30
0.0000
 42
1.0000
  0
VERTEX
  8
16
 10
34.4542
 20
-20.4842
 30
0.0000
  0
SEQEND
  8
0
  0
POLYLINE
  8
16
 66
1
 10
0.0000
 20
0.0000
 30
0.0000
 40
0.2540
 41
0.2540
 70
0
  0
VERTEX
  8
16
 10
32.1682
 20
-22.7702
 30
0.0000
 42
1.0000
  0
VERTEX
  8
16
 10
32.3478
 20
-22.9498
 30
0.0000
  0
SEQEND
  8
0
  0
POLYLINE
  8
16
 66
1
 10
0.0000
 20
0.0000
 30
0.0000
 40
0.5080
 41
0.5080
 70
0
  0
VERTEX
  8
16
 10
34.5440
 20
-20.5740
 30
0.0000
  0
VERTEX
  8
16
 10
34.5440
 20
-19.6850
 30
0.0000
  0
SEQEND
  8
0
  0
POLYLINE
  8
16
 66
1
 10
0.0000
 20
0.0000
 30
0.0000
 40
0.2540
 41
0.2540
 70
0
  0
VERTEX
  8
16
 10
34.6710
 20
-19.6850
 30
0.0000
 42
1.0000
  0
VERTEX
  8
16
 10
34.4170
 20
-19.6850
 30
0.0000
  0
SEQEND
  8
0
  0
POLYLINE
  8
16
 66
1
 10
0.0000
 20
0.0000
 30
0.0000
 40
0.2540
 41
0.2540
 70
0
  0
VERTEX
  8
16
 10
34.4170
 20
-20.5740
 30
0.0000
 42
1.0000
  0
VERTEX
  8
16
 10
34.6710
 20
-20.5740
 30
0.0000
  0
SEQEND
  8
0
  0
POLYLINE
  8
16
 66
1
 10
0.0000
 20
0.0000
 30
0.0000
 40
0.6096
 41
0.6096
 70
0
  0
VERTEX
  8
16
 10
21.4630
 20
-70.2310
 30
0.0000
  0
VERTEX
  8
16
 10
28.4480
 20
-63.2460
 30
0.0000
  0
SEQEND
  8
0
  0
POLYLINE
  8
16
 66
1
 10
0.0000
 20
0.0000
 30
0.0000
 40
0.3048
 41
0.3048
 70
0
  0
VERTEX
  8
16
 10
28.5558
 20
-63.3538
 30
0.0000
 42
1.0000
  0
VERTEX
  8
16
 10
28.3402
 20
-63.1382
 30
0.0000
  0
SEQEND
  8
0
  0
POLYLINE
  8
16
 66
1
 10
0.0000
 20
0.0000
 30
0.0000
 40
0.3048
 41
0.3048
 70
0
  0
VERTEX
  8
16
 10
21.3552
 20
-70.1232
 30
0.0000
 42
1.0000
  0
VERTEX
  8
16
 10
21.5708
 20
-70.3388
 30
0.0000
  0
SEQEND
  8
0
  0
POLYLINE
  8
16
 66
1
 10
0.0000
 20
0.0000
 30
0.0000
 40
0.6096
 41
0.6096
 70
0
  0
VERTEX
  8
16
 10
21.4630
 20
-84.8487
 30
0.0000
  0
VERTEX
  8
16
 10
21.4630
 20
-70.2310
 30
0.0000
  0
SEQEND
  8
0
  0
POLYLINE
  8
16
 66
1
 10
0.0000
 20
0.0000
 30
0.0000
 40
0.3048
 41
0.3048
 70
0
  0
VERTEX
  8
16
 10
21.6154
 20
-70.2310
 30
0.0000
 42
1.0000
  0
VERTEX
  8
16
 10
21.3106
 20
-70.2310
 30
0.0000
  0
SEQEND
  8
0
  0
POLYLINE
  8
16
 66
1
 10
0.0000
 20
0.0000
 30
0.0000
 40
0.3048
 41
0.3048
 70
0
  0
VERTEX
  8
16
 10
21.3106
 20
-84.8487
 30
0.0000
 42
1.0000
  0
VERTEX
  8
16
 10
21.6154
 20
-84.8487
 30
0.0000
  0
SEQEND
  8
0
  0
POLYLINE
  8
16
 66
1
 10
0.0000
 20
0.0000
 30
0.0000
 40
0.6096
 41
0.6096
 70
0
  0
VERTEX
  8
16
 10
5.4610
 20
-1.1303
 30
0.0000
  0
VERTEX
  8
16
 10
6.9850
 20
-2.6543
 30
0.0000
  0
SEQEND
  8
0
  0
POLYLINE
  8
16
 66
1
 10
0.0000
 20
0.0000
 30
0.0000
 40
0.3048
 41
0.3048
 70
0
  0
VERTEX
  8
16
 10
6.8772
 20
-2.7621
 30
0.0000
 42
1.0000
  0
VERTEX
  8
16
 10
7.0928
 20
-2.5465
 30
0.0000
  0
SEQEND
  8
0
  0
POLYLINE
  8
16
 66
1
 10
0.0000
 20
0.0000
 30
0.0000
 40
0.3048
 41
0.3048
 70
0
  0
VERTEX
  8
16
 10
5.5688
 20
-1.0225
 30
0.0000
 42
1.0000
  0
VERTEX
  8
16
 10
5.3532
 20
-1.2381
 30
0.0000
  0
SEQEND
  8
0
  0
POLYLINE
  8
16
 66
1
 10
0.0000
 20
0.0000
 30
0.0000
 40
0.6096
 41
0.6096
 70
0
  0
VERTEX
  8
16
 10
6.9850
 20
-2.6543
 30
0.0000
  0
VERTEX
  8
16
 10
6.9850
 20
-21.7170
 30
0.0000
  0
SEQEND
  8
0
  0
POLYLINE
  8
16
 66
1
 10
0.0000
 20
0.0000
 30
0.0000
 40
0.3048
 41
0.3048
 70
0
  0
VERTEX
  8
16
 10
6.8326
 20
-21.7170
 30
0.0000
 42
1.0000
  0
VERTEX
  8
16
 10
7.1374
 20
-21.7170
 30
0.0000
  0
SEQEND
  8
0
  0
POLYLINE
  8
16
 66
1
 10
0.0000
 20
0.0000
 30
0.0000
 40
0.3048
 41
0.3048
 70
0
  0
VERTEX
  8
16
 10
7.1374
 20
-2.6543
 30
0.0000
 42
1.0000
  0
VERTEX
  8
16
 10
6.8326
 20
-2.6543
 30
0.0000
  0
SEQEND
  8
0
  0
POLYLINE
  8
16
 66
1
 10
0.0000
 20
0.0000
 30
0.0000
 40
0.6096
 41
0.6096
 70
0
  0
VERTEX
  8
16
 10
6.9850
 20
-21.7170
 30
0.0000
  0
VERTEX
  8
16
 10
5.8420
 20
-22.8600
 30
0.0000
  0
SEQEND
  8
0
  0
POLYLINE
  8
16
 66
1
 10
0.0000
 20
0.0000
 30
0.0000
 40
0.3048
 41
0.3048
 70
0
  0
VERTEX
  8
16
 10
5.7342
 20
-22.7522
 30
0.0000
 42
1.0000
  0
VERTEX
  8
16
 10
5.9498
 20
-22.9678
 30
0.0000
  0
SEQEND
  8
0
  0
POLYLINE
  8
16
 66
1
 10
0.0000
 20
0.0000
 30
0.0000
 40
0.3048
 41
0.3048
 70
0
  0
VERTEX
  8
16
 10
7.0928
 20
-21.8248
 30
0.0000
 42
1.0000
  0
VERTEX
  8
16
 10
6.8772
 20
-21.6092
 30
0.0000
  0
SEQEND
  8
0
  0
ENDSEC
  0
EOF
